<?xml version="1.0" encoding="utf-8"?>
<!-- Generator: Adobe Illustrator 28.0.0, SVG Export Plug-In . SVG Version: 6.00 Build 0)  -->
<svg version="1.1" id="Layer_1" xmlns="http://www.w3.org/2000/svg" xmlns:xlink="http://www.w3.org/1999/xlink" x="0px" y="0px"
	 viewBox="0 0 533 365" style="enable-background:new 0 0 533 365;" xml:space="preserve">
<style type="text/css">
	.st0{fill:#443337;}
	.st1{fill:#B7A79A;}
	.st2{fill:#F0EEEC;}
	.st3{fill:#C8B1A5;}
	.st4{fill:#D2D2D2;}
	.st5{fill:#939393;}
</style>
<g>
	<g>
		<path class="st0" d="M206.38,40.83c1.52-5.74,3.05-14.09,9.31-16.6c6.39-2.56,12.8-1.82,17.72-7.66
			c-3.64,0.47-7.27,0.94-10.91,1.41c2.55,1.51,5.16,2.23,8.15,2.19c1.3-0.02,2.69-0.62,3.95-0.46c0.79,0.1-1.12-0.76-0.38-0.27
			c1.67,1.08,2.85,3.3,4.47,4.58c1.16,0.91,5.51,4.01,7.04,3.43c1.07,0.44,0.89,0.1-0.55-1c-1.2-1.6-1.46-1.62-0.8-0.08
			c0.14,1.08,0.97,2.54,1.44,3.49c1.16,2.34,2.86,4.55,4.71,6.38c3.7,3.67,8.37,6.18,13.02,8.42c1.51-5.59,3.03-11.18,4.54-16.77
			c-5.34,0.33-10.62,1.08-15.82,2.29c-8.95,2.08-8.17,14.88,0,17.36c4.13,1.25,8.21,1.25,12.35,0.02
			c-2.31-5.48-4.62-10.97-6.94-16.45c-7.52,4.03-16.08,4-24.39,3.38c-9.06-0.67-18.97-1.3-27.73-3.75c1.32,0.77,2.65,1.54,3.97,2.31
			c-0.24-0.2-0.47-0.4-0.71-0.6c0.77,1.32,1.54,2.65,2.31,3.97c-0.05-0.24-0.11-0.48-0.16-0.72c0,1.6,0,3.19,0,4.79
			c0.8-5.13,10.86-4.1,14.34-4.17c6.78-0.13,13.63-0.14,19.62,3.43c9.97,5.95,19.03-9.6,9.08-15.54
			c-10.78-6.44-24.21-6.63-36.4-5.57c-6.4,0.56-12.39,2.16-17.39,6.35c-4.36,3.66-8.1,9.98-6.53,15.85
			c1.93,7.2,9.46,7.87,15.66,8.78c6.83,1,13.7,1.89,20.57,2.56c12.7,1.24,25.39,0.59,36.84-5.54c8.98-4.81,2.85-19.36-6.94-16.45
			c-2.04,0.61-0.74,0.6-2.78-0.02c0,5.79,0,11.57,0,17.36c3.68-0.85,7.27-1.41,11.04-1.64c8.16-0.51,13.2-12.61,4.54-16.77
			c-3.58-1.72-8.41-3.56-10.61-7.09c-0.99-1.6-1.25-3.62-2.22-5.28c-1.52-2.6-3.76-4.37-6.48-5.58c-1.17-0.52-2.77-0.79-3.77-1.47
			c-2.01-1.36-3.24-3.86-5.35-5.28c-2.4-1.62-5.11-2.59-8.03-2.71c-0.93-0.04-1.84,0.06-2.76,0.15c-3.57,0.36-2.8,0.01-1.81,0.59
			c-3.19-1.89-8.38-1.6-10.91,1.41c-1.85,2.2-5.48,1.96-8.15,2.62c-4.22,1.05-7.95,2.97-11.23,5.81
			c-7.04,6.08-9.96,15.07-12.27,23.77C186.06,47.25,203.42,52.03,206.38,40.83L206.38,40.83z"/>
	</g>
</g>
<g>
	<g>
		<path class="st0" d="M104.37,203.94c5.15,1.48,10.31,2.37,15.62,3.05c0-6,0-12,0-18c-1.12,0.14-3.76,0-4.77,0.41
			c-1.38,0.56-1.19-1.76-0.1,1.24c-5.01,2.92-10.03,5.84-15.04,8.76c5.49,4.92,12.28,5.86,18.93,8.46
			c5.37,2.1,12.71,5.25,16.44,9.78c-0.77-1.32-1.54-2.65-2.31-3.97c0.29-0.72,0.34-0.79,0.15-0.22c-0.17,0.62-0.42,1.21-0.75,1.77
			c-0.7,1.7-1.44,3.34-2,5.09c-0.8,2.51-1.24,5.12-1.8,7.69c-1.36,6.21-3.24,9.54-8.41,13.37c-10.65,7.89-21.67,14.87-34.37,18.9
			c3.69,3.69,7.38,7.38,11.07,11.07c4.61-15.68-2.71-33.43-17.3-40.98c-0.72,5.48-1.43,10.97-2.15,16.45
			c5.15-0.77,10.42-1.88,14.89-4.73c5.03-3.2,6.79-7.65,9.88-12.39c3.05-4.67,6.97-7.72,8.87-13.27c0.83-2.42,1.25-4.93,1.65-7.44
			c0.29-1.82,0.18-4.77,1.13-6.32c-2.59,1.49-5.18,2.97-7.77,4.46c0.55,0.18,1.12,0.33,1.69,0.44c11.23,2.86,16.02-14.5,4.79-17.36
			c-6.67-1.7-13.2-1.07-15.7,6.42c-1.63,4.87-0.96,10.7-3.31,15.31c-1.02,1.99-2.94,3.51-4.35,5.24c-1.96,2.39-3.09,4.99-4.69,7.58
			c-2.39,3.86-7.73,4.08-11.87,4.71c-7.7,1.16-8.62,13.1-2.15,16.45c7.63,3.95,11.47,12.32,9.02,20.65
			c-1.89,6.43,4.54,13.14,11.07,11.07c12.2-3.87,23.19-9.76,33.63-17.11c4.73-3.33,9.9-6.58,13.82-10.89
			c4.16-4.57,6.41-10.11,7.73-16.07c1.16-5.25,2.99-9.89,4.57-14.97c2.22-7.16-0.6-13-6.36-17.27c-4.64-3.43-9.71-6.28-14.99-8.6
			c-3.09-1.36-6.22-2.62-9.44-3.65c-2.09-0.67-5.24-0.9-6.91-2.39c-6.15-5.52-18.34-0.28-15.04,8.76
			c3.58,9.81,12.46,12.79,22.22,11.57c11.55-1.45,11.56-16.53,0-18c-3.67-0.47-7.28-1.38-10.83-2.4
			C98,183.38,93.24,200.74,104.37,203.94L104.37,203.94z"/>
	</g>
</g>
<g>
	<g>
		<path class="st0" d="M105.38,214.71c6.05,7.23,15.51,6.62,22.53,11.88c-1.08-1.08-2.15-2.15-3.23-3.23
			c0.09,0.19,0.18,0.39,0.27,0.58c0-1.6,0-3.19,0-4.79c-1.13,6.07-10.71,10.88-14.77,15.3c-2.54,2.76-4.75,5.78-7.07,8.72
			c-2.19,2.78-4.77,6.8-7.95,8.47c2.31-0.3,4.62-0.6,6.94-0.91c-0.33-0.09-0.65-0.17-0.98-0.26c2.1,2.1,4.19,4.19,6.29,6.29
			c-0.05-0.37-0.11-0.74-0.16-1.11c0,1.6,0,3.19,0,4.79c2.1-12.96,12.72-22.6,11.93-36.43c-0.47-8.17-9.33-11.37-15.36-6.36
			c-7.84,6.5-14.6,16.41-10.4,26.95c2.3,5.77,10.12,9.56,15.04,3.97c6.54-7.42,12.76-15.08,18.79-22.91
			c-5.18-3.03-10.36-6.06-15.54-9.08c-6.53,11.52-13.31,23.54-25.82,29.31c4.51,2.59,9.03,5.18,13.54,7.77
			c0.04,0.78-0.2,0.48,1.27-1c0.78-0.78,1.57-1.54,2.38-2.28c2.08-1.9,4.26-3.63,6.6-5.21c4.62-3.11,9.54-5.65,14.79-7.51
			c10.85-3.84,6.17-21.24-4.79-17.36c-8.43,2.98-16.25,6.98-23.36,12.42c-6.62,5.06-15.36,11.68-14.91,20.93
			c0.36,7.23,7.27,10.66,13.54,7.77c15.2-7.01,24.33-21.74,32.28-35.76c2.4-4.23,1-9.84-3.23-12.31c-4.64-2.72-9.34-0.64-12.31,3.23
			c-5.09,6.61-10.46,13.01-15.97,19.27c5.01,1.32,10.03,2.65,15.04,3.97c-1.66-4.17,2.88-7.04,5.77-9.44
			c-5.12-2.12-10.24-4.24-15.36-6.36c0.35,6.14-2.9,11.17-5.63,16.46c-3.41,6.63-6.6,13.51-5.5,21.09c0.43,2.96,3.55,5.57,6.29,6.29
			c9.66,2.53,16.33-7.89,21.48-14.47c5.14-6.57,11.4-11.21,17.18-17.08c6.83-6.94,11.58-18.28,2-25.24
			c-3.34-2.43-7.24-3.77-11.15-5.01c-3.02-0.96-5.66-1.57-7.74-4.05c-3.12-3.73-9.5-3.22-12.73,0
			C101.69,205.68,102.24,210.98,105.38,214.71L105.38,214.71z"/>
	</g>
</g>
<g>
	<g>
		<path class="st0" d="M149.03,222.44c6.12,1.02,12.26,1.64,18.46,1.24c3.18-0.21,6.38-0.62,9.51-1.17c2.5-0.43,5.5-1.77,8.05-1.7
			c4.17,0.12,8.27,5.28,11.26,7.84c2.48,2.13,4.95,4.28,7.4,6.44c1.23,1.08,2.45,2.17,3.67,3.26c0.72,0.65,2.8,3.44,2.55,2.15
			c0.3-2.31,0.6-4.62,0.91-6.94c-0.17,0.36-0.34,0.72-0.51,1.08c1.08-1.08,2.15-2.15,3.23-3.23c-0.5,0.28-4.47,0.6-6.06,0.93
			c-2.67,0.54-5.32,1.18-7.95,1.9c-5.26,1.44-10.39,3.27-15.43,5.36c3.8,2.89,7.6,5.79,11.39,8.68
			c-0.44-8.76-7.04-14.39-13.42-19.58c-3.21-2.61-6.55-5.06-10.01-7.32c-2.59-1.69-5.39-3.05-6.98-5.79
			c-5.83-10-21.39-0.95-15.54,9.08c3.53,6.06,9.17,9.38,14.85,13.17c2.64,1.76,5.15,3.66,7.54,5.75c1.06,0.92,2.09,1.87,3.11,2.84
			c0.61,0.58,1.21,1.17,1.8,1.77c1.12,1.49,1.34,1.51,0.66,0.07c0.26,5.17,5.65,11.06,11.39,8.68c5.04-2.09,10.17-3.91,15.43-5.36
			c5.27-1.45,11.3-1.67,16.33-3.68c5.84-2.33,8.22-8.78,5.92-14.51c-2.17-5.42-8.09-9.26-12.36-12.99
			c-7.72-6.76-16.49-17.02-27.44-17.6c-5.63-0.3-11.07,1.96-16.61,2.62c-5.4,0.64-11,0.53-16.36-0.36
			c-4.79-0.8-9.69,1.26-11.07,6.29C141.56,215.68,144.21,221.64,149.03,222.44L149.03,222.44z"/>
	</g>
</g>
<g>
	<g>
		<path class="st0" d="M168.93,233.18c5.74,2.08,11.54,1.44,16.78,5.17c4.89,3.48,7.76,8.91,14.25,9.87
			c4.8,0.71,9.67-1.2,11.07-6.29c1.17-4.24-1.45-10.35-6.29-11.07c-1.97-0.29-0.28,0.77-1.59-0.79c-0.88-1.04-1.96-2.1-2.96-3.03
			c-2.4-2.23-5.11-4.26-8-5.81c-2.88-1.55-6.06-2.85-9.24-3.61c-3.08-0.74-6.24-0.72-9.23-1.8c-4.57-1.66-9.86,1.86-11.07,6.29
			C161.26,227.11,164.34,231.51,168.93,233.18L168.93,233.18z"/>
	</g>
</g>
<g>
	<g>
		<path class="st0" d="M179.22,190.15c1.82,3.55,1.94,6.72,4.89,9.84c2.69,2.85,7.21,4.81,8.24,8.84c2.05-2.05,4.1-4.1,6.15-6.15
			c2.19,0.88-0.83-3.13-1.46-4.08c-1.31-1.98-2.77-3.96-4.31-5.77c-2.44-2.86-6.46-4.55-9.7-1.74c-2.76,2.4-3.32,6.87-2.86,10.27
			c0.6,4.5,3.86,7.91,4.34,12.45c0.67,6.34,10.67,6.4,10,0c-0.32-2.99-0.87-5.8-2.1-8.57c-0.63-1.41-3.66-5.41-2.31-7.07
			c-1.62,0.43-3.24,0.86-4.86,1.29c1.32,0.18,4.4,6.26,5.3,7.84c1.49,2.59,2.46,3.9,5.31,5.04c3.71,1.49,7.01-2.8,6.15-6.15
			c-1.15-4.52-4.07-7.53-7.59-10.41c-1.64-1.34-3.64-2.72-4.55-4.7c-0.87-1.9-1.01-4.03-2-5.95
			C184.91,179.37,176.28,184.43,179.22,190.15L179.22,190.15z"/>
	</g>
</g>
<g>
	<g>
		<path class="st0" d="M21.59,302.64c-8.08,4.79-14.68,11.83-10.55,21.62c2.88-1.68,5.76-3.36,8.63-5.05
			c-0.68-0.98-0.67-1.93,0.03-2.86c1.87-4.64-5.2-8.49-8.36-4.86c-5.72,6.56-1.47,13.11,3.35,18.62
			c6.35,7.26,12.58,14.66,19.12,21.75c4.06,4.4,10.92,9.62,16.92,5.26c7.86-5.71-1.66-14.33-4.03-20.22
			c-1.67-4.16-2.36-8.43-2.39-12.9c-0.03-3.96-0.04-7.48-2.51-10.79c-3.23-4.32-11.87-12.02-17.6-9.42
			c-7.26,3.3-6.79,13.3-4.33,19.42c3.39,8.43,9.03,16.09,14.75,23.06c2.82,3.43,8.6,0.54,8.54-3.54c-0.07-4.65-1.56-8.76-3.55-12.91
			c-1.82-3.79-4.97-8.24-4.32-12.67c0.93-6.3-8.7-9.01-9.64-2.66c-0.75,5.1,0.17,9.42,2.25,14.11c2.04,4.58,5.18,8.95,5.25,14.13
			c2.85-1.18,5.69-2.36,8.54-3.54c-2.68-3.26-18.65-22.99-12.44-26.77c-1.28,0.17-2.57,0.34-3.85,0.5c2.06,0.33,7.46,4.44,8.47,6.26
			c1.42,2.57,0.39,6.94,0.71,9.86c0.76,7.04,3.22,13.87,7.23,19.71c0.5,0.67,0.99,1.35,1.48,2.03c0.82,1.55,1.46,0.82,1.94-2.19
			c-0.15-0.57-2.69-2.08-3.35-2.75c-2.96-3-5.64-6.36-8.43-9.52c-1.32-1.5-15.85-16.83-15.03-17.77c-2.79-1.62-5.57-3.24-8.36-4.86
			c-1.47,3.64-0.96,7.22,0.98,10.57c3.33,5.74,11.06,0.7,8.63-5.05c-1.47-3.49,4.89-6.71,6.96-7.94
			C32.17,307.99,27.14,299.35,21.59,302.64L21.59,302.64z"/>
	</g>
</g>
<g>
	<g>
		<path class="st0" d="M196.26,331.68c-10.23,9.56-7.85,25.01,6.48,28.09c7.98,1.71,16.1,3.06,24.21,3.99
			c7.44,0.85,16.04,2.01,23.22-0.68c3.41-1.28,5.08-5.53,2.21-8.36c-3.02-2.97-6.82-3.3-10.49-5.07c-4.53-2.19-8.43-5.71-12.36-8.79
			c-3.53-2.76-7.12-6.36-11.28-8.14c-4.5-1.93-10.17-1.69-14.98-1.71c-4.21-0.02-6.76,5.56-3.54,8.54c1.93,1.78,4.15,2.9,6.84,2.92
			c1.14,0.01,2.31-0.24,3.41-0.52c0.7-0.18,4.89-1.22,3.34-1.5c-1.75-0.32,1.52,1.86,2.03,2.34c1.33,1.24,2.66,2.49,4,3.73
			c2.66,2.49,5.33,4.98,7.99,7.46c0-2.36,0-4.71,0-7.07c-1,1.09-8.09-1.36-9.42-1.83c-3.57-1.27-6.25-3.2-7.83-6.73
			c-1.44,2.51-2.88,5.02-4.32,7.52c1.79,0.02,3.59,0.05,5.37,0.31c1.65,0.24,4.2,1.91,3.92-0.06c-0.28-1.97-3.06-1.46-4.81-2
			c-2.12-0.65-3.95-1.62-5.82-2.79c-3.09-1.93-7.76,0.54-7.52,4.32c0.62,9.65,12.84,11.39,15.88,2.1c2.01-6.13-7.65-8.76-9.64-2.66
			c1.26,0.19,2.51,0.37,3.77,0.56c-2.51,1.44-5.02,2.88-7.52,4.32c6.25,3.91,22.08,9.7,25.36-0.87
			c3.45-11.1-11.65-13.17-18.98-13.23c-4.11-0.04-5.81,4.2-4.32,7.52c2.84,6.34,8.9,9.94,15.36,11.8c5.58,1.61,13.11,3.7,17.6-1.21
			c1.77-1.94,2.05-5.16,0-7.07c-4.97-4.64-9.77-9.69-15.03-14.01c-1.7-1.4-3.48-2.37-5.76-2.33c-1.43,0.03-6.53,2.16-6.83,1.89
			c-1.18,2.85-2.36,5.69-3.54,8.54c4.22,0.02,9.11-0.43,12.78,1.92c3.85,2.47,7.4,5.78,11.02,8.59c2.91,2.26,5.81,4.64,9.07,6.39
			c2.64,1.42,7.12,1.84,9.19,3.88c0.74-2.79,1.47-5.57,2.21-8.36c-9.03,3.38-21.5,0.4-30.71-1.18c-2.54-0.44-5.08-0.91-7.61-1.39
			c-2.22-0.42-5.7-0.51-7.63-1.78c-4.18-2.75-0.81-7.93,1.76-10.32C208.05,334.34,200.96,327.28,196.26,331.68L196.26,331.68z"/>
	</g>
</g>
<g>
	<g>
		<path class="st1" d="M101.17,114.56c3.18-1.62,5.66,1.06,6.11,3.92c0.57,3.57,0.03,6.67,2.68,9.6c5.31,5.87,15.4,0.38,21.09-2.32
			c5.96-2.83,10.45-9.38,6.26-15.69c-4.86-7.33-13.55-5.26-20.34-2.38c2.02,0.26,4.04,0.52,6.06,0.78
			c-5.93-5.69-13.28-7.73-21.33-6.5c1.62,2.79,3.24,5.57,4.86,8.36c9.31-10.78,21.17-18.41,33.75-24.86
			c14.08-7.22,28.66-13.5,43.03-20.1c4.43-2.03,2.32-9.78-2.52-9.32c-7.18,0.69-13.47,3.6-18.02,9.33
			c-2.15,2.71-1.84,7.49,2.21,8.36c12.44,2.67,25.15-4.74,28.42-17.18c-2.79,0.74-5.57,1.47-8.36,2.21
			c5.83,6.67,12.07,13.72,14.24,22.53c2.25,9.11,0.72,18.22,4.77,26.99c1.76,3.81,8.37,2.9,9.14-1.19
			c1.32-7.07,1.18-13.9-0.66-20.86c-2.45,1.88-4.9,3.76-7.35,5.65c3.64,2.74,7.3,5.34,11.57,7.02c4.79,1.88,9.61,1.73,14.67,1.95
			c9.65,0.41,17.44,6.61,27.09,2.24c5.59-2.53,1.25-9.93-3.85-9.14c-1.46,0.23-2.92,0.45-4.39,0.68c1.62,2.79,3.24,5.57,4.86,8.36
			c1.94-2.05,6.5,0.68,8.63,1.34c3.47,1.08,6.91,1.46,10.38,0.16c3.49-1.3,5.57-7.28,1.19-9.14c-1.88-0.8-3.16-1.27-5.23-1.16
			c-6.39,0.34-6.46,10.27,0,10c4.4-0.19,8.81-0.3,13.21-0.31c1.89,0,3.78,0.01,5.66,0.04c1.26,0.02,2.52,0.05,3.78,0.09
			c2.12,0.13,2.51,0.12,1.18-0.03c-0.77-1-1.53-1.99-2.3-2.99c-0.32-1.02-0.11,0.51-0.3,1.28c-0.37,1.53-0.75,3.07-1.12,4.6
			c-0.67,2.76-1.34,5.52-2.01,8.28c1.61-1.22,3.21-2.45,4.82-3.67c-17.59,1.2-35.21,1.15-52.79-0.18
			c-8.47-0.64-16.94-1.51-25.45-1.36c-5.62,0.1-16.67-0.6-20.33,4.75c-1.96,2.86-1.72,7.28-2.6,10.51
			c-0.97,3.54-2.29,6.97-3.58,10.4c-3.08,8.19-5.94,16.54-9.39,24.57c-1.33,3.09-2.87,6.12-4.76,8.92c-2.11,3.13-4.67,5.87-5.69,9.6
			c-2.06,7.55,2.26,14.59,2.54,22.01c1.67-1.67,3.33-3.33,5-5c-7.07-0.62-14.18-1.07-21.23-1.89c-7.05-0.82-12.43-4-18.42-7.53
			c-5.38-3.17-10.99-5.92-16.77-8.28c-3.61-1.48-12.51-2.94-13.92-7.2c-0.77,1.88-1.53,3.76-2.3,5.65
			c5.88-2.72,11.2-6.67,15.32-11.69c4.38-5.33,6.83-11.57,10.09-17.57c6.16-11.33,15.26-20.87,13.18-34.68
			c-0.95-6.34-10.59-3.65-9.64,2.66c1.55,10.28-8.61,20.01-12.97,28.48c-2.56,4.97-4.62,10.27-8.23,14.61
			c-3.5,4.21-7.87,7.27-12.81,9.55c-1.9,0.88-2.94,3.7-2.3,5.65c2.08,6.3,7.25,9.07,13.14,11.27c7.13,2.66,14.02,5.51,20.64,9.31
			c6.55,3.76,12.64,7.81,20.22,9.14c8.53,1.49,17.37,1.77,25.99,2.53c2.63,0.23,5.09-2.48,5-5c-0.12-3.23-0.72-6.3-1.51-9.43
			c-0.78-3.09-2.23-6.71-1.38-9.92c0.84-3.18,3.89-5.89,5.59-8.63c1.79-2.87,3.19-5.95,4.51-9.06c2.79-6.59,5.18-13.35,7.71-20.03
			c1.33-3.5,2.71-6.99,3.94-10.53c1.28-3.69,1.75-7.59,2.94-11.25c0.31-0.67,0.1-0.91-0.64-0.71c1.01-0.21,2.02-0.38,3.05-0.51
			c1.95-0.28,3.9-0.44,5.86-0.55c3.76-0.21,7.52-0.18,11.28-0.03c7.59,0.3,15.15,1.11,22.73,1.59c15.98,1.02,32,0.93,47.98-0.16
			c2.16-0.15,4.28-1.44,4.82-3.67c1.19-4.88,2.67-9.79,3.58-14.72c0.61-3.28,0.04-6.64-3.26-8.23c-3.66-1.76-9.02-0.97-12.96-0.99
			c-5.04-0.02-10.07,0.1-15.1,0.31c0,3.33,0,6.67,0,10c0.06-0.07,0.12-0.14,0.18-0.21c0.4-3.05,0.8-6.09,1.19-9.14
			c-4.17,1.56-8.93-2.07-13.25-2.46c-3.88-0.35-7.46,0.65-10.17,3.53c-3.67,3.89,0.11,9.09,4.86,8.36c1.46-0.23,2.92-0.45,4.39-0.68
			c-1.28-3.05-2.57-6.09-3.85-9.14c-3.56,1.61-8.1-0.71-11.54-1.77c-3.45-1.06-6.88-1.7-10.51-1.84c-4-0.15-7.91,0.13-11.69-1.46
			c-3.45-1.45-6.53-3.92-9.5-6.15c-3.66-2.75-8.37,1.78-7.34,5.65c1.37,5.18,1.65,10.27,0.66,15.55c3.05-0.4,6.09-0.8,9.14-1.19
			c-4.16-9.02-1.54-19.77-5.22-29.11c-3.38-8.56-9.36-15.59-15.35-22.44c-2.5-2.86-7.44-1.26-8.36,2.21
			c-1.84,6.99-8.92,11.74-16.12,10.2c0.74,2.79,1.47,5.57,2.21,8.36c2.83-3.56,6.32-5.96,10.95-6.4c-0.84-3.11-1.68-6.21-2.52-9.32
			C151.14,69.22,119.6,80,99.5,103.27c-3.43,3.97-0.05,9.11,4.86,8.36c4.37-0.67,8.47,0.92,11.6,3.93c1.78,1.7,3.94,1.68,6.06,0.78
			c1.56-0.66,3.21-1.41,4.93-1.36c1.65,0.05,2.37-0.18,0.91,1.2c-1.56,1.48-4.96,2.1-6.86,2.8c-0.53,0.19-4.08,1.74-4.28,1.56
			c0.66,0.57,0.56-1.98,0.56-2.05c0.11-2.18-0.42-4.6-1.44-6.53c-3.78-7.18-12.66-9.61-19.72-6.02
			C90.39,108.85,95.44,117.48,101.17,114.56L101.17,114.56z"/>
	</g>
</g>
<g>
	<g>
		<path class="st1" d="M126.31,119.14c1.87-2.78,3.34-5.86,4.24-9.09c0.82-2.95,0.38-6.24,1.19-9.11c-0.77,1.32-1.54,2.65-2.31,3.97
			c2.01-2.25,6.57-4.14,9.38-5.72c3.72-2.09,7.5-4.08,11.32-5.98c6.96-3.45,14.07-6.54,21.35-9.24c3.74-1.39,7.51-2.75,11.37-3.76
			c0.89-0.24,1.79-0.46,2.69-0.65c-2.68-2.34-3.27-2.51-1.76-0.49c0.49,1.25,1.06,2.16,1.51,3.45c1.42,4.04,2.54,8.21,3.78,12.3
			c0.79,2.62,3.83,9.57,3.23,11.02c0.77-1.32,1.54-2.65,2.31-3.97c-2.46,2.97-6.1,2.55-9.68,2.24c-5.06-0.44-9.91-1.14-15.02-0.84
			c-9.73,0.56-19.53,1.54-29.29,0.69c1.51,0.41,3.03,0.82,4.54,1.23c-0.25-0.12-0.51-0.24-0.76-0.35c1.08,1.08,2.15,2.15,3.23,3.23
			c-0.16-0.29-0.31-0.58-0.47-0.87c0.41,1.51,0.82,3.03,1.23,4.54c-0.16-1.99-0.54-5.05,0.13-6.89c-0.77,1.32-1.54,2.65-2.31,3.97
			c1.67-1.48,6.67-2.51,9.14-3.5c3.33-1.34,6.66-2.68,10-4.01c6.8-2.73,13.61-6.01,20.62-8.13c-1.6,0-3.19,0-4.79,0
			c0.49,0.08,0.99,0.16,1.48,0.24c-1.32-0.77-2.65-1.54-3.97-2.31c0.27,0.31,0.53,0.62,0.8,0.93c-0.77-1.32-1.54-2.65-2.31-3.97
			c1.18,3.33,1.87,6.85,2.51,10.32c0.31,1.66,0.58,3.33,0.79,5c0.1,0.77-0.21,4.73,0.41,3.04c1.38-1.79,2.76-3.59,4.14-5.38
			c-0.29,0.17-0.57,0.33-0.86,0.5c1.51-0.41,3.03-0.82,4.54-1.23c-0.35-0.02-3.67-1.57-4.76-1.9c-1.68-0.52-3.38-0.95-5.1-1.31
			c-3.94-0.83-7.97-1.35-11.98-1.66c-8.01-0.62-16.03-0.13-24.02,0.52c0.8,5.89,1.6,11.79,2.39,17.68
			c14.85-2.64,29.7-5.29,44.55-7.93c4.79-0.85,7.49-6.7,6.29-11.07c-1.39-5.05-6.27-7.14-11.07-6.29
			c-14.85,2.64-29.7,5.29-44.55,7.93c-9.91,1.76-7.73,18.5,2.39,17.68c13.42-1.09,26.78-1.66,39.65,2.95
			c6.15,2.2,13.41,1.44,15.75-5.7c2.02-6.16-0.6-15.17-1.95-21.28c-1.39-6.29-3.13-12.71-10.33-14.1
			c-4.31-0.84-7.89,1.09-11.78,2.65c-3.63,1.46-7.27,2.92-10.9,4.38c-6.66,2.68-13.33,5.35-19.99,8.03
			c-7.29,2.93-12.54,5.67-12.98,14.21c-0.35,6.66,0.22,14.44,7.92,16.56c6.1,1.68,13.78,0.68,20.04,0.44
			c6.53-0.25,13.02-1.29,19.57-0.76c6.78,0.55,13.29,1.82,19.96-0.44c6.19-2.09,12.39-7.04,12.74-14.05
			c0.36-7.17-3.78-15.67-5.84-22.42c-1.63-5.34-3.08-11-6.2-15.7c-4.92-7.4-11.39-8.09-19.56-6.09
			c-14.78,3.61-29.37,10.51-42.8,17.54c-6.09,3.19-13.61,6.4-18.68,11.15c-5.38,5.05-2.74,12.84-6.71,18.74
			C104.28,119.7,119.87,128.72,126.31,119.14L126.31,119.14z"/>
	</g>
</g>
<g>
	<g>
		<path class="st1" d="M177.98,111.96c-4.27,13.15-9.44,25.89-15.54,38.3c-2.99,6.1-6.21,12.39-7.6,19.09
			c-0.69,3.34-1.14,6.83-0.85,10.24c0.29,3.38,1.88,6.66,2.1,9.96c3-3,6-6,9-9c-3.64-0.1-8.22-2.68-11.67-3.91
			c-4-1.42-7.99-2.84-11.99-4.27c-8.3-2.95-16.6-5.91-24.9-8.86c1.32,5.01,2.65,10.03,3.97,15.04c10.7-8.51,18.03-20.32,24.16-32.37
			c1.56-3.07,3.07-6.18,4.58-9.28c1.04-2.14,1.93-5.14,3.33-6.99c-1,0.51-1.05,0.62-0.17,0.34c0.81-0.2,1.62-0.37,2.44-0.49
			c1.65-0.25,3.33-0.31,5-0.32c3.31-0.03,8.19-0.05,11.06,1.75c-1.08-1.08-2.15-2.15-3.23-3.23c0.04-1.01,0.08-1.17,0.11-0.47
			c-0.21,1.21-0.42,2.41-0.63,3.62c-0.31,1.81-0.63,3.62-0.94,5.43c-0.8,4.59-1.59,9.17-2.39,13.76c-0.79,4.52-1.58,9.03-2.42,13.54
			c-0.58,3.12-0.73,7.7-2.95,10.16c5.01,2.92,10.03,5.84,15.04,8.76c4.58-14.48,14.15-26.77,18.89-41.25
			c2.6-7.92-6.64-13.52-13.22-10.16c-10.03,5.1-19.66,10.96-28.68,17.7c-8.23,6.14-16.02,12.95-20.62,22.33
			c-4.64,9.46,6.2,17.32,14.14,10.91c1.09-0.88,2.04-2.06,2.75-3.28c0.24-0.47,0.47-0.95,0.67-1.44c0.86-1.71-0.29-1.16-3.44,1.65
			c0.33,0.77,9.28,1.1,10.48,1.24c3.72,0.44,7.88-3.1,8.68-6.61c1.99-8.74,3.99-17.48,5.98-26.21c1.71-7.49,7.26-20.42-1.47-25.53
			c-6.38-3.73-16.04-0.28-22.13,2.64c-6.69,3.21-12.6,8.6-16,15.24c-3.57,6.97-4.75,15.26-2.76,22.88
			c2.25,8.61,11.06,17.24,19.61,9.43c6.03-5.5,11.01-13.08,15.87-19.59c5.07-6.78,9.84-13.78,14.35-20.94
			c5.36-8.51-7.38-18.73-14.14-10.91c-9.17,10.62-18.18,21.39-27.02,32.29c-4.78,5.9-1.96,15.19,6.36,15.36
			c3.37,0.07,6.12-0.72,9.02-2.36c10.08-5.71,1.02-21.27-9.08-15.54c0.02-0.03,0.04-0.06,0.06-0.1c2.12,5.12,4.24,10.24,6.36,15.36
			c8.84-10.91,17.84-21.67,27.02-32.29c-4.71-3.64-9.42-7.27-14.14-10.91c-7.99,12.67-16.67,26.34-27.41,36.88
			c1.32-0.77,2.65-1.54,3.97-2.31c-0.34,0.13-0.68,0.25-1.02,0.38c2.31,0.3,4.62,0.6,6.94,0.91c-0.39-0.18-0.78-0.36-1.17-0.54
			c1.08,1.08,2.15,2.15,3.23,3.23c-3.2-4.58-1.91-11.08,1.37-15.31c1.92-2.48,4.78-4.45,7.65-5.64c1.12-0.46,2.32-0.79,3.49-1.09
			c0.97-0.24,1.95-0.45,2.94-0.6c0.88,0,0.77-0.02-0.32-0.05c-1.79-1.38-3.59-2.76-5.38-4.14c0.16,0.34,0.31,0.68,0.47,1.02
			c-0.41-1.51-0.82-3.03-1.23-4.54c-0.68,6.1-2.93,12.5-4.3,18.5c-1.49,6.55-2.99,13.11-4.48,19.66c2.89-2.2,5.79-4.4,8.68-6.61
			c-4.72-0.56-10.4-2.14-15.1-0.82c-2.13,0.6-3.95,2-5.39,3.61c-0.89,0.99-1.52,2.05-2.09,3.23c-0.25,0.51-1.05,1.44-0.61,1.08
			c4.71,3.64,9.42,7.27,14.14,10.91c3.76-7.67,10.18-13.06,17.02-17.96c8.2-5.87,16.84-11.04,25.83-15.61
			c-4.41-3.39-8.81-6.78-13.22-10.16c-4.73,14.44-14.29,26.7-18.89,41.25c-2.67,8.45,9.02,15.39,15.04,8.76
			c5.46-6.02,6.71-13.27,8.12-21c1.42-7.82,2.76-15.66,4.12-23.49c1.2-6.92,4.27-15.68,0.59-22.3c-4.08-7.33-14.84-8.24-22.3-8.46
			c-6.92-0.2-16.1,0.26-21.4,5.32c-4.49,4.28-6.69,11.3-9.39,16.76c-5.97,12.07-12.42,23.77-23.13,32.29
			c-5.76,4.57-1.7,13.02,3.97,15.04c8.92,3.17,17.83,6.34,26.75,9.52c8.29,2.95,17.73,7.91,26.6,8.16c4.64,0.13,9.31-4.24,9-9
			c-0.42-6.49-3.1-11.48-1.26-18.02c1.7-6.04,4.9-11.55,7.57-17.19c5.78-12.2,10.76-24.77,14.93-37.6
			C198.93,105.7,181.55,100.97,177.98,111.96L177.98,111.96z"/>
	</g>
</g>
<g>
	<g>
		<path class="st1" d="M205.35,113.92c28.11,0.81,56.23,0.58,84.33-0.67c11.54-0.52,11.6-18.52,0-18
			c-28.09,1.26-56.22,1.48-84.33,0.67C193.76,95.59,193.77,113.59,205.35,113.92L205.35,113.92z"/>
	</g>
</g>
<g>
	<g>
		<path class="st1" d="M206.35,117.12c1.67,1.64,3.49,2.66,5.68,3.42c0.74,0.26,1.46,0.32,2.25,0.43c0.84,0.11,1.57,0.25,2.4,0.16
			c1.24,0.05,2.39-0.21,3.47-0.78c1.12-0.36,2.08-0.98,2.9-1.86c1.56-1.56,2.74-4.12,2.64-6.36c-0.1-2.33-0.87-4.74-2.64-6.36
			c-1.65-1.52-4.04-2.88-6.36-2.64c-0.41,0.04-0.8,0.04-1.2,0c0.8,0.11,1.6,0.21,2.39,0.32c-0.4-0.06-0.78-0.16-1.17-0.31
			c0.72,0.3,1.43,0.6,2.15,0.91c-0.38-0.16-0.72-0.35-1.05-0.59c0.61,0.47,1.21,0.94,1.82,1.41c-0.19-0.15-0.37-0.31-0.54-0.48
			c-1.66-1.63-4.03-2.64-6.36-2.64c-2.21,0-4.84,0.98-6.36,2.64c-1.57,1.72-2.74,3.97-2.64,6.36
			C203.82,113.13,204.62,115.42,206.35,117.12L206.35,117.12z"/>
	</g>
</g>
<g>
	<g>
		<path class="st2" d="M193.29,311.52c6.29,4.31-0.09,14.83,4.82,19.76c3.47,3.49,11.24,1.67,13.79-2.01
			c1.98-2.86,1.22-6.28,0.99-9.5c-0.11-1.56-0.25-3.06,0.15-4.6c0.44-1.72,1.51-3.22,1.83-5c1.58-8.75-9.46-6.43-14.51-6.08
			c-5.75,0.4-5.79,9.4,0,9c1.75-0.12,3.5-0.24,5.24-0.36c0.75-0.05,1.5-0.1,2.25-0.16c1.87,0,2-0.11,0.39-0.32
			c-0.74-1.3-1.49-2.59-2.23-3.89c0.06,1.62-1.43,3.52-1.8,5.12c-0.43,1.82-0.48,3.69-0.37,5.55c0.05,0.9,0.54,4.85,0.47,4.91
			c-0.27,0.23-1.78-0.26-1.91-0.01c0.44-0.81,3.22,6.47,2.98,0.69c-0.33-7.93-0.36-15.96-7.54-20.88
			C193.05,300.46,188.54,308.26,193.29,311.52L193.29,311.52z"/>
	</g>
</g>
<g>
	<g>
		<path class="st2" d="M210.02,313.62c5.79,0,5.8-9,0-9C204.22,304.62,204.22,313.62,210.02,313.62L210.02,313.62z"/>
	</g>
</g>
<g>
	<g>
		<path class="st2" d="M35.45,283.39c1.53,6.46-3.55,9.1-6.37,14.01c-2.37,4.12-1.92,9.4,2.82,11.47c4.61,2,9.25-0.26,12.91-3.12
			c1.78-1.4,3.69-2.92,5.06-4.74c0.71-0.95,1.4-2.01,1.73-3.18c0.05-0.4,0.11-0.8,0.16-1.2c0.45-1.71,0.05-1.82-1.22-0.31
			c5.74-0.36,5.84-8.89,0-9c-0.99,0.08-1.49-0.39-1.5-1.39c-1.35-5.63-10.03-3.25-8.68,2.39c1.18,4.9,5.2,7.91,10.18,8c0-3,0-6,0-9
			c-3.26,0.2-6.09,1.69-7.22,4.91c-0.71,2.01-0.17,2.89-1.7,4.42c-1.53,1.53-3.83,2.7-4.68,4.43c-0.97,1.99,1-0.63,1.23-0.91
			c0.58-0.7,1.22-1.35,1.81-2.05c1.33-1.58,2.48-3.19,3.31-5.09c1.69-3.88,1.8-7.96,0.83-12.03
			C42.8,275.36,34.12,277.75,35.45,283.39L35.45,283.39z"/>
	</g>
</g>
<g>
	<g>
		<path class="st2" d="M37.42,290.49c-1.3,1.79-2.23,3.73-3.06,5.78c-0.41,1.01-0.07,2.57,0.45,3.47c0.55,0.93,1.62,1.82,2.69,2.07
			c1.15,0.26,2.44,0.21,3.47-0.45c1.05-0.68,1.6-1.54,2.07-2.69c-0.46,1.13,0.13-0.25,0.23-0.46c0.17-0.35,0.36-0.7,0.55-1.04
			c0.42-0.73,0.88-1.44,1.37-2.12c1.39-1.91,0.39-5.1-1.61-6.16C41.25,287.64,38.9,288.45,37.42,290.49L37.42,290.49z"/>
	</g>
</g>
<g>
	<g>
		<path class="st3" d="M198.47,57.52c11.48,1.57,22.98,3.01,34.5,4.26c9.78,1.06,19.75,1.98,28.58-3.21
			c4.23-2.48,1.39-10.21-3.47-8.22c-6.69,2.74-11.92,7.59-14.43,14.49c-0.61,1.69-1,3.39-1.21,5.17c-0.14,0.91-0.2,1.82-0.19,2.74
			c1.02-0.93,0.93-1.03-0.28-0.27c-3.25,1.07-5.45,4.29-5.05,7.62c1.5-1.5,3-3,4.5-4.5c-2.88-0.13-5.81,0.17-8.1,2.07
			c-0.57,0.47-3.01,2.68-1.52,2.2c1.7-0.55-2.66-0.9-3.07-0.88c-5.2,0.26-9.24,7.05-4.42,10.8c1.78,1.38,4.66,2.05,6.36,0
			c0.06-0.08,0.13-0.16,0.19-0.23c1.45-1.75,1.99-4.68,0-6.36c-2.61-2.21-4.49-0.98-7.42-1.76c-4.59-1.22-6.17-7.04-7.42-10.94
			c-2.2-6.89-4.72-13.52-11.37-17.21c-5.12-2.84-9.3,4.54-4.54,7.77c2.55,1.74,3.44,5.59,5.43,7.91c2.26,2.65,5.42,4.26,8.97,3.62
			c8.66-1.54,9.27-12.18,2.63-16.56c-1.16,2.74-2.31,5.48-3.47,8.22c9.5,2.24,19.15,3.11,28.9,2.5c-1.45-1.9-2.89-3.8-4.34-5.7
			c-3.04,7.25-10.27,11.93-18.02,12.25c1.45,1.9,2.89,3.8,4.34,5.7c0.59-2.88,5.19-4.58,6.76-7.1c1.25-2.01,1.7-4.22,1.15-6.55
			c-1.21-5.16-6.69-6.93-11.08-4.34c-4.21,2.48-6.41,8.16-2.91,12.19c1.63,1.87,3.8,2.2,6.12,2.14c3.24-0.09,7.78-0.53,10.85-1.59
			c4.84-1.66,6.93-6.85,3.89-11.21c-3.15-4.51-8.88-4.42-13.19-1.66c-3.81,2.44-8.35,7.12-5.05,11.8c3.66,5.18,12.81,4.19,18.15,3.3
			c5.7-0.95,3.28-9.62-2.39-8.68c-2.01,0.33-4.11,0.46-6.14,0.23c-0.81-0.15-1.62-0.3-2.44-0.45c0.3,0.93,0.6,1.87,0.9,2.8
			c1.2-0.66,2-1.64,2.41-2.94c1.54-1.82,1.19-2.28-1.08-1.4c-0.97-0.18-4.28,0.17-4.93,0.65c-1.28-0.14-1.38,0.31-0.32,1.35
			c1.46,1.91,0.53,2.15-2.81,0.73c-0.92,0.27-2.05,1.44-2.75,2.05c-2.03,1.76-3.28,3.62-3.82,6.27c-0.56,2.73,1.24,5.83,4.34,5.7
			c12.13-0.51,22.04-7.75,26.7-18.86c1.11-2.64-1.68-5.86-4.34-5.7c-8.98,0.56-17.75-0.12-26.51-2.18
			c-5.03-1.18-7.74,5.41-3.47,8.22c-0.35-0.23-2.12-3.9-2.78-4.97c-1.38-2.25-2.96-4.06-5.15-5.55c-1.51,2.59-3.03,5.18-4.54,7.77
			c7.15,3.97,7.01,14.27,10.83,20.73c1.71,2.89,4.04,5.35,6.98,6.99c1.42,0.79,2.95,1.35,4.55,1.64c0.88,0.16,1.76,0.23,2.65,0.21
			c1.83-0.02,1.62-0.37-0.63-1.07c0-2.12,0-4.24,0-6.36c-0.06,0.08-0.13,0.16-0.19,0.23c2.12,0,4.24,0,6.36,0
			c-2.09,3.13-2.13,4.73-0.11,4.82c0.6,0.09,1.2,0.17,1.81,0.25c1.21,0.02,2.38-0.22,3.47-0.71c2.55-1.15,2.54-3.31,5.58-3.17
			c2.22,0.1,4.78-2.15,4.5-4.5c-0.6,0.64-0.57,0.77,0.09,0.37c0.5-0.22,1-0.45,1.48-0.71c0.77-0.47,1.52-1.1,2.09-1.79
			c1.69-2.02,1.41-4.14,1.71-6.59c0.65-5.37,4.12-10.27,9.18-12.34c-1.16-2.74-2.31-5.48-3.47-8.22c-7.8,4.57-17.42,2.71-25.95,1.77
			c-10.08-1.11-20.15-2.35-30.2-3.73C195.2,48.07,192.75,56.74,198.47,57.52L198.47,57.52z"/>
	</g>
</g>
<g>
	<g>
		<path class="st3" d="M214.65,71.53c1.18,2.83,2.63,5.29,4.71,7.58c1.59,1.75,4.77,1.73,6.36,0c1.71-1.87,1.69-4.5,0-6.36
			c-0.13-0.14-1.14-1.36-0.48-0.51c-0.3-0.39-0.58-0.8-0.84-1.22c-0.26-0.42-0.51-0.84-0.74-1.28c-0.09-0.18-0.75-1.63-0.33-0.6
			c-0.47-1.13-0.97-2.04-2.07-2.69c-0.96-0.56-2.39-0.8-3.47-0.45C215.71,66.67,213.68,69.2,214.65,71.53L214.65,71.53z"/>
	</g>
</g>
<g>
	<g>
		<path class="st3" d="M329.86,112.47c-5.94-2.05-18.12-9.02-23.35-2.63c-4.83,5.91,0.79,13.85,5.77,17.33
			c1.16-2.74,2.31-5.48,3.47-8.22c-1.4-0.46-9.78-4.66-7.36-7.54c0.99-1.18,7.89,3.43,9,4.16c0.76-2.8,1.51-5.59,2.27-8.39
			c-1.53,0.17-10.56-1.13-11.06-2.93c-1.54-5.58-10.22-3.21-8.68,2.39c1.06,3.83,3.7,5.83,7.41,6.98c3.99,1.24,8.09,3.02,12.32,2.56
			c4.36-0.48,6.22-5.8,2.27-8.39c-6.19-4.05-19.36-10.58-22.17,0.55c-2.42,9.59,5.15,16.48,13.59,19.28
			c5.11,1.7,7.42-5.46,3.47-8.22c-1.45-1.01-1.99-2.16-2.88-3.56c-1.5,0.38-1.36,0.65,0.42,0.81c0.76,0.25,1.51,0.5,2.26,0.76
			c3.62,1.23,7.23,2.49,10.84,3.73C332.95,123.04,335.31,114.35,329.86,112.47L329.86,112.47z"/>
	</g>
</g>
<g>
	<g>
		<path class="st3" d="M100,115.01c-0.89-0.08-1.77-0.03-2.64,0.15c-1.78,0-1.98,0.68-0.6,2.04c-1.45,1.9-2.89,3.8-4.34,5.7
			c-0.06,0.01-0.11,0.01-0.17,0.02c0.36-2.74,0.72-5.48,1.07-8.22c-1.6,0.58-3.19,1.16-4.79,1.74c-0.58,0.21-3.84,0.95-2.79,1.2
			c0.9,0.69,1.79,1.38,2.69,2.07c-0.08-0.2-0.17-0.39-0.25-0.59c0.15,1.16,0.3,2.31,0.45,3.47c0.08-0.2,0.15-0.4,0.23-0.6
			c-1.05,1.05-2.1,2.1-3.14,3.14c0.17-0.03,0.35-0.07,0.52-0.1c-1.69-2.2-3.39-4.41-5.08-6.61c-4.03,6.99-9.94,11.34-8.01,20.09
			c1.37,6.24,6.15,12.48,13.05,9.32c4.69-2.15,1.35-9.61-3.47-8.22c-0.63,0.18-1.26,0.36-1.89,0.54c1.9,1.45,3.8,2.89,5.7,4.34
			c-0.1-2.08-1.17-9.03,0.16-10.64c-1.06,0.44-2.12,0.88-3.18,1.32c0.32-0.01,0.64-0.01,0.97-0.02c-1.3-0.74-2.59-1.49-3.89-2.23
			c1.24,1.71,0.14,8.03,0.05,10.03c-0.19,4.39,6.35,6.22,8.39,2.27c1.28-2.5,1.82-4.96,1.9-7.77c0.07-2.62-0.78-5.65,1.48-7.51
			c-2.51-0.66-5.01-1.32-7.52-1.99c0.74,5.14,1.97,10.1,3.73,14.98c1.53,4.25,7.15,4.27,8.68,0c1.14-3.18,2.06-6.41,2.63-9.75
			c0.44-2.6,0.03-6.53,1.54-8.71c-2.74-0.36-5.48-0.72-8.22-1.07c0.8,5.52,1.6,11.04,2.4,16.56c0.33,2.27,3.47,3.91,5.54,3.14
			c6.46-2.4,6.49-10.16,7.75-16.03c-2.89,0-5.79,0-8.68,0c1.12,3.82,1.45,7.43,1.14,11.4c-0.46,5.8,8.46,5.7,9,0
			c0.7-7.39-0.22-32.38-14.04-25.19c-4.98,2.59-5.83,8.53-4.9,13.55c0.58,3.14,1.99,6.05,2.62,9.17c0.9,4.48-0.88,7.07-3.68,10.38
			c-3.38,3.99,0.77,9.2,5.45,7.07c4.08-1.86,8.28-2.93,12.71-3.53c5.71-0.78,3.28-9.45-2.39-8.68c-5.23,0.72-10.06,2.26-14.86,4.44
			c1.82,2.36,3.64,4.71,5.45,7.07c5.66-6.67,7.96-12.77,5.35-21.42c-0.63-2.08-1.46-4.15-1.82-6.3c-0.32-1.93-0.93-5.57,0.14-1.71
			c1.36,4.95,1.46,10.08,0.98,15.15c3,0,6,0,9,0c0.38-4.72-0.13-9.25-1.46-13.79c-1.19-4.07-7.72-4.5-8.68,0
			c-0.24,1.11-1.84,9.88-1.47,9.75c1.85,1.05,3.69,2.1,5.54,3.14c-0.8-5.52-1.6-11.04-2.4-16.56c-0.61-4.21-6.28-3.87-8.22-1.07
			c-1.87,2.69-1.82,5.59-2.16,8.72c-0.45,4.08-1.53,8.03-2.92,11.89c2.89,0,5.79,0,8.68,0c-1.76-4.88-3-9.84-3.73-14.98
			c-0.53-3.71-5.25-3.84-7.52-1.99c-2.27,1.86-3.43,4.36-3.91,7.21c-0.55,3.18,0.62,6.98-0.88,9.88c2.8,0.76,5.59,1.51,8.39,2.27
			c0.21-4.78,2.11-16.81-5.65-16.79c-8.17,0.02-6.71,13.26-6.46,18.33c0.14,2.87,2.77,5.18,5.7,4.34c0.63-0.18,1.26-0.36,1.89-0.54
			c-1.16-2.74-2.31-5.48-3.47-8.22c1.5,0.07,1.84-0.39,1.01-1.39c-0.42-0.8-0.7-1.65-0.84-2.55c-0.42-2.44,0.43-3.36,1.74-5.21
			c1.87-2.64,3.75-5.13,5.37-7.94c2.08-3.61-1.34-7.31-5.08-6.61c-3.95,0.74-5.35,6.04-2.49,8.81c3.8,3.68,10.44-0.36,14.35-1.78
			c3.76-1.37,4.33-5.95,1.07-8.22c-1.47-1.03-2.59-1.29-4.37-1.25c-3.06,0.07-4.94,2.81-4.34,5.7c0.48,2.31,1.93,3.93,4.13,4.79
			c2.9,1.13,4.94-0.4,7.79-0.37C105.8,124.06,105.8,115.06,100,115.01L100,115.01z"/>
	</g>
</g>
<g>
	<g>
		<path class="st3" d="M67.99,246.85c-8.73,8.08-26.11,18.05-24.72,32.08c0.53,5.35,5.01,9.54,10.25,10.25
			c6.34,0.86,11.35-4.15,15.72-8.06c8-7.14,17.1-21.63,7.12-31.21c-4.69-4.49-9.91-1.46-13.18,2.95c-4.37,5.9-6.42,13.01-6.31,20.32
			c0.04,2.56,2.04,4.33,4.5,4.5c7.49,0.53,11.69-11.11,13.87-16.67c-2.95-0.4-5.89-0.8-8.84-1.2c-0.27,7.8-6.97,12.67-12.75,16.84
			c2.26,1.3,4.51,2.59,6.77,3.89c-0.28-2.12-1.53-7.37,1.41-8.34c5.65-1.87,3.21-9.45-2.39-8.68c-6.06,0.83-13.37,2.45-16.68,8.26
			c-3.16,5.55,0.27,11.52,6.4,12.07c5.77,0.52,5.73-8.48,0-9c0.46,0.49,0.91,0.98,1.37,1.47c0.29-0.33,0.59-0.66,0.88-1
			c1.29-0.42,2.45-1.43,3.82-1.86c2.14-0.67,4.39-0.96,6.6-1.26c-0.8-2.89-1.6-5.79-2.39-8.68c-7.66,2.53-8.96,9.81-8.01,17.02
			c0.39,2.98,3.66,6.13,6.77,3.89c8.61-6.21,16.81-13.2,17.21-24.61c0.19-5.42-7.1-5.64-8.84-1.2c-0.32,0.81-4.34,10.13-5.19,10.07
			c1.5,1.5,3,3,4.5,4.5c-0.06-4.09,0.62-8.04,2.5-11.71c0.8-1.57,2.13-2.87,2.9-4.41c-1.57-1.2-1.69-1.06-0.35,0.42
			c0.44,0.93,0.65,1.92,0.66,2.95c0.32,6.86-6.29,12.38-11.05,16.33c-2.31,1.92-7.09,6.09-8.1,0.98c-0.68-3.42,3.29-7.67,5.48-10.04
			c4.96-5.38,11.1-9.54,16.46-14.5C78.61,249.27,72.24,242.92,67.99,246.85L67.99,246.85z"/>
	</g>
</g>
<g>
	<g>
		<path class="st3" d="M197.94,256.8c-0.34,6.04-1.52,11.79-3.45,17.52c2.95,0.4,5.89,0.8,8.84,1.2c0.38-4.6,1.64-14.76,6.26-16.96
			c2.06-0.98,5.15-0.62,7.39-0.92c2.7-0.37,5.07-1.08,7.33-2.65c-2.2-0.9-4.41-1.79-6.61-2.69c0.51,3.17-3.81,7.53-5.04,10.41
			c-1.39,3.28-1.93,6.78-2.6,10.26c-1.68,8.74-3.36,17.48-5.03,26.23c1.45-1.1,2.89-2.2,4.34-3.3c-2.03-0.14-4.06-0.29-6.09-0.43
			c-0.87-0.06-1.74-0.12-2.61-0.19c-2.02-0.44-2.28-0.26-0.8,0.54c1.15,1.2,1.47,0.78,0.95-1.26c0-1.28,0-2.57,0.01-3.85
			c0-1.92,0.01-3.85,0.01-5.77c0.01-3.5-0.51-7.43,0.3-10.85c0.86-3.64,3.55-5.98,6.34-8.26c-2.51-0.66-5.01-1.32-7.52-1.99
			c1.49,6.13-0.02,12.76-0.74,18.93c-0.53,4.57-1.82,9.58,1.99,13.06c3.03,2.77,7.33,0.69,7.68-3.18
			c0.75-8.14,2.46-16.15,5.15-23.87c1.72-4.93,6.99-12.32,0.78-16.09c-4.97-3.01-9.49,4.77-4.54,7.77c0.23,0.14,0.46,0.28,0.7,0.42
			c-0.69-0.9-1.38-1.79-2.07-2.69c0.14,1.01-2.4,5.06-2.92,6.47c-1.16,3.16-2.17,6.37-3.01,9.63c-1.56,6.03-2.51,12.17-3.08,18.36
			c2.56-1.06,5.12-2.12,7.68-3.18c-1.11-1.01,1.19-11.35,1.39-13.04c0.59-5.11,0.91-9.94-0.32-14.98c-0.87-3.57-5.04-4.01-7.52-1.99
			c-3.77,3.08-7.09,6.69-8.45,11.47c-1.59,5.62-0.83,12.08-0.84,17.84c-0.01,3.98-1.28,10.48,2.14,13.56
			c3.5,3.16,11.07,2.24,15.4,2.55c1.82,0.13,3.99-1.48,4.34-3.3c1.92-9.98,3.73-19.98,5.75-29.94c1.58-7.8,8.27-13.46,6.92-21.75
			c-0.45-2.76-4.39-4.23-6.61-2.69c-5.52,3.82-13.37,0.44-18.24,6.14c-4.91,5.75-6.62,14.91-7.21,22.16
			c-0.43,5.29,7.3,5.77,8.84,1.2c2.18-6.47,3.39-13.1,3.77-19.91C207.27,251.01,198.27,251.03,197.94,256.8L197.94,256.8z"/>
	</g>
</g>
<g>
	<g>
		<path class="st3" d="M208.16,254.76c-5.41,0.74-5.9,8.9-5.62,13.03c0.17,2.43,1.95,4.5,4.5,4.5c2.31,0,4.67-2.06,4.5-4.5
			c-0.09-1.26-0.14-2.57,0.06-3.82c0.07-0.43,0.23-0.88,0.3-1.31c0.06-0.21,0.11-0.41,0.17-0.62c-0.27,0.65-0.78,1.12-1.53,1.4
			c2.41-0.33,3.73-3.41,3.14-5.54C212.98,255.31,210.57,254.43,208.16,254.76L208.16,254.76z"/>
	</g>
</g>
<g>
	<g>
		<path d="M256.79,49.84c0.01,3.19-0.97,6.3-2.86,8.88c-1.76,2.41-4.36,3.77-6.47,5.8c-2.19,2.1-2.89,4.51-2.31,7.47
			c0.22,1.11,0.86,2.56,0.5,3.7c-0.36,1.16-2.02,1.25-3.01,1.5c-1.05,0.27-2.11,0.65-2.89,1.44c-0.46,0.47-0.78,1.08-0.97,1.71
			c-0.14,0.44-0.13,1.83-0.5,2.11c-0.61,0.46-2.22-0.22-2.96-0.19c-1.42,0.06-2.49,0.9-2.99,2.2c-0.15,0.38-0.22,1.46-0.54,1.71
			c-0.33,0.25-1.19-0.16-1.55-0.25c-1.45-0.35-2.79-0.35-4.02,0.57c-1.09,0.83-1.7,2.19-2.9,2.87c-1.15,0.65-2.56,0.61-3.81,0.36
			c-3.19-0.65-6.26-2.47-8.85-4.38c-2.46-1.81-4.76-4.27-4.75-7.51c0.01-1.93-2.99-1.93-3,0c-0.04,6.51,6.44,10.91,11.73,13.35
			c2.75,1.27,6.09,2.35,9.08,1.26c1.59-0.57,2.54-1.63,3.61-2.87c0.42-0.49,0.78-0.94,1.46-0.9c0.81,0.04,1.59,0.44,2.41,0.52
			c1.58,0.16,2.88-0.66,3.46-2.14c0.15-0.39,0.24-1.51,0.58-1.75c0.32-0.22,1.13,0.06,1.49,0.11c1.45,0.22,2.87,0.14,3.85-1.08
			c0.48-0.59,0.69-1.3,0.83-2.03c0.12-0.61,0.15-1.31,0.67-1.72c0.9-0.7,2.44-0.68,3.49-1.08c1.35-0.51,2.47-1.45,2.91-2.86
			c0.93-2.93-1.76-6.13,0.05-8.82c0.89-1.32,2.3-2.26,3.55-3.21c1.47-1.12,2.82-2.28,3.96-3.75c2.44-3.15,3.75-7.03,3.74-11.02
			C259.78,47.91,256.78,47.91,256.79,49.84L256.79,49.84z"/>
	</g>
</g>
<g>
	<g>
		<path d="M189.41,46.52c-4.61-2.65-3.98-9.33-3.01-13.73c1.29-5.89,3.95-11.52,7.75-16.21c3.66-4.52,8.99-9.86,15.25-9.58
			c3.24,0.14,6.34,1.35,9.59,1.45c2.6,0.08,6.31-0.52,7.81-2.96c1.71-2.77-1.33-4.98-3.84-5.21c-3.23-0.29-6.67,1.82-8.81,4.07
			c-1.33,1.4,0.79,3.52,2.12,2.12c1.59-1.68,4.72-3.92,7.2-3.05c1.1,0.38,0.88,0.59-0.08,1.15c-1.27,0.74-2.76,0.91-4.21,0.89
			c-3.16-0.06-6.18-1.19-9.33-1.43c-3.17-0.23-6.19,0.69-8.88,2.33c-9.64,5.88-16.29,17.14-17.94,28.18
			c-0.78,5.21-0.19,11.67,4.86,14.57C189.57,50.07,191.09,47.48,189.41,46.52L189.41,46.52z"/>
	</g>
</g>
<g>
	<g>
		<path d="M227.69,4.51c3.16-1.87,6.99-0.24,9.89,1.39c3.61,2.03,7.04,4.45,10.27,7.03c2.74,2.18,6.21,4.65,7.1,8.23
			c0.47,1.87,0.58,3.72,1.74,5.33c1,1.4,2.37,2.43,3.78,3.38c4.14,2.81,8.33,5.54,12.49,8.32c-0.1-0.79-0.2-1.57-0.3-2.36
			c-10.69,12.13-27.88,17.87-43.7,14.42c-1.88-0.41-2.69,2.48-0.8,2.89c13.08,2.86,27.19-0.04,38.18-7.69
			c3.1-2.16,5.94-4.66,8.44-7.5c0.66-0.75,0.53-1.8-0.3-2.36c-3.86-2.57-7.73-5.14-11.59-7.71c-1.57-1.04-3.42-2.13-4.21-3.93
			c-0.79-1.81-0.72-3.85-1.6-5.67c-1.69-3.5-5.21-6.03-8.2-8.35c-3.36-2.6-6.9-5.17-10.69-7.12c-3.71-1.91-8.18-3.17-12.02-0.91
			C224.52,2.9,226.03,5.5,227.69,4.51L227.69,4.51z"/>
	</g>
</g>
<g>
	<g>
		<path d="M255.68,30.45c-3.89,3.03-7.82,6-11.79,8.91c-3.82,2.8-7.62,5.73-11.66,8.19c-3.99,2.43-8.21,3.4-12.87,2.92
			c-2.37-0.24-4.71-0.83-6.98-1.56c-2.1-0.67-4.23-1.7-6.48-1.59c-1.27,0.06-2.35,0.6-3.57,0.85c-1.35,0.28-2.77-0.22-4.07-0.51
			c-2.71-0.62-5.41-1.24-8.12-1.86c-1.88-0.43-2.68,2.46-0.8,2.89c2.47,0.57,4.95,1.13,7.42,1.7c2.45,0.56,4.73,1.21,7.2,0.43
			c1.22-0.38,2.24-0.63,3.52-0.34c1.18,0.26,2.31,0.74,3.45,1.12c2.32,0.78,4.7,1.38,7.13,1.72c4.77,0.66,9.47,0.12,13.78-2.1
			c4.34-2.23,8.27-5.41,12.21-8.27c4.64-3.38,9.23-6.84,13.76-10.37C259.32,31.38,257.19,29.27,255.68,30.45L255.68,30.45z"/>
	</g>
</g>
<g>
	<g>
		<path d="M189.45,47.58c0.07,2.33,0.14,4.65,0.22,6.98c0.02,0.78,0.67,1.54,1.5,1.5c0.79-0.04,1.53-0.66,1.5-1.5
			c-0.07-2.33-0.14-4.65-0.22-6.98c-0.02-0.78-0.67-1.54-1.5-1.5C190.16,46.11,189.42,46.73,189.45,47.58L189.45,47.58z"/>
	</g>
</g>
<g>
	<g>
		<path d="M183.3,52.21c6.53,1.66,9.5,8.93,12.89,14.05c2.09,3.16,4.62,6.24,5.77,9.9c1.35,4.3,0.04,8.71-0.25,13.06
			c-0.32,4.8,0.69,9.55,2.74,13.88c0.83,1.74,3.41,0.22,2.59-1.51c-1.94-4.08-2.68-8.57-2.28-13.07c0.4-4.48,1.47-8.93,0.02-13.35
			c-1.24-3.8-3.71-6.97-5.9-10.26c-1.96-2.95-3.63-6.09-5.77-8.91c-2.33-3.08-5.19-5.71-9.02-6.69
			C182.23,48.85,181.43,51.74,183.3,52.21L183.3,52.21z"/>
	</g>
</g>
<g>
	<g>
		<path d="M182.92,49.29c-2.14-0.11-3.75,1.46-4.93,3.04c-0.24,0.32-0.46,0.66-0.7,0.98c-0.06,0.09-0.13,0.18-0.19,0.27
			c-0.03,0.04-0.22,0.29-0.08,0.11c0.14-0.18-0.09,0.12-0.12,0.15c-0.06,0.07-0.12,0.14-0.18,0.21c-0.14,0.16-0.29,0.32-0.45,0.47
			c-0.06,0.06-0.13,0.12-0.2,0.18c-0.18,0.15-0.05,0.11,0.02-0.01c-0.07,0.13-0.4,0.25-0.53,0.33c-0.26,0.14,0.28-0.08-0.03,0.01
			c-0.1,0.03-0.2,0.07-0.3,0.09c-0.76,0.2-1.3,1.08-1.05,1.85c0.25,0.78,1.03,1.27,1.85,1.05c1.87-0.5,3.05-2.03,4.11-3.55
			c0.1-0.15,0.21-0.3,0.31-0.44c0.06-0.09,0.12-0.19,0.2-0.27c-0.25,0.28,0.01,0,0.05-0.05c0.26-0.32,0.55-0.62,0.86-0.9
			c0.03-0.03,0.29-0.22,0.11-0.09c-0.18,0.13,0.08-0.05,0.11-0.07c0.17-0.11,0.34-0.2,0.51-0.29c0.16-0.08-0.28,0.08-0.02,0.02
			c0.1-0.02,0.2-0.05,0.3-0.08c0.32-0.09-0.31-0.01,0.02,0c0.11,0,0.22,0,0.32,0c0.78,0.04,1.54-0.72,1.5-1.5
			C184.38,49.94,183.76,49.33,182.92,49.29L182.92,49.29z"/>
	</g>
</g>
<g>
	<g>
		<path d="M176.3,57.76c6.36,2.48,9.33,9.61,11.47,15.57c2.78,7.76,5.3,15.61,8.73,23.12c1.98,4.35,4.27,8.55,6.99,12.48
			c1.09,1.58,3.69,0.08,2.59-1.51c-4.98-7.19-8.41-15.24-11.39-23.42c-1.47-4.03-2.8-8.11-4.27-12.14c-1.22-3.32-2.6-6.65-4.57-9.61
			c-2.19-3.3-5.04-5.93-8.76-7.38C175.3,54.17,174.52,57.07,176.3,57.76L176.3,57.76z"/>
	</g>
</g>
<g>
	<g>
		<path d="M205.18,101.92c0.07,0.24,0.13,0.48,0.18,0.73c0.02,0.11,0.04,0.22,0.06,0.33c-0.05-0.34,0,0.1,0.01,0.14
			c0.04,0.5,0.02,0.99-0.03,1.48c0.02-0.22,0.01-0.06-0.01,0.07c-0.02,0.11-0.04,0.22-0.06,0.33c-0.05,0.24-0.11,0.48-0.19,0.72
			c-0.07,0.24-0.16,0.47-0.25,0.71c0.08-0.2,0.01-0.02-0.04,0.08c-0.06,0.12-0.12,0.25-0.18,0.37c-0.22,0.42-0.47,0.83-0.76,1.21
			c0.18-0.24-0.09,0.1-0.1,0.12c-0.07,0.09-0.15,0.17-0.22,0.25c-0.17,0.18-0.34,0.36-0.53,0.53c-0.08,0.08-0.17,0.15-0.25,0.22
			c-0.08,0.07-0.24,0.19-0.07,0.06c-0.22,0.16-0.44,0.31-0.67,0.45c-0.19,0.12-0.39,0.22-0.6,0.32c-0.03,0.01-0.43,0.17-0.14,0.06
			c-0.13,0.05-0.26,0.09-0.38,0.14c-0.77,0.26-1.27,1.03-1.05,1.85c0.21,0.75,1.07,1.31,1.85,1.05c4.81-1.62,7.79-7.11,6.34-12.02
			c-0.23-0.78-1.05-1.27-1.85-1.05C205.45,100.29,204.94,101.15,205.18,101.92L205.18,101.92z"/>
	</g>
</g>
<g>
	<g>
		<path d="M65.35,242.81c-4.38,3.29-8.37,7.12-12.27,10.95c-3.97,3.89-8,7.88-11.31,12.36c-2.7,3.66-5.23,7.55-6.77,11.85
			c-0.65,1.82,2.24,2.6,2.89,0.8c2.11-5.88,6.18-11.14,10.36-15.72c4.01-4.4,8.28-8.59,12.69-12.6c1.91-1.74,3.85-3.49,5.92-5.05
			C68.39,244.26,66.9,241.65,65.35,242.81L65.35,242.81z"/>
	</g>
</g>
<g>
	<g>
		<path d="M75.16,266.53c-2.06,4.89-6.74,8.08-10.86,11.1c-4.96,3.65-9.62,7.65-13.86,12.11c-1.33,1.4,0.79,3.52,2.12,2.12
			c4.44-4.67,9.33-8.75,14.51-12.57c4.45-3.28,8.78-6.75,10.98-11.98c0.32-0.75-0.34-1.64-1.05-1.85
			C76.14,265.23,75.47,265.78,75.16,266.53L75.16,266.53z"/>
	</g>
</g>
<g>
	<g>
		<path d="M33.5,277.05c2.14,3.01,4.52,5.83,7.19,8.38c1.34,1.28,2.74,2.49,4.19,3.63c0.77,0.61,1.56,1.2,2.36,1.76
			c0.63,0.45,1.61,0.86,2.05,1.49c0.07,0.15,0.14,0.16,0.21,0.03c-0.12,0.14-0.25,0.27-0.39,0.39c-0.33,0.32-0.68,0.62-1.01,0.94
			c-0.73,0.68-1.44,1.37-2.16,2.07c-1.42,1.39-2.81,2.82-4.17,4.27c-2.77,2.97-5.39,6.07-7.87,9.28c-0.5,0.65-0.62,1.49,0,2.12
			c0.51,0.52,1.63,0.64,2.12,0c2.72-3.51,5.6-6.89,8.65-10.12c1.47-1.56,2.99-3.07,4.54-4.56c1.24-1.19,3.29-2.46,3.23-4.39
			c-0.05-1.91-1.98-2.93-3.35-3.88c-1.65-1.15-3.22-2.39-4.72-3.73c-3.1-2.75-5.89-5.84-8.29-9.21
			C34.99,273.98,32.38,275.48,33.5,277.05L33.5,277.05z"/>
	</g>
</g>
<g>
	<g>
		<path d="M34.51,309.32c-4.63-1.68-10.39-3.83-11.85-9.11c-0.51-1.86-3.41-1.07-2.89,0.8c1.78,6.42,8.26,9.14,13.95,11.21
			c0.76,0.28,1.64-0.31,1.85-1.05C35.79,310.33,35.27,309.6,34.51,309.32L34.51,309.32z"/>
	</g>
</g>
<g>
	<g>
		<path d="M33.72,274.67c-3.34,3.32-3.97,8.03-5.39,12.32c-0.85,2.57-1.98,5.02-3.15,7.46c-0.95,1.99-1.83,4.29-3.95,5.27
			c-1.75,0.81-0.23,3.4,1.51,2.59c2.06-0.95,3.33-2.88,4.31-4.85c1.22-2.45,2.38-4.96,3.39-7.51c1.68-4.28,2-9.77,5.4-13.15
			C37.22,275.43,35.1,273.31,33.72,274.67L33.72,274.67z"/>
	</g>
</g>
<g>
	<g>
		<path d="M21.36,299.6c-3.93,1.15-7.45,3-10.67,5.53c-3.31,2.6-6.7,5.62-8.4,9.55c-0.81,1.88-1.19,3.91-0.81,5.94
			c0.42,2.25,1.88,4.02,3.41,5.65c3.51,3.73,7.1,7.39,10.74,11c3.65,3.61,7.35,7.17,11.12,10.66c1.85,1.72,3.72,3.42,5.6,5.11
			c1.78,1.6,3.54,3.32,5.58,4.59c1.74,1.08,3.84,1.87,5.91,1.46c2.02-0.4,3.54-1.88,4.27-3.76c1.73-4.46-1.36-8.81-3.17-12.7
			c-4.69-10.06-7.34-21.06-7.86-32.14c-0.09-1.92-3.09-1.93-3,0c0.41,8.84,2.1,17.61,5.09,25.94c1.48,4.13,3.38,8.02,5.27,11.97
			c0.83,1.73,1.56,3.72,0.95,5.64c-0.57,1.81-2.17,2.49-3.94,1.96c-1.95-0.58-3.55-2.02-5.04-3.34c-1.77-1.57-3.53-3.16-5.28-4.76
			c-3.38-3.09-6.71-6.23-10-9.43c-3.29-3.19-6.53-6.43-9.72-9.71c-1.58-1.62-3.16-3.25-4.69-4.91c-1.35-1.46-2.47-3.02-2.4-5.1
			c0.14-4.38,4.12-7.82,7.2-10.44c3.16-2.68,6.67-4.65,10.64-5.82C24.01,301.95,23.22,299.05,21.36,299.6L21.36,299.6z"/>
	</g>
</g>
<g>
	<g>
		<path d="M191.93,253.42c-1.76,6.85-3.62,13.69-4.84,20.66c-0.54,3.09-1.07,6.3-0.91,9.45c0.16,3.08,0.35,6.15,0.59,9.22
			c0.28,3.59,0.43,7.48,1.61,10.91c0.63,1.81,3.53,1.03,2.89-0.8c-0.98-2.83-1.16-5.98-1.41-8.94c-0.27-3.19-0.43-6.4-0.64-9.6
			c-0.43-6.58,1.39-13.32,2.92-19.66c0.84-3.5,1.77-6.97,2.66-10.46C195.3,252.35,192.41,251.55,191.93,253.42L191.93,253.42z"/>
	</g>
</g>
<g>
	<g>
		<path d="M219.3,246.38c1.55,3.26,0.36,7.63-0.55,10.9c-1.17,4.24-2.83,8.32-4.41,12.41c-2.65,6.88-3.65,14.25-4.81,21.5
			c-0.65,4.08-1.34,8.19-1.68,12.31c-0.16,1.92,2.84,1.91,3,0c0.65-7.96,2.19-15.95,3.74-23.78c0.61-3.1,1.41-6.02,2.55-8.98
			c1.59-4.13,3.27-8.24,4.47-12.51c1.18-4.22,2.25-9.21,0.29-13.37C221.06,243.12,218.47,244.64,219.3,246.38L219.3,246.38z"/>
	</g>
</g>
<g>
	<g>
		<path d="M186.84,304.14c3.65,1.02,7.39,1.69,11.16,2c1.9,0.15,3.81,0.21,5.71,0.16c0.95-0.02,1.9-0.07,2.85-0.14
			c0.36-0.03,1.86-0.35,2.19-0.06c0.12,0.11-0.28,1.99-0.32,2.31c-0.13,0.96-0.25,1.91-0.36,2.87c-0.22,1.94-0.4,3.89-0.54,5.85
			c-0.28,3.99-0.37,7.98-0.28,11.98c0.04,1.93,3.04,1.93,3,0c-0.09-4.4,0.03-8.81,0.37-13.2c0.17-2.11,0.38-4.22,0.66-6.33
			c0.22-1.71,1.09-4.13-0.3-5.55c-1.17-1.2-2.9-0.99-4.41-0.87c-2.06,0.16-4.13,0.2-6.19,0.12c-4.32-0.16-8.58-0.86-12.75-2.03
			C185.77,300.72,184.98,303.62,186.84,304.14L186.84,304.14z"/>
	</g>
</g>
<g>
	<g>
		<path d="M207.95,328.51c-4.83,1.65-10.65,3.62-15.27,0.34c-0.66-0.47-1.67-0.12-2.05,0.54c-0.44,0.75-0.12,1.58,0.54,2.05
			c5.3,3.76,11.99,1.87,17.58-0.04C210.56,330.78,209.78,327.88,207.95,328.51L207.95,328.51z"/>
	</g>
</g>
<g>
	<g>
		<path d="M185.37,302.26c-0.51,4.78,2.18,8.93,3.72,13.26c0.82,2.31,1.43,4.68,2,7.06c0.49,2.06,1.4,4.59,0.41,6.63
			c-0.84,1.73,1.74,3.25,2.59,1.51c1.07-2.19,0.9-4.46,0.4-6.79c-0.54-2.51-1.17-5.02-1.93-7.47c-1.43-4.6-4.72-9.22-4.19-14.2
			C188.58,300.35,185.57,300.36,185.37,302.26L185.37,302.26z"/>
	</g>
</g>
<g>
	<g>
		<path d="M191.33,329.39c-2.55,3.68-4.17,7.75-5.02,12.13c-0.76,3.94-1.4,8.19-0.09,12.09c0.59,1.77,1.56,3.41,3.03,4.59
			c1.82,1.47,4.04,1.89,6.3,2.19c5.4,0.73,10.81,1.37,16.23,1.91c5.53,0.55,11.07,1.01,16.62,1.36c2.69,0.17,5.39,0.32,8.08,0.45
			c1.98,0.09,3.99,0.11,5.91-0.39c3.99-1.04,6.31-4.77,4.48-8.71c-1.99-4.29-7.36-5.63-11.23-7.61
			c-9.58-4.9-18.15-11.59-25.28-19.64c-1.28-1.45-3.4,0.68-2.12,2.12c5.7,6.43,12.33,12.03,19.63,16.56
			c3.67,2.28,7.5,4.17,11.41,5.98c1.8,0.83,3.77,1.79,4.76,3.6c0.83,1.52,0.64,3.27-0.91,4.2c-1.35,0.81-3.06,0.93-4.6,0.94
			c-2.23,0.02-4.47-0.17-6.7-0.3c-4.98-0.28-9.95-0.65-14.92-1.09c-4.97-0.44-9.93-0.96-14.88-1.56c-2.39-0.29-4.8-0.54-7.18-0.94
			c-1.88-0.32-3.61-0.91-4.76-2.52c-2.32-3.25-1.7-7.8-1.07-11.47c0.79-4.52,2.28-8.61,4.9-12.4
			C195.02,329.31,192.43,327.81,191.33,329.39L191.33,329.39z"/>
	</g>
</g>
<g>
	<g>
		<path d="M175.84,54.42c-7.14,0.91-14.39,3.29-19.31,8.83c-2.3,2.6-3.91,5.7-4.6,9.1c-0.77,3.77-0.63,7.62-0.45,11.44
			c0.09,1.92,3.09,1.93,3,0c-0.32-6.5-0.41-13.25,4.17-18.42c4.36-4.92,10.82-7.14,17.19-7.95
			C177.73,57.18,177.75,54.18,175.84,54.42L175.84,54.42z"/>
	</g>
</g>
<g>
	<g>
		<path d="M155.68,64.26c-3.68,0.25-7.32,0.97-10.77,2.28c-2.74,1.04-5.79,2.77-5.76,6.11c0.01,1.73,0.75,3.46,1.34,5.06
			c0.62,1.69,1.3,3.37,1.78,5.11c1.1,3.93,0.41,7.66-0.52,11.55c-0.45,1.88,2.45,2.68,2.89,0.8c0.8-3.37,1.57-6.82,1.1-10.3
			c-0.43-3.22-1.78-6.18-2.83-9.22c-0.42-1.22-1.23-2.91-0.45-4.12c0.69-1.07,2.1-1.64,3.24-2.08c3.2-1.22,6.56-1.94,9.97-2.17
			C157.6,67.14,157.61,64.13,155.68,64.26L155.68,64.26z"/>
	</g>
</g>
<g>
	<g>
		<path d="M152.11,95.19c0.24,5.83-0.8,11.49-3.63,16.63c-0.57,1.03-1.19,2.3-2.16,3.02c-1.02,0.76-2.04,0.22-2.87-0.54
			c-0.98-0.91-1.75-2.04-2.56-3.1c-1.04-1.35-2.07-2.71-3.11-4.06c-0.5-0.65-1.29-0.97-2.05-0.54c-0.64,0.36-1.03,1.41-0.54,2.05
			c1.21,1.58,2.42,3.16,3.63,4.74c1.01,1.31,1.97,2.68,3.31,3.69c1.22,0.92,2.76,1.42,4.28,1.01c1.55-0.42,2.68-1.63,3.56-2.91
			c3.98-5.8,5.43-13.06,5.15-19.99C155.03,93.26,152.03,93.25,152.11,95.19L152.11,95.19z"/>
	</g>
</g>
<g>
	<g>
		<path d="M125.03,108.29c0.52,4.02,2.3,7.79,5.28,10.58c1.63,1.53,3.45,2.5,5.67,1.62c2.26-0.89,4.49-1.89,6.68-2.93
			c0.73-0.35,0.92-1.4,0.54-2.05c-0.44-0.75-1.32-0.89-2.05-0.54c-1.78,0.84-3.58,1.65-5.41,2.4c-0.58,0.24-1.26,0.67-1.9,0.42
			c-0.68-0.26-1.26-0.88-1.77-1.38c-2.16-2.16-3.65-5.08-4.05-8.12c-0.1-0.8-0.61-1.5-1.5-1.5
			C125.8,106.79,124.92,107.48,125.03,108.29L125.03,108.29z"/>
	</g>
</g>
<g>
	<g>
		<path d="M139.94,71.96c-3.34,0.91-6.67,1.87-9.97,2.91c-2.8,0.88-5.23,2.01-6.35,4.91c-1.14,2.96-0.32,6.16,0.71,9.03
			c1.12,3.11,2.53,6.1,4.19,8.96c0.97,1.67,3.56,0.16,2.59-1.51c-1.38-2.38-2.61-4.85-3.59-7.43c-0.93-2.44-2.06-5.31-1.14-7.91
			c0.88-2.48,3.65-2.93,5.88-3.62c2.81-0.86,5.63-1.67,8.46-2.44C142.6,74.35,141.81,71.46,139.94,71.96L139.94,71.96z"/>
	</g>
</g>
<g>
	<g>
		<path d="M124.75,79.28c-1.8-0.11-3.65-0.15-5.34,0.54c-1.56,0.64-2.65,1.81-3.63,3.14c-0.9,1.23-1.67,2.55-2.86,3.54
			c-1.16,0.96-2.56,1.61-3.92,2.22c-2.87,1.29-5.86,2.47-7.87,5.01c-1.08,1.36-1.82,2.92-2.8,4.34c-1.02,1.5-2.47,2.49-3.92,3.53
			c-3.52,2.51-5.66,5.84-7.67,9.6c-0.91,1.7,1.68,3.22,2.59,1.51c1.06-1.97,2.11-3.99,3.54-5.73c1.44-1.74,3.28-2.88,5.05-4.24
			c1.75-1.35,2.94-2.98,4.05-4.86c1.02-1.71,2.06-3.19,3.78-4.26c3.15-1.95,6.93-2.77,9.69-5.35c1.39-1.3,2.21-3.05,3.47-4.46
			c1.57-1.75,3.66-1.68,5.85-1.54C126.68,82.39,126.67,79.39,124.75,79.28L124.75,79.28z"/>
	</g>
</g>
<g>
	<g>
		<path d="M129.43,117c-1.47,3.39-3.72,6.39-6.63,8.67c-2.48,1.94-6.53,4.4-9.65,2.52c-1.66-1-3.17,1.59-1.51,2.59
			c4.01,2.41,8.89,0.27,12.29-2.23c3.52-2.58,6.35-6.02,8.1-10.04c0.32-0.74,0.22-1.61-0.54-2.05
			C130.85,116.09,129.76,116.25,129.43,117L129.43,117z"/>
	</g>
</g>
<g>
	<g>
		<path d="M116.79,121.83c-1.28,2.1-2.74,4.08-4.41,5.89c-0.73,0.79-1.45,1.56-2.38,2.07c-0.35,0.19-0.89,0.38-1.2,0.41
			c-0.12,0.01-0.24,0.01-0.35,0.01c-0.04,0-0.39-0.02-0.21,0c-0.26-0.03-0.46-0.1-0.63-0.19c-0.72-0.37-1.63-0.19-2.05,0.54
			c-0.39,0.67-0.19,1.68,0.54,2.05c2.9,1.48,5.83-0.1,7.88-2.22c2.06-2.12,3.86-4.53,5.4-7.05
			C120.39,121.69,117.8,120.18,116.79,121.83L116.79,121.83z"/>
	</g>
</g>
<g>
	<g>
		<path d="M74.72,133.81c0.91,1.91,1.8,3.84,2.64,5.78c0.78,1.79,1.66,3.56,1.11,5.54c-0.26,0.94-0.75,1.81-1.29,2.62
			c-0.36,0.54-0.24,0.68-0.7,0.34c-0.29-0.21-0.67-0.33-0.98-0.51c-1.79-1.04-2.13-2.93-2.87-4.73c-1.4-3.4-3.24-6.96-2.88-10.74
			c0.14-1.47,0.61-2.99,1.58-4.13c0.92-1.08,2.53-2.04,3.87-1.11c1.59,1.11,3.09-1.49,1.51-2.59c-3.17-2.22-7.21,0.41-8.74,3.37
			c-1.75,3.39-1.47,7.29-0.3,10.81c0.68,2.04,1.6,3.99,2.39,5.99c0.77,1.94,1.27,3.81,3.01,5.12c1.31,0.99,3.53,2.39,5.16,1.43
			c1.52-0.89,2.57-3.25,3.07-4.86c0.72-2.33,0.19-4.45-0.73-6.62c-1.03-2.43-2.12-4.83-3.26-7.21
			C76.48,130.55,73.9,132.07,74.72,133.81L74.72,133.81z"/>
	</g>
</g>
<g>
	<g>
		<path d="M76.23,124.02c-0.09-0.89-0.03-1.27,0.2-2.06c0.22-0.78,0.41-1.19,0.72-1.86c0.28-0.6,0.56-1.22,0.93-1.78
			c0.07-0.1,0.14-0.21,0.21-0.3c-0.22,0.29,0.11-0.11,0.16-0.15c0.1-0.1,0.27-0.2,0.06-0.07c0.07-0.05,0.51-0.25,0.16-0.13
			c0.05-0.02,0.45-0.11,0.32-0.1c-0.1,0.01-0.07,0.02,0.09,0c0.1,0,0.2,0,0.3,0.01c-0.29-0.03,0.22,0.06,0.28,0.07
			c0.12,0.03,0.23,0.08,0.35,0.11c-0.34-0.11,0.12,0.06,0.19,0.1c0.12,0.07,0.25,0.14,0.36,0.22c0.31,0.21-0.08-0.1,0.13,0.1
			c0.12,0.11,0.24,0.22,0.36,0.34c0.08,0.09,0.16,0.18,0.24,0.27c-0.23-0.26,0.09,0.13,0.13,0.19c0.08,0.12,0.15,0.24,0.21,0.37
			c0.04,0.07,0.2,0.48,0.08,0.14c0.1,0.27,0.17,0.54,0.23,0.82c0.03,0.17,0.03,0.16,0-0.04c0.01,0.08,0.01,0.16,0.02,0.24
			c0.01,0.16,0,0.33-0.01,0.49c-0.05,0.78,0.73,1.53,1.5,1.5c0.85-0.04,1.45-0.66,1.5-1.5c0.17-2.72-1.69-5.26-4.21-6.15
			c-1.51-0.54-3.14-0.29-4.33,0.8c-0.94,0.85-1.48,2.09-1.99,3.21c-0.73,1.61-1.38,3.34-1.2,5.15c0.08,0.78,0.63,1.54,1.5,1.5
			C75.47,125.49,76.31,124.86,76.23,124.02L76.23,124.02z"/>
	</g>
</g>
<g>
	<g>
		<path d="M84.83,117.88c-0.12,0.28,0.06-0.12,0.08-0.14c0.05-0.1,0.11-0.2,0.16-0.3c0.11-0.2,0.24-0.39,0.38-0.57
			c0.1-0.13-0.12,0.13,0.06-0.07c0.09-0.1,0.18-0.21,0.28-0.3c0.16-0.17,0.33-0.31,0.5-0.47c0.2-0.18-0.06,0.03,0.08-0.06
			c0.09-0.07,0.19-0.13,0.28-0.19c0.21-0.14,0.43-0.26,0.66-0.38c0.1-0.05,0.21-0.1,0.31-0.15c-0.2,0.08-0.01,0.01,0.09-0.02
			c0.24-0.08,0.48-0.15,0.72-0.21c0.11-0.02,0.22-0.04,0.34-0.06c0.11-0.02,0.09-0.02-0.06,0.01c0.06,0,0.11-0.01,0.17-0.01
			c0,0,0.39-0.01,0.3-0.02c-0.14-0.01,0.27,0.06,0.06,0c0.14,0.09,0.17,0.11,0.1,0.05c-0.07-0.06-0.04-0.03,0.08,0.07
			c0.09,0.09,0.18,0.18,0.26,0.28c0.17,0.19,0.33,0.38,0.5,0.58c0.08,0.1,0.16,0.2,0.24,0.3c0.31,0.38-0.14-0.21,0.14,0.19
			c0.15,0.21,0.29,0.42,0.41,0.64c0.07,0.13,0.14,0.26,0.21,0.4c-0.07-0.15-0.01-0.02,0.01,0.06c0.04,0.14,0.08,0.28,0.12,0.43
			c0.07,0.31,0-0.16,0.02,0.19c0.04,0.78,0.66,1.54,1.5,1.5c0.78-0.03,1.54-0.66,1.5-1.5c-0.08-1.68-0.93-3.01-1.98-4.27
			c-0.47-0.56-0.95-1.14-1.59-1.5c-0.84-0.47-1.8-0.43-2.72-0.29c-2.79,0.44-5.04,2.48-6.1,5.04c-0.3,0.73,0.32,1.68,1.05,1.85
			C83.85,119.13,84.5,118.66,84.83,117.88L84.83,117.88z"/>
	</g>
</g>
<g>
	<g>
		<path d="M93.65,116.41c0.41-1.19,1.76-1.69,2.93-1.66c1.57,0.03,2.85,1.14,3.67,2.41c2.09,3.24,1.86,7.36,2.83,10.97
			c0.9,3.36,2.96,7.33,0.96,10.68c-0.7,1.17-1.91,2.07-3.33,1.68c-1.49-0.41-2.53-1.93-3.01-3.32c-0.76-2.2-0.69-4.59-1.05-6.87
			c-0.37-2.38-1.23-4.64-2.09-6.88c-0.69-1.78-3.59-1.01-2.89,0.8c0.99,2.56,1.91,5.11,2.21,7.86c0.28,2.57,0.39,5.24,1.65,7.56
			c2.11,3.87,7.16,5.47,10.3,1.79c3.37-3.95,1.69-8.84,0.39-13.24c-1.39-4.7-0.97-10.16-4.49-14c-3.08-3.36-9.3-3.36-10.97,1.43
			C90.12,117.44,93.01,118.22,93.65,116.41L93.65,116.41z"/>
	</g>
</g>
<g>
	<g>
		<path d="M95.09,137.13c0.29,1.08,0.06,2.1-0.31,3.14c-0.21,0.59-0.74,2.22-1.2,2.39c-0.71,0.25-1.88-0.11-2.58-0.29
			c-0.78-0.2-1.54-0.48-1.94-1.23c-0.52-0.96-0.74-2.17-1.02-3.21c-0.31-1.16-0.6-2.32-0.85-3.5c-0.52-2.43-0.89-4.88-1.12-7.36
			c-0.07-0.81-0.64-1.5-1.5-1.5c-0.75,0-1.57,0.69-1.5,1.5c0.29,3.17,0.78,6.33,1.51,9.43c0.37,1.58,0.78,3.16,1.29,4.7
			c0.45,1.35,1.12,2.51,2.36,3.27c1.04,0.63,2.27,0.88,3.46,1.06c1.4,0.21,2.98,0.31,4.08-0.78c0.97-0.96,1.51-2.57,1.95-3.84
			c0.51-1.49,0.68-3.06,0.26-4.59C97.48,134.47,94.58,135.26,95.09,137.13L95.09,137.13z"/>
	</g>
</g>
<g>
	<g>
		<path d="M87.02,141.42c-0.21,0.33-0.42,0.66-0.64,0.98c-0.1,0.14-0.2,0.29-0.3,0.43c0,0-0.23,0.31-0.12,0.16
			c0.1-0.13-0.07,0.08-0.08,0.1c-0.25,0.3-0.51,0.59-0.78,0.86c-0.14,0.14-0.28,0.27-0.43,0.39c-0.07,0.06-0.13,0.11-0.2,0.16
			c0.16-0.13,0.04-0.04-0.06,0.04c-0.29,0.2-0.6,0.37-0.91,0.53c-0.25,0.13,0.13-0.04-0.04,0.02c-0.08,0.03-0.15,0.06-0.23,0.09
			c-0.18,0.06-0.35,0.11-0.53,0.15c-0.08,0.02-0.16,0.03-0.24,0.05c-0.29,0.06,0.16,0-0.03,0.01c-0.16,0.01-0.32,0.02-0.49,0.02
			c-0.1,0-0.2-0.01-0.3-0.01c-0.19-0.01-0.07,0.02,0.04,0.01c-0.17,0.02-0.43-0.09-0.59-0.15c-0.75-0.24-1.67,0.28-1.85,1.05
			c-0.19,0.82,0.25,1.59,1.05,1.85c1.85,0.58,3.95,0.12,5.54-0.95c1.61-1.09,2.77-2.64,3.79-4.27c0.42-0.67,0.16-1.68-0.54-2.05
			C88.33,140.49,87.46,140.71,87.02,141.42L87.02,141.42z"/>
	</g>
</g>
<g>
	<g>
		<path d="M103.52,142.82c1.07,0.39,3.1,1.08,2.7,2.57c-0.4,1.47-1.8,3-3.24,3.47c-2.93,0.96-6.2-0.12-9.22,0.54
			c-1.64,0.36-2.87,1.25-4.08,2.37c-0.44,0.4-0.97,1-1.61,1.05c-0.84,0.07-1.5-0.79-1.71-1.5c-0.49-1.59,0.19-3.6,1.05-4.96
			c0.36-0.57,0.83-1.12,1.45-1.42c0.87-0.42,1.74-0.08,2.63,0.12c2.21,0.52,4.11-0.03,6.13-0.95c1.59-0.73,3.61-1.89,5.28-0.77
			c1.61,1.08,3.11-1.52,1.51-2.59c-2.02-1.35-4.51-0.91-6.61-0.01c-1.04,0.44-2.03,1.01-3.11,1.34c-1.44,0.44-2.57-0.04-3.99-0.26
			c-4.96-0.78-8.03,5.27-7.38,9.53c0.35,2.28,2.15,4.42,4.59,4.46c2.43,0.04,3.42-2.04,5.32-3.06c1.78-0.96,4.05-0.63,5.99-0.57
			c2.04,0.06,4.19-0.02,6.01-1.05c2.11-1.19,4.3-4.1,4.02-6.62c-0.28-2.57-2.77-3.8-4.94-4.58
			C102.5,139.27,101.72,142.17,103.52,142.82L103.52,142.82z"/>
	</g>
</g>
<g>
	<g>
		<path d="M100.73,100.32c4-1.05,8.21-1.35,12.32-0.79c0.8,0.11,1.61-0.19,1.85-1.05c0.19-0.7-0.24-1.73-1.05-1.85
			c-4.66-0.64-9.36-0.4-13.92,0.79C98.07,97.92,98.86,100.81,100.73,100.32L100.73,100.32z"/>
	</g>
</g>
<g>
	<g>
		<path d="M123.44,125.71c-2.04,6.09-4.3,12.85-9.82,16.7c-1.57,1.1-0.08,3.7,1.51,2.59c6.25-4.35,8.88-11.56,11.2-18.49
			C126.95,124.67,124.05,123.89,123.44,125.71L123.44,125.71z"/>
	</g>
</g>
<g>
	<g>
		<path d="M117.92,139.62c-3.15-0.5-5.75,1.51-7.03,4.3c-1.48,3.24-0.69,7.03-2.24,10.23c-1.44,2.97-4.23,5.05-6.81,6.99
			c-3.22,2.43-6.5,4.77-9.79,7.1c-1.56,1.11-0.06,3.71,1.51,2.59c3.02-2.15,6.04-4.3,9.02-6.52c2.56-1.92,5.21-3.82,7.19-6.37
			c2.09-2.69,2.64-5.62,2.99-8.93c0.17-1.57,0.37-3.18,1.22-4.54c0.65-1.03,1.8-2.17,3.13-1.96
			C119.01,142.82,119.82,139.93,117.92,139.62L117.92,139.62z"/>
	</g>
</g>
<g>
	<g>
		<path d="M201.9,107.33c-1.3,1.68-2.59,3.38-3.47,5.33c-0.94,2.09-1.19,4.24-1.26,6.51c-0.13,4.47-1.08,8.62-2.66,12.8
			c-1.58,4.17-3.55,8.18-5.21,12.32c-0.86,2.14-1.64,4.3-2.4,6.48c-0.76,2.18-1.38,4.48-2.35,6.57c-1.69,3.66-6.5,4.09-8.13,7.82
			c-0.76,1.75,1.82,3.28,2.59,1.51c0.66-1.51,1.99-2.28,3.35-3.11c1.47-0.9,2.91-1.84,3.93-3.25c1.27-1.76,1.85-4.02,2.56-6.04
			c0.76-2.18,1.51-4.35,2.31-6.51c3.08-8.24,7.77-16.06,8.8-24.92c0.3-2.59-0.05-5.32,0.76-7.84c0.74-2.29,2.32-4.26,3.77-6.14
			c0.5-0.65,0.09-1.67-0.54-2.05C203.19,106.33,202.4,106.69,201.9,107.33L201.9,107.33z"/>
	</g>
</g>
<g>
	<g>
		<path d="M183.87,158.87c0.55,4.32-1.7,8.22-4.3,11.49c-2.62,3.29-5.61,6.35-7.46,10.18c-0.84,1.73,1.75,3.25,2.59,1.51
			c3.75-7.77,13.39-13.49,12.17-23.18c-0.1-0.81-0.62-1.49-1.5-1.5C184.63,157.36,183.77,158.07,183.87,158.87L183.87,158.87z"/>
	</g>
</g>
<g>
	<g>
		<path d="M93.33,167.61c-2.34,0.49-3.77,2.76-3.85,5.06c-0.09,2.58,1.63,4.74,3.56,6.23c2.1,1.63,4.36,3.06,6.48,4.68
			c2.13,1.62,4.28,3.25,6.64,4.52c2.21,1.19,4.4,1.75,6.83,2.27c1.7,0.36,3.29,1.25,4.8,2.08c3.51,1.91,6.8,4.28,10.39,6.04
			c2.58,1.27,5,2.88,7.64,4.02c2.8,1.2,5.76,1.9,8.72,2.57c3.1,0.7,6.27,1.43,9.46,1.33c1.87-0.05,3.72-0.14,5.59-0.1
			c4.46,0.11,8.94,0.46,13.39,0.2c1.48-0.09,3.64,0,4.58-1.36c0.72-1.04,0.61-2.45,0.47-3.64c-0.24-1.99-0.72-3.93-1.1-5.89
			c-0.16-0.79-0.31-1.59-0.37-2.39c-0.03-0.37-0.06-0.75-0.02-1.12c0.02-0.17,0.06-0.23,0.08-0.29c0.82-1.94,0.75-3.86,0.4-5.92
			c-0.33-1.99-0.99-4.35-2.55-5.76c-1.43-1.29-3.56,0.82-2.12,2.12c1.16,1.05,1.54,2.97,1.77,4.44c0.2,1.22,0.29,2.73-0.16,3.71
			c-1.15,2.49,0.02,5.8,0.54,8.33c0.28,1.34,0.62,2.72,0.62,4.09c0,0.12-0.06,0.71-0.02,0.49c-0.06,0.34-0.07,0.18-0.03,0.15
			c0.4-0.24,0.35-0.23-0.06-0.18c-0.33,0.04-0.65,0.1-0.98,0.13c-3.93,0.38-7.93,0.1-11.87-0.04c-1.85-0.06-3.7-0.13-5.55-0.11
			c-2.33,0.04-4.58,0.18-6.9-0.2c-5.54-0.91-11.15-2.23-16.04-5.05c-3.37-1.95-6.81-3.71-10.16-5.72c-2.97-1.79-6.22-4.04-9.65-4.81
			c-1.04-0.23-2.08-0.34-3.1-0.65c-1.27-0.39-2.46-0.96-3.61-1.61c-2.34-1.33-4.48-2.97-6.61-4.6c-1.09-0.83-2.18-1.66-3.3-2.45
			c-1.12-0.78-2.31-1.45-3.29-2.42c-0.81-0.81-1.58-1.89-1.5-3.1c0.07-1.03,0.6-1.94,1.65-2.16
			C96.01,170.11,95.22,167.22,93.33,167.61L93.33,167.61z"/>
	</g>
</g>
<g>
	<g>
		<path d="M166.23,176.37c-1.91,2.22-4.41,3.76-7.28,4.41c-3.29,0.75-6.88,0.01-10.19-0.3c-0.81-0.08-1.5,0.74-1.5,1.5
			c0,0.88,0.69,1.42,1.5,1.5c3.73,0.35,7.57,1.05,11.27,0.13c3.21-0.8,6.16-2.61,8.32-5.11C169.6,177.03,167.49,174.9,166.23,176.37
			L166.23,176.37z"/>
	</g>
</g>
<g>
	<g>
		<path d="M235.84,94.87c0.3,0.06,0.59,0.11,0.89,0.09c0.14-0.01,0.35-0.03,0.51-0.08c0.25-0.07-0.09,0.01-0.16,0.01
			c0.23-0.01-0.3-0.09,0.02,0.01c0.13,0.04,0.27,0.07,0.4,0.11c0.27,0.07,0.53,0.15,0.79,0.24c0.13,0.04,0.26,0.09,0.39,0.13
			c0.02,0.01,0.44,0.17,0.15,0.05c0.25,0.11,0.5,0.23,0.73,0.36c0.12,0.07,0.23,0.14,0.35,0.21c0.03,0.02,0.34,0.28,0.13,0.09
			c0.19,0.17,0.38,0.34,0.55,0.53c0.05,0.06,0.28,0.35,0.08,0.08c0.07,0.1,0.15,0.2,0.21,0.3c0.14,0.21,0.27,0.42,0.39,0.64
			c0.25,0.44,0.46,0.9,0.67,1.36c0.42,0.92,0.84,1.86,1.42,2.69c0.45,0.64,1.33,1,2.05,0.54c0.64-0.41,1.02-1.37,0.54-2.05
			c-1.29-1.83-1.77-4.11-3.33-5.78c-0.89-0.95-2.06-1.55-3.28-1.98c-0.55-0.19-1.12-0.38-1.7-0.48c-0.4-0.07-0.7-0.07-1.1,0
			c-0.03,0.01-0.14,0.02-0.16,0.04c0.3-0.03,0.36-0.04,0.19-0.03c-0.15-0.01-0.13-0.01,0.05,0.01c-0.77-0.15-1.66,0.22-1.85,1.05
			C234.63,93.77,235.02,94.71,235.84,94.87L235.84,94.87z"/>
	</g>
</g>
<g>
	<g>
		<path d="M242.19,96.12c2.01-1.45,4.39-2.02,6.83-2.19c2.74-0.19,5.4-0.13,7.86,1.21c1.05,0.57,2.2,1.22,3.11,1.99
			c0.77,0.65,0.48,2.22,0.4,3.13c-0.2,2.55-1.11,4.98-2.5,7.12c-1.05,1.63,1.54,3.13,2.59,1.51c1.71-2.64,2.71-5.67,2.92-8.81
			c0.1-1.53,0.18-3.37-0.85-4.62c-0.89-1.08-2.37-1.87-3.56-2.57c-2.97-1.76-6.06-2.18-9.47-2c-3.11,0.16-6.28,0.77-8.85,2.63
			C239.13,94.65,240.63,97.25,242.19,96.12L242.19,96.12z"/>
	</g>
</g>
<g>
	<g>
		<path d="M260.11,95.85c4.83-2.18,10.27-0.21,15.1,0.91c5.46,1.26,10.82,0.99,16.36,0.49c0.83-0.07,3.18-0.68,3.72,0
			c0.62,0.78,0.28,2.36,0.06,3.21c-0.65,2.48-1.95,4.66-2,7.29c-0.06,2.79,0.65,5.26-0.29,8c-0.38,1.11-0.9,2.16-1.45,3.19
			c-0.14,0.27-0.49,1.16-0.74,1.2c-0.32,0.05-1.23-0.71-1.47-0.86c-0.95-0.62-1.92-1.22-3.06-1.4c-1.35-0.22-2.6,0.22-3.88,0.54
			c-2.89,0.73-5.86,0.49-8.65-0.51c-1.82-0.65-2.61,2.25-0.8,2.89c2.8,0.99,5.78,1.27,8.71,0.82c1.28-0.2,2.87-1.03,4.17-0.79
			c1.14,0.21,2.07,1.17,3.07,1.7c1.13,0.6,2.49,0.99,3.64,0.2c1.04-0.71,1.56-2.16,2.1-3.24c1.33-2.68,2.14-5.37,1.89-8.39
			c-0.13-1.6-0.42-3.2-0.07-4.79c0.32-1.48,1.03-2.86,1.5-4.29c0.73-2.22,1.1-5.6-0.92-7.32c-1.09-0.92-2.5-0.7-3.81-0.59
			c-1.71,0.14-3.43,0.31-5.14,0.44c-3.26,0.24-6.58,0.37-9.81-0.2c-6.61-1.15-13.17-4.05-19.73-1.08
			C256.83,94.06,258.36,96.64,260.11,95.85L260.11,95.85z"/>
	</g>
</g>
<g>
	<g>
		<path d="M272.66,114.36c-0.58,1.51-1.2,3.11-2.29,4.34c-1.37,1.54-3.25,1.73-5.21,1.69c-4.16-0.09-8.27-1.31-12.45-0.89
			c-2.1,0.21-3.89,0.99-5.86,1.64c-2.15,0.7-4.28,0.43-6.41-0.17c-1.05-0.3-2.1-0.65-3.12-1.04c-0.99-0.38-1.42-0.67-1.62-1.75
			c-0.39-2.17-0.6-4.39-0.9-6.58c-0.11-0.81-1.14-1.23-1.85-1.05c-0.87,0.23-1.16,1.05-1.05,1.85c0.28,2.06,0.54,4.13,0.84,6.19
			c0.25,1.68,0.96,2.98,2.54,3.74c3.34,1.59,7.6,2.79,11.28,2c1.8-0.38,3.42-1.33,5.23-1.68c1.88-0.37,3.85-0.24,5.74-0.04
			c3.66,0.38,7.67,1.42,11.32,0.44c3.74-1.01,5.39-4.55,6.67-7.87C276.25,113.35,273.35,112.57,272.66,114.36L272.66,114.36z"/>
	</g>
</g>
<g>
	<g>
		<path d="M232.3,117.48c-1.92,1.64-4.72,1.47-7.09,1.42c-3.06-0.06-5.99,0.29-9.01,0.75c-1.61,0.25-3.23,0.5-4.84,0.74
			c-1.09,0.17-2.88,0.79-3.78-0.07c-0.93-0.88-1.4-1.82-2.81-1.98c-1.51-0.17-3.23,0.3-4.73,0.49c-1.89,0.24-1.91,3.24,0,3
			c0.84-0.11,1.67-0.21,2.51-0.32c0.69-0.09,1.6-0.39,2.17,0.02c0.48,0.35,0.76,0.99,1.25,1.37c0.55,0.42,1.17,0.65,1.84,0.75
			c1.44,0.22,2.93-0.16,4.35-0.38c1.77-0.27,3.55-0.54,5.32-0.82c1.67-0.26,3.34-0.53,5.03-0.59c1.42-0.05,2.84,0.04,4.25,0.03
			c2.8-0.01,5.47-0.45,7.66-2.32C235.89,118.34,233.76,116.23,232.3,117.48L232.3,117.48z"/>
	</g>
</g>
<g>
	<g>
		<path d="M297.99,103.39c5.06,0.32,10,1.83,14.56,4c2.58,1.23,5.07,2.65,7.46,4.22c2.14,1.4,4.65,2.88,6.31,4.88
			c0.43,0.52,1.46,1.77,0.73,2.44c-0.42,0.39-1.22,0.18-1.71,0.05c-2.54-0.65-4.81-2.13-7.14-3.29c-3.6-1.79-9.63-4.13-12.35,0.33
			c-1.34,2.19,0.24,4.69,2.29,5.64c1.17,0.54,2.37,0.95,3.46,1.68c0.21,0.14,0.56,0.33,0.71,0.52c0.44,0.55,0.23-0.14,0.12,0.44
			c-0.13,0.71-0.45,0.86-0.33,1.68c0.23-0.56,0.46-1.13,0.69-1.69c-3.08,2.2-6.82,0.1-9.68-1.59c-1.51-0.89-2.99-1.85-4.1-3.23
			c-1.11-1.39-1.94-2.82-3.38-3.92c-0.65-0.5-1.67-0.09-2.05,0.54c-0.46,0.77-0.1,1.56,0.54,2.05c1.53,1.18,2.31,3.15,3.73,4.47
			c1.49,1.39,3.32,2.52,5.11,3.47c3.54,1.87,7.76,3.35,11.34,0.79c0.61-0.43,0.8-0.98,0.69-1.69c0.14,0.91,0.06,0.65,0.31,0.08
			c0.1-0.22,0.19-0.43,0.24-0.67c0.14-0.6,0.05-1.24-0.23-1.79c-0.62-1.21-2.14-2.08-3.3-2.7c-0.89-0.47-4.55-1.38-3.4-2.82
			c1.46-1.83,4.91-0.42,6.57,0.29c2.54,1.09,4.88,2.6,7.45,3.64c1.78,0.72,3.99,1.45,5.8,0.4c0.81-0.47,1.38-1.26,1.67-2.15
			c0.46-1.42,0.02-2.68-0.76-3.9c-1.43-2.21-3.72-3.72-5.83-5.2c-2.64-1.85-5.4-3.54-8.28-4.99c-5.39-2.72-11.19-4.6-17.24-4.98
			C296.06,100.27,296.07,103.27,297.99,103.39L297.99,103.39z"/>
	</g>
</g>
<g>
	<g>
		<path d="M96.84,185.35c-4.13,4.23-4.78,10.19-5.4,15.78c-0.31,2.83-0.62,5.68-1.48,8.4c-0.95,2.99-2.67,5.18-5.15,7.07
			c-2.69,2.04-5.73,4.25-6.31,7.83c-0.05,0.34-0.17,0.81-0.1,1.15c0,0-0.01,0.6,0.12,0.33c0.09-0.18-0.17,0.05-0.36,0.11
			c-1.1,0.34-2.18,0.72-3.27,1.08c-1.95,0.64-3.9,1.29-5.85,1.93c-3.21,1.06-6.99,1.99-7.88,5.75c-0.74,3.11,0.72,6.24,2.8,8.49
			c2.38,2.58,5.39,4.41,7.28,7.45c1.86,2.99,2.81,6.44,3.4,9.89c0.7,4.12,0.88,8.32,1.5,12.45c0.4,2.64,1.25,7.08,4.92,6.5
			c1.62-0.26,2.88-1.61,4.32-2.32c1.51-0.74,3.17-1.17,4.81-1.56c3.31-0.79,6.72-1.36,9.72-3.04c1.68-0.94,3.11-2.24,4.7-3.31
			c1.56-1.06,3.27-1.87,4.97-2.66c3.56-1.65,6.88-3.56,10.08-5.82c5.99-4.24,12.3-8.67,16.43-14.85c3.73-5.58,5.46-12.43,6.86-18.9
			c0.34-1.57,0.66-3.14,0.97-4.72c0.37-1.89-2.52-2.69-2.89-0.8c-1.23,6.26-2.51,12.69-5.15,18.54
			c-2.86,6.34-7.88,10.86-13.37,14.96c-2.94,2.19-5.89,4.39-9.05,6.26c-3.17,1.88-6.71,3.07-9.82,5.05
			c-1.38,0.87-2.61,1.94-3.95,2.86c-1.46,1-3.03,1.7-4.73,2.2c-3.14,0.93-6.44,1.32-9.5,2.51c-1.34,0.52-2.55,1.18-3.73,1.99
			c-0.4,0.27-0.95,0.85-1.44,0.56c-0.51-0.29-0.71-1.3-0.83-1.81c-0.93-3.88-1-7.96-1.5-11.91c-0.85-6.7-2.68-13.33-7.87-18.01
			c-2.21-1.99-5.06-3.83-5.9-6.85c-0.33-1.19-0.38-2.61,0.41-3.64c1.09-1.4,3.41-1.78,5-2.31c1.72-0.57,3.43-1.13,5.15-1.7
			c0.94-0.31,1.87-0.62,2.81-0.93c0.92-0.3,2.06-0.51,2.86-1.07c1.47-1.04,0.71-2.7,1.24-4.16c0.59-1.62,1.93-2.85,3.25-3.89
			c2.71-2.14,5.32-4.01,6.87-7.21c1.35-2.8,1.91-5.84,2.31-8.89c0.74-5.63,0.64-12.35,4.88-16.68
			C100.31,186.09,98.19,183.96,96.84,185.35L96.84,185.35z"/>
	</g>
</g>
<g>
	<g>
		<path d="M99,187.17c0.12-0.2,0.26-0.4,0.4-0.59c-0.08,0.1-0.16,0.2-0.23,0.3c0.32-0.41,0.69-0.77,1.09-1.09
			c-0.1,0.08-0.2,0.16-0.3,0.23c0.43-0.33,0.89-0.6,1.38-0.81c-0.12,0.05-0.24,0.1-0.36,0.15c0.33-0.14,0.67-0.25,1.02-0.33
			c0.77-0.17,1.29-1.1,1.05-1.85c-0.26-0.8-1.02-1.23-1.85-1.05c-1.99,0.45-3.74,1.77-4.79,3.5c-0.41,0.67-0.17,1.68,0.54,2.05
			C97.67,188.1,98.56,187.89,99,187.17L99,187.17z"/>
	</g>
</g>
<g>
	<g>
		<path d="M142.51,203.85c-0.38,3.7,1.63,6.91,1.95,10.5c0.32,3.61-2.2,5.77-5.25,7.07c-2.38,1.02-4.33,2.98-6.38,4.51
			c-0.98,0.73-2.02,1.54-3.16,2.02c-1.03,0.43-2.24,0.24-3.4,0.16c-3.75-0.23-7.5-0.89-11.26-0.82c-1.93,0.03-1.93,3.03,0,3
			c3.59-0.06,7.16,0.53,10.73,0.79c1.42,0.1,3.01,0.32,4.39-0.11c1.26-0.39,2.41-1.14,3.47-1.89c2.21-1.57,4.33-3.78,6.77-4.9
			c3.29-1.52,6.37-3.67,7-7.53c0.73-4.45-2.3-8.39-1.84-12.79C145.71,201.93,142.71,201.95,142.51,203.85L142.51,203.85z"/>
	</g>
</g>
<g>
	<g>
		<path d="M81.9,227.35c0.3-0.26,0.98-0.08,1.33-0.01c0.76,0.15,1.51,0.37,2.24,0.63c1.42,0.51,2.77,1.23,4.04,2.05
			c2.64,1.69,4.96,3.81,7.25,5.93c1.42,1.31,3.54-0.81,2.12-2.12c-2.75-2.53-5.55-5.09-8.8-6.97c-1.56-0.91-3.24-1.66-4.99-2.14
			c-1.83-0.51-3.77-0.8-5.32,0.52c-0.62,0.53-0.54,1.58,0,2.12C80.39,227.96,81.28,227.87,81.9,227.35L81.9,227.35z"/>
	</g>
</g>
<g>
	<g>
		<path d="M94.33,210.86c4.12,3.96,6.62,9.33,11.05,12.99c0.62,0.52,1.51,0.61,2.12,0c0.53-0.53,0.63-1.6,0-2.12
			c-4.43-3.66-6.93-9.04-11.05-12.99C95.06,207.4,92.93,209.52,94.33,210.86L94.33,210.86z"/>
	</g>
</g>
<g>
	<g>
		<path d="M173.6,182.21c7.24,3.84,13.41,9.53,17.7,16.53c2.27,3.7,4.15,7.87,4.11,12.29c-0.02,2.05-0.46,4.12-1.45,5.93
			c-1.08,1.96-2.74,3.5-4.35,5.02c-1.41,1.33,0.72,3.45,2.12,2.12c2.68-2.53,5.11-5.17,6.1-8.82c0.98-3.6,0.63-7.46-0.55-10.96
			c-2.28-6.84-7.02-13.06-12.34-17.84c-2.98-2.68-6.29-4.99-9.83-6.86C173.41,178.71,171.89,181.3,173.6,182.21L173.6,182.21z"/>
	</g>
</g>
<g>
	<g>
		<path d="M193.86,203.57c4.23,6.63,9.18,12.86,15.41,17.72c3.1,2.42,6.48,4.58,9.11,7.53c2.77,3.12,3.31,6.83,3.03,10.87
			c-0.07,0.95-0.16,1.89-0.27,2.83c-0.08,0.71-0.1,1.6-0.88,1.83c-0.77,0.23-1.71,0.08-2.51,0.22c-0.96,0.16-1.88,0.48-2.77,0.84
			c-1.78,0.73-3.48,1.63-5.37,2.08c-1.98,0.47-4.03,0.6-6.01,1.08c-3.94,0.97-7.31,3.33-11.36,3.97c-2.04,0.32-4.11,0.48-6.05,1.23
			c-1.82,0.7-3.52,1.87-5.46,2.21c-0.54,0.09-1.1,0.12-1.63,0c-0.5-0.11-0.71-0.15-0.8-0.6c-0.1-0.52,0.12-1.28,0.18-1.81
			c0.06-0.65,0.13-1.29,0.19-1.94c0.23-2.32,0.3-4.75,0.75-7.04c0.44-2.24,2.1-2.69,3.86-3.73c1.85-1.1,3-2.82,4.05-4.64
			c0.96-1.68-1.63-3.19-2.59-1.51c-1.08,1.89-2.13,3.15-4.07,4.16c-1.77,0.92-3.2,2.01-3.88,3.96c-0.72,2.06-0.68,4.48-0.9,6.63
			c-0.12,1.21-0.24,2.42-0.37,3.63c-0.11,1.08-0.41,2.31-0.13,3.38c0.52,1.96,2.92,2.64,4.71,2.58c2.19-0.08,4.08-1.12,6.02-2.01
			c2.14-0.98,4.39-1.22,6.69-1.57c2.29-0.35,4.37-1.09,6.47-2.03c2.04-0.91,4.02-1.79,6.22-2.21c2.21-0.42,4.46-0.58,6.59-1.35
			c2.02-0.74,3.92-1.92,6.05-2.34c1.87-0.37,3.88,0.08,5.1-1.77c1.04-1.56,0.99-3.84,1.14-5.64c0.17-2.16,0.18-4.33-0.23-6.46
			c-0.83-4.27-3.78-7.5-7.05-10.17c-3.9-3.17-8-5.94-11.5-9.58c-3.47-3.62-6.44-7.65-9.14-11.87
			C195.41,200.43,192.81,201.93,193.86,203.57L193.86,203.57z"/>
	</g>
</g>
<g>
	<g>
		<path d="M177.86,248.72c-5.41-5.2-11.23-9.97-17.4-14.24c-3.03-2.1-6.28-3.95-9.05-6.39c-2.61-2.3-4.64-5.1-6.1-8.25
			c-0.81-1.75-3.4-0.23-2.59,1.51c1.43,3.1,3.44,5.94,5.93,8.28c2.76,2.6,6.04,4.54,9.16,6.66c6.38,4.33,12.36,9.21,17.92,14.55
			C177.13,252.18,179.25,250.06,177.86,248.72L177.86,248.72z"/>
	</g>
</g>
<g>
	<g>
		<path d="M236.5,91.9c-3.57-0.98-7.15-1.96-10.72-2.94c-1.86-0.51-2.66,2.38-0.8,2.89c3.57,0.98,7.15,1.96,10.72,2.94
			C237.56,95.3,238.36,92.41,236.5,91.9L236.5,91.9z"/>
	</g>
</g>
<g>
	<g>
		<path class="st4" d="M510.61,90.69c2.44,0.59,4.24,2.98,6.62,3.91c1.61,0.63,3.24,0.82,4.96,0.59c1.58-0.21,3.21-1.08,4.77-1.03
			c2.81,0.09,4.85-2.37,5-5c0.11-1.96-0.46-3.56-1.59-5.17c-0.26-0.34-0.52-0.67-0.78-1.01c-0.54-0.7-0.64-0.75-0.29-0.16
			c0.06,1.24,0.27-0.99,0.26-1.28c-0.22-3.54-2.66-6.84-6.04-7.98c-3.3-1.11-6.37-0.24-9.15,1.68c-3.03,2.09-5.93,3.89-7.15,7.54
			c3.21,0.89,6.43,1.77,9.64,2.66c0.23-1.32-0.08-0.69,0.22-0.84c-0.84,0.23-1.68,0.46-2.52,0.68c2.92,0.06,5.69-0.04,7.85-2.31
			c2.2-2.3,2.38-5.63,0.92-8.35c-1.44,2.51-2.88,5.02-4.32,7.52c0.36,0.03,0.23-0.04,0.01-0.24c0.66,0.57,1.35,1.07,2.14,1.44
			c1.44,0.66,3,0.76,4.5,0.23c6.02-2.15,3.42-11.81-2.66-9.64c-0.2,0.07-0.4,0.14-0.6,0.21c0.89,0,1.77,0,2.66,0
			c1.76,0.51-2.18-1.34-2.37-1.4c-1.18-0.39-2.45-0.49-3.68-0.59c-3.97-0.32-5.98,4.43-4.32,7.52c0.1,0.18,0.19,0.35,0.29,0.53
			c-0.23-0.84-0.46-1.68-0.68-2.52c2.38-1.65,2.73-2.44,1.06-2.38c-0.72-0.06-1.43,0-2.13,0.16c-0.99,0.27-1.96,0.89-2.72,1.56
			c-1.72,1.5-2.89,3.51-3.29,5.77c-1.09,6.28,7.57,8.85,9.64,2.66c-0.23,0.7,0.31-0.04,0.64-0.22c0.66-0.37,1.29-0.91,1.92-1.35
			c0.15-0.1,1.21-0.72,1.19-0.84c0,0-1.15-0.61-1.01-0.68c-0.59,0.28,0.15,3.31,0.29,3.74c0.28,0.87,0.74,1.6,1.27,2.32
			c0.27,0.37,0.76,1.4,0.8,0.75c1.67-1.67,3.33-3.33,5-5c-1.55-0.05-3.02,0.24-4.5,0.69c-0.59,0.18-1.22,0.52-1.86,0.49
			c0.9,0.04-0.18-0.22-0.57-0.49c-2.17-1.55-4.1-3.15-6.77-3.79C507.02,79.53,504.35,89.17,510.61,90.69L510.61,90.69z"/>
	</g>
</g>
<g>
	<g>
		<path class="st5" d="M510.38,76.89c0-0.07,0.09-0.08,0.01-0.03c-0.06,0.04,0,0.01-0.09,0.11c-0.13,0.13-0.27,0.24-0.41,0.36
			c-0.36,0.28-0.66,0.58-0.93,0.94c-0.55,0.73-0.87,1.6-0.95,2.51c-0.04,0.49,0,0.99,0.22,1.43c0.2,0.41,0.55,0.69,0.85,1.03
			c0.23,0.26,0.37,0.57,0.47,0.9c0.1,0.35,0.26,0.87,0.23,1.14c0.05-0.17,0.09-0.34,0.14-0.5c-0.02,0.03-0.03,0.05-0.05,0.08
			c0.2-0.15,0.4-0.31,0.6-0.46c-0.03,0.01-0.07,0.02-0.1,0.04c0.18,0,0.35,0,0.53,0c0.2,0.06,0.13,0.04,0.01-0.1
			c-0.08-0.09-0.16-0.17-0.24-0.25c-0.16-0.16-0.34-0.31-0.52-0.45c-0.34-0.26-0.69-0.48-1.06-0.68c-0.1-0.06-0.34-0.22-0.37-0.22
			c-0.11-0.01,0.02-0.05,0,0.03c-0.01,0.05-0.03,0.22,0.03,0.23c0.04,0.01,0.35-0.44,0.37-0.48c0.13-0.18,0.25-0.37,0.36-0.56
			c0.77-1.4,1.03-3.14,2.44-4.1c0.94-0.64,0.36-2.06-0.77-1.83c-1.75,0.36-2.06,2.3-2.26,3.78c-0.2,1.48-0.22,3.06,0.65,4.35
			c0.3,0.45,0.88,0.64,1.37,0.36c0.44-0.26,0.66-0.92,0.36-1.37c-0.57-0.84-0.55-1.82-0.44-2.81c0.06-0.52,0.14-1.04,0.26-1.55
			c0.1-0.41,0.22-0.77,0.6-0.84c-0.26-0.61-0.51-1.22-0.77-1.83c-0.73,0.5-1.35,1.12-1.81,1.89c-0.4,0.68-0.66,1.43-0.97,2.15
			c-0.14,0.33-0.29,0.65-0.48,0.96c-0.21,0.34-0.51,0.63-0.7,0.98c-0.5,0.95-0.01,1.87,0.82,2.41c0.3,0.19,0.63,0.34,0.93,0.53
			c0.32,0.21,0.58,0.48,0.83,0.76c0.34,0.39,0.81,0.71,1.36,0.56c0.6-0.16,0.92-0.69,0.88-1.29c-0.05-0.84-0.32-1.79-0.74-2.52
			c-0.21-0.36-0.48-0.67-0.78-0.97c-0.25-0.25-0.29-0.31-0.27-0.69c0.05-0.66,0.38-1.34,0.88-1.81c0.71-0.67,1.47-1.12,1.52-2.21
			C512.43,75.61,510.43,75.61,510.38,76.89L510.38,76.89z"/>
	</g>
</g>
<g>
	<g>
		<path class="st5" d="M506.04,88.83c4.37,3.37,8.98,6.76,14.63,7.37c1.75,0.19,5.48,0.51,5.53-2.06c0.01-0.58-0.39-1.12,0.33-0.82
			c0.54,0.22,0.97,0.57,1.56,0.69c1.03,0.2,2.03-0.22,2.75-0.95c0.66-0.67,0-2.04-0.97-1.67c-2.02,0.76-3.81,1.87-5.36,3.36
			c-0.58,0.56-0.18,1.8,0.71,1.71c2.03-0.21,3.83-1.03,5.23-2.52c0.65-0.69,0.02-1.99-0.97-1.67c-1.89,0.62-3.58,1.5-5.25,2.56
			c-1.89,1.19-4.12,1.15-6.29,0.91c-2.35-0.26-4.01-1.39-5.71-2.96c-1.76-1.63-3.51-3.27-5.26-4.91c-0.94-0.88-2.36,0.53-1.41,1.41
			c1.91,1.78,3.79,3.58,5.73,5.33c1.74,1.57,3.58,2.69,5.93,3.03c2.02,0.29,4.59,0.5,6.52-0.28c1.03-0.42,1.91-1.12,2.87-1.67
			c1.09-0.63,2.23-1.12,3.42-1.51c-0.32-0.56-0.65-1.11-0.97-1.67c-1.03,1.09-2.32,1.79-3.82,1.94c0.24,0.57,0.47,1.14,0.71,1.71
			c1.3-1.25,2.79-2.21,4.48-2.85c-0.32-0.56-0.65-1.11-0.97-1.67c-0.93,0.95-1.87-0.25-2.89-0.43c-0.78-0.14-1.62,0.08-2.09,0.77
			c-0.23,0.34-0.3,0.75-0.32,1.15c-0.01,0.32,0.14,0.84-0.03,1.01c-0.22,0.23-1.59,0.14-1.95,0.14c-0.69,0-1.39-0.06-2.07-0.16
			c-5-0.8-9.14-4.01-13.04-7.02C506.03,86.32,505.03,88.06,506.04,88.83L506.04,88.83z"/>
	</g>
</g>
<g>
	<g>
		<path class="st5" d="M527.99,83.46c0.02,0.19,0.01,0.36,0,0.55c-0.01,0.13,0.04-0.2,0.01-0.07c-0.01,0.04-0.02,0.09-0.03,0.13
			c-0.02,0.08-0.04,0.17-0.07,0.25c-0.01,0.04-0.08,0.28-0.1,0.28c0.01,0,0.09-0.2,0.02-0.06c-0.02,0.04-0.04,0.08-0.06,0.12
			c-0.08,0.17-0.18,0.33-0.28,0.48c-0.23,0.35-0.44,0.68-0.58,1.08c-0.19,0.51-0.13,1.06,0.11,1.54c0.14,0.28,0.44,0.44,0.73,0.48
			c0.33,0.04,0.59-0.07,0.84-0.28c0.75-0.62,1.49-1.27,2.2-1.94c0.28-0.26,0.5-0.54,0.56-0.93c0.07-0.54-0.21-0.93-0.62-1.23
			c-0.41-0.3-0.83-0.58-1.25-0.87c-0.43-0.3-1.13-0.09-1.37,0.36c-0.27,0.51-0.1,1.05,0.36,1.37c0.34,0.24,0.67,0.47,1.01,0.71
			c0.04,0.03,0.08,0.06,0.12,0.09c0.03,0.02,0.06,0.04,0.09,0.06c-0.04-0.03-0.08-0.06-0.12-0.09c-0.04-0.31-0.07-0.62-0.11-0.93
			c0.03-0.04,0.06-0.08,0.09-0.11c-0.03,0.01-0.07,0.07-0.09,0.09c-0.15,0.14-0.3,0.28-0.45,0.42c-0.59,0.55-1.21,1.08-1.83,1.59
			c0.52,0.07,1.05,0.13,1.57,0.2c0.06,0.15,0.07,0.18,0.03,0.08c-0.02-0.11-0.02-0.07,0.01,0.1c0-0.04,0-0.07,0-0.11
			c-0.03,0.17-0.03,0.2-0.01,0.1c0.01-0.04,0.02-0.08,0.03-0.11c0.04-0.1,0.02-0.08-0.03,0.07c0.05-0.04,0.08-0.17,0.11-0.22
			c0.16-0.29,0.36-0.55,0.52-0.84c0.38-0.71,0.64-1.53,0.56-2.35c-0.03-0.27-0.09-0.51-0.29-0.71c-0.17-0.17-0.46-0.3-0.71-0.29
			C528.49,82.48,527.94,82.9,527.99,83.46L527.99,83.46z"/>
	</g>
</g>
<g>
	<g>
		<path class="st5" d="M511.69,77.79c0.98-0.5,1.95-1.01,2.93-1.51c0.89-0.46,1.79-1.02,2.74-1.34c1.81-0.61,3.43,0.84,5.27,0.63
			c0.7-0.08,1.32-0.8,0.86-1.5c-0.11-0.17-0.22-0.34-0.33-0.51c-0.46,0.46-0.91,0.91-1.37,1.37c0.8,0.38,1.59,0.76,2.39,1.13
			c0.68,0.32,1.48,0.61,2.03,1.14c0.53,0.51,0.49,1.2,0.54,1.88c0.05,0.74,0.17,1.42,0.55,2.07c0.65,1.11,2.38,0.11,1.73-1.01
			c-0.38-0.66-0.27-1.49-0.37-2.22c-0.11-0.82-0.43-1.55-1.03-2.14c-1.28-1.23-3.26-1.84-4.83-2.58c-0.84-0.4-1.96,0.46-1.37,1.37
			c0.11,0.17,0.22,0.34,0.33,0.51c0.29-0.5,0.58-1,0.86-1.5c-1.03,0.12-1.91-0.35-2.88-0.62c-0.97-0.26-1.96-0.26-2.92,0.06
			c-2.14,0.71-4.16,2.03-6.15,3.06C509.54,76.66,510.55,78.38,511.69,77.79L511.69,77.79z"/>
	</g>
</g>
<g>
	<g>
		<path class="st5" d="M522.73,76.16c0-0.01,0.01-0.02,0.01-0.03c-0.03,0.08-0.07,0.16-0.1,0.24c0.01-0.02,0.02-0.05,0.04-0.07
			c-0.05,0.07-0.1,0.13-0.16,0.2c0.02-0.02,0.03-0.04,0.05-0.05c-0.07,0.05-0.13,0.1-0.2,0.16c0.03-0.02,0.06-0.04,0.09-0.05
			c-0.08,0.03-0.16,0.07-0.24,0.1c0.04-0.02,0.09-0.03,0.13-0.03c-0.09,0.01-0.18,0.02-0.27,0.04c0.06-0.01,0.11-0.01,0.17,0
			c-0.09-0.01-0.18-0.02-0.27-0.04c0.06,0.01,0.11,0.02,0.17,0.04c-0.08-0.03-0.16-0.07-0.24-0.1c0.15,0.06,0.28,0.16,0.43,0.23
			c0.27,0.14,0.54,0.23,0.85,0.25c0.5,0.03,1.01-0.22,1.35-0.57c0.14-0.15,0.28-0.32,0.37-0.51c0.15-0.31,0.21-0.58,0.25-0.92
			c0.04-0.42-0.04-0.86-0.11-1.27c-0.04-0.23-0.26-0.48-0.46-0.6c-0.21-0.13-0.53-0.18-0.77-0.1c-0.24,0.08-0.48,0.23-0.6,0.46
			c-0.13,0.25-0.15,0.49-0.1,0.77c0.02,0.13,0.04,0.25,0.06,0.38c-0.01-0.09-0.02-0.18-0.04-0.27c0.03,0.22,0.04,0.45,0.01,0.67
			c0.01-0.09,0.02-0.18,0.04-0.27c-0.02,0.12-0.05,0.23-0.09,0.34c0.03-0.08,0.07-0.16,0.1-0.24c-0.04,0.08-0.08,0.16-0.14,0.24
			c0.05-0.07,0.1-0.13,0.16-0.2c-0.06,0.07-0.12,0.14-0.19,0.19c0.07-0.05,0.13-0.1,0.2-0.16c-0.06,0.05-0.13,0.09-0.2,0.12
			c0.08-0.03,0.16-0.07,0.24-0.1c-0.07,0.03-0.14,0.05-0.22,0.06c0.09-0.01,0.18-0.02,0.27-0.04c-0.05,0.01-0.11,0-0.16,0
			c0.09,0.01,0.18,0.02,0.27,0.04c-0.07-0.01-0.14-0.03-0.21-0.06c0.08,0.03,0.16,0.07,0.24,0.1c-0.15-0.07-0.28-0.16-0.43-0.23
			c-0.27-0.14-0.51-0.22-0.81-0.23c-0.27-0.01-0.55,0.06-0.79,0.19c-0.32,0.17-0.51,0.45-0.63,0.79c-0.08,0.24-0.02,0.56,0.1,0.77
			c0.12,0.21,0.36,0.41,0.6,0.46c0.26,0.06,0.54,0.05,0.77-0.1C522.5,76.61,522.64,76.41,522.73,76.16L522.73,76.16z"/>
	</g>
</g>
<g>
	<g>
		<path class="st5" d="M518.78,88.27c0.02-0.11,0.01-0.09-0.05,0.06c-0.1,0.11-0.11,0.13-0.04,0.05c-0.21,0.16-0.04,0.03,0.02,0
			c0.04-0.02,0.08-0.04,0.12-0.06c-0.14,0.06-0.15,0.06-0.03,0.02c0.09-0.03,0.17-0.06,0.26-0.09c0.41-0.14,0.84-0.24,1.27-0.32
			c0.04-0.01,0.36-0.05,0.14-0.02c0.1-0.01,0.21-0.02,0.31-0.03c0.21-0.02,0.42-0.03,0.63-0.03c0.21,0,0.42,0,0.63,0.02
			c0.11,0.01,0.21,0.02,0.32,0.03c0.06,0.01,0.12,0.01,0.18,0.02c-0.12-0.02-0.12-0.02,0,0c0.51,0.08,1.1-0.13,1.23-0.7
			c0.11-0.48-0.15-1.15-0.7-1.23c-1.16-0.18-2.3-0.17-3.45,0.05c-0.5,0.1-0.99,0.23-1.46,0.42c-0.57,0.23-1.2,0.61-1.3,1.29
			c-0.04,0.28-0.05,0.52,0.1,0.77c0.12,0.21,0.36,0.41,0.6,0.46C518.02,89.08,518.7,88.83,518.78,88.27L518.78,88.27z"/>
	</g>
</g>
<g>
	<g>
		<path class="st5" d="M518.63,87.04c-0.71,0.35-1.09,1.07-1.16,1.84c-0.02,0.23,0.12,0.55,0.29,0.71c0.2,0.19,0.43,0.27,0.71,0.29
			c1.42,0.12,2.89-0.47,3.88-1.49c0.28-0.29,0.36-0.72,0.21-1.09c-0.14-0.34-0.52-0.65-0.91-0.61c-1.25,0.11-2.43,0.44-3.55,1
			c-0.38,0.19-0.59,0.73-0.46,1.13c0.14,0.43,0.51,0.72,0.96,0.73c1.12,0.05,2.2-0.39,3.02-1.14c0.37-0.34,0.37-0.94,0.08-1.31
			c-0.13-0.17-0.31-0.31-0.52-0.36c-0.28-0.06-0.51-0.01-0.77,0.1c-0.61,0.26-1.04,0.84-1.25,1.46c-0.19,0.6,0.33,1.3,0.96,1.27
			c0.91-0.05,1.81-0.22,2.66-0.54c-0.26-0.61-0.51-1.22-0.77-1.83c-0.67,0.34-1.33,0.69-2,1.03c0.34,0.58,0.67,1.15,1.01,1.73
			c0.12-0.08,0.24-0.14,0.37-0.21c0.21-0.11-0.2,0.07,0.02-0.01c0.07-0.02,0.13-0.05,0.2-0.07c0.09-0.03,0.32-0.12,0.42-0.09
			c-0.04,0.01-0.08,0.01-0.13,0.02c0.04,0,0.07-0.01,0.11-0.01c0.08-0.01,0.17-0.01,0.25-0.01c-0.29-0.5-0.58-1-0.86-1.5
			c-0.12,0.18,0.15-0.15,0,0c-0.03,0.03-0.12,0.1-0.14,0.13c0.03-0.03,0.07-0.05,0.1-0.08c-0.03,0.02-0.07,0.05-0.11,0.07
			c-0.05,0.03-0.11,0.06-0.17,0.09c-0.38,0.18-0.59,0.74-0.46,1.13c0.14,0.44,0.51,0.71,0.96,0.73c0.3,0.01,0.6-0.03,0.88-0.13
			c-0.38-0.49-0.75-0.98-1.13-1.47c-0.06,0.1-0.12,0.21-0.18,0.31c-0.27,0.45-0.12,1.12,0.36,1.37c0.48,0.25,1.09,0.12,1.37-0.36
			c0.06-0.1,0.12-0.21,0.18-0.31c0.2-0.35,0.17-0.8-0.08-1.11c-0.23-0.29-0.68-0.5-1.05-0.36c-0.03,0.01-0.24,0.1-0.27,0.08
			c0.15-0.02,0.17-0.02,0.06-0.01c-0.05,0-0.09,0-0.14,0c0.17,0.62,0.34,1.24,0.5,1.86c0.43-0.2,0.76-0.54,1.02-0.92
			c0.43-0.64-0.14-1.51-0.86-1.5c-0.79,0.01-1.58,0.22-2.25,0.64c-0.44,0.28-0.66,0.9-0.36,1.37c0.31,0.47,0.87,0.62,1.37,0.36
			c0.67-0.34,1.33-0.69,2-1.03c0.44-0.23,0.59-0.81,0.41-1.25c-0.18-0.42-0.71-0.75-1.18-0.58c-0.37,0.14-0.75,0.25-1.14,0.34
			c-0.1,0.02-0.19,0.04-0.29,0.06c-0.06,0.01-0.39,0.08-0.1,0.02c-0.19,0.04-0.4,0.04-0.59,0.05c0.32,0.42,0.64,0.84,0.96,1.27
			c0.04-0.13-0.01,0.04-0.04,0.07c0.02-0.03,0.04-0.07,0.06-0.11c0.02-0.03,0.06-0.07,0.06-0.1c-0.02,0.07-0.14,0.16-0.02,0.04
			c0.03-0.03,0.06-0.05,0.09-0.08c0.08-0.08-0.16,0.1-0.06,0.05c0.08-0.04,0.15-0.09,0.24-0.13c-0.4-0.52-0.81-1.05-1.21-1.57
			c-0.03,0.03-0.06,0.06-0.1,0.09c-0.16,0.15,0.13-0.09,0.02-0.02c-0.08,0.05-0.16,0.11-0.24,0.16c-0.08,0.05-0.17,0.1-0.26,0.14
			c-0.03,0.01-0.17,0.07-0.03,0.02c0.16-0.07-0.04,0.01-0.06,0.02c-0.17,0.06-0.35,0.1-0.53,0.14c-0.12,0.03,0.23-0.02,0.04-0.01
			c-0.04,0-0.09,0.01-0.13,0.01c-0.11,0.01-0.22,0-0.32,0c0.17,0.62,0.34,1.24,0.5,1.86c0.11-0.05,0.22-0.11,0.33-0.16
			c0.04-0.02,0.26-0.14,0.03-0.01c0.05-0.03,0.11-0.05,0.17-0.07c0.24-0.09,0.48-0.17,0.72-0.24c0.23-0.07,0.47-0.12,0.7-0.17
			c0.07-0.01,0.14-0.03,0.21-0.04c0.03-0.01,0.24-0.03,0.08-0.01c-0.17,0.02,0.07-0.01,0.08-0.01c0.07-0.01,0.14-0.01,0.22-0.02
			c-0.24-0.57-0.47-1.14-0.71-1.71c-0.1,0.11-0.21,0.21-0.32,0.31c-0.14,0.13,0.17-0.12,0,0c-0.05,0.04-0.1,0.07-0.16,0.11
			c-0.12,0.08-0.24,0.14-0.36,0.21c-0.02,0.01-0.2,0.08-0.2,0.1c0-0.04,0.23-0.09,0,0c-0.12,0.04-0.24,0.08-0.36,0.12
			c-0.07,0.02-0.14,0.04-0.22,0.05c-0.06,0.01-0.17,0.01-0.22,0.04c0.05-0.01,0.09-0.01,0.14-0.02c-0.04,0-0.08,0.01-0.13,0.01
			c-0.06,0-0.13,0.01-0.19,0.01c-0.15,0-0.3,0-0.45-0.01c0.33,0.33,0.67,0.67,1,1c0,0.04-0.05,0.22-0.01,0.09
			c0.01-0.03,0.03-0.09,0.03-0.11c0,0.04-0.1,0.2-0.03,0.08c0.03-0.04,0.05-0.08,0.08-0.13c0.05-0.1-0.13,0.13-0.05,0.06
			c0.03-0.02,0.06-0.06,0.08-0.08c0.07-0.08-0.16,0.09-0.06,0.05c0.04-0.02,0.09-0.05,0.13-0.07c0.47-0.23,0.64-0.94,0.36-1.37
			C519.69,86.92,519.14,86.79,518.63,87.04L518.63,87.04z"/>
	</g>
</g>
<g>
	<g>
		<path class="st5" d="M516.14,88.32c0.54,0.97,1.46,1.59,2.48,1.98c0.5,0.19,1.03,0.3,1.56,0.38c0.52,0.08,1.08,0.21,1.61,0.17
			c0.76-0.07,1.32-0.5,1.54-1.24c0.16-0.54,0.23-1.11,0.35-1.66c0.11-0.53,0.32-1.14,0.28-1.68c-0.04-0.7-0.52-1.42-1.31-1.37
			c-0.52,0.04-1.03,0.43-1,1c0.02,0.51,0.44,1.04,1,1c-0.34-0.04-0.56-0.19-0.66-0.44c-0.03-0.08-0.03-0.08-0.01,0.01
			c-0.01-0.04-0.01-0.08-0.02-0.12c0,0.09,0,0.09,0.01,0.01c-0.01-0.18-0.03,0.11-0.04,0.16c-0.02,0.11-0.05,0.23-0.07,0.34
			c-0.09,0.42-0.17,0.83-0.26,1.25c-0.04,0.19-0.08,0.38-0.12,0.57c-0.02,0.11-0.04,0.21-0.07,0.32c-0.02,0.07-0.12,0.3,0.01,0.07
			c0.06-0.1,0.11-0.15,0.22-0.2c0.11-0.01,0.13-0.01,0.05-0.01c-0.04,0-0.09,0-0.13,0c-0.18,0-0.36-0.03-0.53-0.06
			c-0.04-0.01-0.24-0.03-0.11-0.01c-0.11-0.02-0.21-0.03-0.32-0.05c-0.18-0.03-0.35-0.06-0.53-0.1c-0.19-0.04-0.38-0.09-0.57-0.15
			c-0.09-0.03-0.17-0.05-0.25-0.08c-0.01,0-0.31-0.13-0.12-0.04c-0.14-0.07-0.28-0.13-0.41-0.21c-0.08-0.05-0.16-0.1-0.23-0.15
			c-0.24-0.15,0.12,0.12-0.09-0.06c-0.12-0.1-0.22-0.21-0.33-0.32c-0.18-0.2,0.08,0.14-0.07-0.08c-0.05-0.08-0.1-0.15-0.14-0.23
			c-0.26-0.46-0.92-0.65-1.37-0.36C516.04,87.25,515.87,87.83,516.14,88.32L516.14,88.32z"/>
	</g>
</g>
<g>
	<g>
		<path class="st5" d="M529.85,86.4c0.11,0.04,0.13,0.04,0.04,0.01c0.06,0.03,0.11,0.06,0.17,0.1c-0.13-0.09,0.1,0.11,0.13,0.14
			c0.04,0.05,0.04,0.05,0-0.01c0.04,0.06,0.08,0.11,0.11,0.17c0.03,0.06,0.07,0.12,0.09,0.18c-0.03-0.08-0.03-0.07,0.01,0.04
			c0.16,0.53,0.17,1.03,0.17,1.62c0,0.63,0.01,1.26,0.01,1.89c0,0.14,0,0.27-0.01,0.41c0,0.03-0.03,0.31,0,0.14
			c-0.02,0.13-0.05,0.27-0.1,0.38c0.04-0.09,0.03-0.08-0.03,0.02c0.06-0.07,0.05-0.06-0.03,0.02c-0.38,0.39-0.39,1.03,0,1.41
			c0.38,0.38,1.04,0.39,1.41,0c0.57-0.58,0.73-1.35,0.75-2.14c0.02-0.8,0-1.6-0.01-2.4c-0.01-0.83-0.09-1.66-0.46-2.41
			c-0.35-0.72-0.97-1.27-1.73-1.52c-0.51-0.17-1.09,0.2-1.23,0.7C529.01,85.71,529.34,86.23,529.85,86.4L529.85,86.4z"/>
	</g>
</g>
<g>
	<g>
		<path class="st5" d="M530.15,93.16C530.21,92.98,530.09,93.26,530.15,93.16c0.01-0.04,0.03-0.09,0.06-0.13
			c0.02-0.04,0.06-0.13,0.1-0.15c-0.05,0.02-0.11,0.13-0.02,0.03c0.16-0.18,0.33-0.35,0.5-0.51c0.39-0.38,0.75-0.8,1.04-1.27
			c0.58-0.95,0.88-2.1,0.84-3.22c-0.02-0.52-0.44-1.02-1-1c-0.52,0.02-1.02,0.44-1,1c0.01,0.12,0.01,0.24,0,0.37
			c0,0.08,0.03,0.3-0.02,0.36c0.03-0.04,0.03-0.17,0-0.02c-0.01,0.07-0.02,0.13-0.04,0.2c-0.02,0.12-0.05,0.24-0.09,0.36
			c-0.03,0.12-0.07,0.23-0.11,0.35c-0.01,0.02-0.07,0.19-0.02,0.07c0.05-0.13-0.04,0.08-0.05,0.1c-0.11,0.22-0.23,0.43-0.37,0.63
			c-0.03,0.04-0.06,0.09-0.09,0.13c0.05-0.07,0.07-0.09,0.01-0.01c-0.08,0.09-0.16,0.18-0.24,0.27c-0.16,0.16-0.32,0.32-0.48,0.48
			c-0.41,0.41-0.76,0.87-0.93,1.44c-0.16,0.5,0.18,1.11,0.7,1.23C529.47,93.98,529.99,93.69,530.15,93.16L530.15,93.16z"/>
	</g>
</g>
<g>
	<g>
		<path class="st5" d="M507.43,81.92c-1.26,2.46-1.16,5.52,0.37,7.85c0.3,0.45,0.89,0.64,1.37,0.36c0.45-0.26,0.66-0.91,0.36-1.37
			c-0.58-0.89-0.91-1.89-0.96-2.87c-0.06-1.08,0.14-2.07,0.6-2.96c0.25-0.48,0.13-1.09-0.36-1.37
			C508.35,81.3,507.68,81.44,507.43,81.92L507.43,81.92z"/>
	</g>
</g>
<g>
	<g>
		<path class="st5" d="M513.1,95.05c1.44,1.36,3.39,2.13,5.37,2.1c0.52-0.01,1.02-0.45,1-1c-0.02-0.53-0.44-1.01-1-1
			c-0.2,0-0.41,0-0.61-0.02c-0.1-0.01-0.21-0.01-0.3-0.03c0.27,0.07-0.06-0.01-0.11-0.02c-0.4-0.07-0.8-0.18-1.18-0.33
			c-0.05-0.02-0.1-0.04-0.14-0.06c0.12,0.05,0.13,0.06,0.03,0.01c-0.09-0.04-0.19-0.09-0.28-0.13c-0.18-0.09-0.36-0.19-0.53-0.3
			c-0.09-0.05-0.17-0.11-0.26-0.17c-0.04-0.03-0.32-0.22-0.11-0.07c-0.16-0.12-0.32-0.26-0.46-0.4c-0.38-0.36-1.04-0.41-1.41,0
			C512.74,94.03,512.69,94.67,513.1,95.05L513.1,95.05z"/>
	</g>
</g>
<g>
	<g>
		<path d="M519.35,72.58c-1.29-1.21-3.11-1.75-4.84-1.24c-1.84,0.55-2.94,2.25-4.54,3.19c-1.47,0.86-3.17,1.44-4.26,2.82
			c-0.57,0.72-0.78,1.51-0.98,2.39c-0.26,1.14-0.85,2.08-1.26,3.17c-0.7,1.86-0.7,4-0.01,5.87c0.71,1.93,2.17,3.41,3.55,4.88
			c3.01,3.18,6.49,5.22,10.97,5.22c1.98,0,5.04-0.15,6.58-1.57c1.78-1.64,0.99-4.15-0.1-5.91c-0.68-1.09-2.41-0.09-1.73,1.01
			c0.59,0.95,1.58,2.69,0.3,3.56c-0.75,0.51-1.99,0.63-2.87,0.76c-1.97,0.29-4.02,0.2-5.93-0.39c-2.15-0.66-3.83-2.03-5.38-3.62
			c-1.38-1.41-2.98-2.9-3.61-4.83c-0.67-2.06-0.12-3.86,0.77-5.74c0.45-0.95,0.51-1.97,0.9-2.93c0.34-0.84,1.05-1.33,1.81-1.77
			c1.4-0.8,2.79-1.43,4.01-2.51c1.52-1.35,3.32-2.68,5.18-0.94C518.88,74.87,520.29,73.46,519.35,72.58L519.35,72.58z"/>
	</g>
</g>
<g>
	<g>
		<path d="M524.99,96.3c1.71-0.4,3.44-0.92,4.58-2.34c1.03-1.29,1.4-2.91,1.6-4.52c0.1-0.83,0.24-1.7,0.12-2.53
			c-0.13-0.93-0.7-1.58-1.18-2.34c-0.53-0.83-0.93-1.72-1.21-2.66c-0.25-0.83-0.48-1.62-1.12-2.25c-0.91-0.91-2.33,0.5-1.41,1.41
			c0.48,0.48,0.55,1.26,0.76,1.87c0.24,0.71,0.55,1.4,0.91,2.06c0.35,0.63,0.89,1.2,1.18,1.85c0.27,0.62,0.07,1.48,0,2.14
			c-0.13,1.22-0.35,2.57-1.09,3.58c-0.86,1.17-2.34,1.49-3.67,1.8C523.21,94.67,523.74,96.6,524.99,96.3L524.99,96.3z"/>
	</g>
</g>
<g>
	<g>
		<path d="M518.74,73.75c0.52-0.39,1.28-0.13,1.87-0.01c0.77,0.15,1.54,0.35,2.29,0.59c1.36,0.43,2.7,0.9,2.96,2.47
			c0.25,1.51,0.09,3.18-0.21,4.67c-0.33,1.62-0.96,3.21-0.78,4.89c0.06,0.54,0.42,0.99,1,1c0.5,0.01,1.06-0.46,1-1
			c-0.21-1.93,0.69-3.85,0.93-5.75c0.23-1.79,0.4-3.98-0.45-5.64c-0.82-1.58-2.68-2.2-4.28-2.67c-0.91-0.27-1.84-0.49-2.79-0.63
			c-0.88-0.14-1.8-0.19-2.55,0.37c-0.44,0.32-0.65,0.86-0.36,1.37C517.62,73.82,518.31,74.07,518.74,73.75L518.74,73.75z"/>
	</g>
</g>
</svg>
