<?xml version="1.0" encoding="utf-8"?>
<!-- Generator: Adobe Illustrator 28.0.0, SVG Export Plug-In . SVG Version: 6.00 Build 0)  -->
<svg version="1.1" xmlns="http://www.w3.org/2000/svg" xmlns:xlink="http://www.w3.org/1999/xlink" x="0px" y="0px"
	 viewBox="0 0 129 429" style="enable-background:new 0 0 129 429;" xml:space="preserve">
<style type="text/css">
	.st0{fill:#F0EEEC;}
	.st1{fill:#8F8F84;}
	.st2{fill:#8B867B;}
	.st3{fill:#B7A79A;}
	.st4{fill:#C5AAAB;}
	.st5{fill:#C8B1A5;}
	.st6{fill:#AC574E;}
	.st7{fill:#443337;}
	.st8{fill:#3D6397;}
	.st9{fill:#92959D;}
</style>
<g id="Layer_1">
</g>
<g id="Layer_2">
	<g>
		<g>
			<path class="st7" d="M44.94,56.31c-3.99-4.5-4.87-14.39-1.29-19.39c2-2.79,4.68-5.11,6.75-7.87c1.86-2.48,3.03-6.35,5.58-8.1
				c2.62-1.8,6.92-1.98,9.98-2.29c4.11-0.41,6.94-0.42,10.65,1.44c7.92,3.99,17.42,4.1,26.07,5c-1.77-4.27-3.54-8.54-5.3-12.8
				c-4.65,5.32-9.27,10.67-13.96,15.96c-4.67,5.27-8.87,7.47-15.49,9.62c-6.08,1.97-11.07,4.77-16.45,8.15
				c-4.76,2.99-10.59,4.01-13.22,9.55c-2.97,6.26,3.44,14.68,10.26,10.26c2.57-1.66,5.14-3.33,7.71-4.99
				c2.69-1.74,2.94-2.12,6.14-1.91c5.23,0.33,10.49-1.47,14.48-4.86c3.86-3.28,5.84-7.71,7.44-12.41c1.81-5.33,3.56-8.37,8.25-11.71
				c5.95-4.23,4.02-13.7-3.79-13.98c-12.05-0.43-25.4-2.74-36.47,3.22c-10.85,5.84-16.56,17.26-17.34,29.21
				c-0.41,6.28,6.54,8.53,11.29,6.48c6.13-2.66,11.69-6.15,16.85-10.4c2.15-1.77,4.45-5.24,6.84-6.53
				c-1.65,0.89-0.72,0.52,0.92,0.92c1.83,0.45,3.64,0.71,5.52,0.79c9.65,0.4,9.63-14.6,0-15c-3.57-0.15-6.66-1.86-10.35-1.08
				c-3.8,0.8-6.11,3.25-8.72,5.89c-5.38,5.42-11.64,9.43-18.63,12.46c3.76,2.16,7.52,4.32,11.29,6.48
				c0.5-7.6,4.81-14.74,12.24-17.26c3.75-1.27,7.78-0.85,11.67-0.71c4.96,0.17,9.93,0.35,14.89,0.53
				c-1.26-4.66-2.52-9.32-3.79-13.98c-4.3,3.06-8.51,6.21-11.24,10.83c-2.49,4.2-2.75,9.88-5.62,13.77
				c-3.02,4.09-7.57,1.23-11.68,2.2c-5.54,1.32-10.77,6.04-15.47,9.08c3.42,3.42,6.84,6.84,10.26,10.26
				c-0.65,0.05-0.62-0.06,0.09-0.33c0.36-0.22,0.74-0.42,1.14-0.59c1.16-0.66,2.51-1.01,3.72-1.61c2.76-1.37,5.16-3.28,7.79-4.87
				c4.88-2.96,10.59-4,15.82-6.17c12.03-4.97,19.91-17.16,28.23-26.68c4.52-5.16,1.21-12.13-5.3-12.8
				c-5.44-0.56-11.26-0.72-16.53-2.27c-5.31-1.57-9.03-4.49-14.93-4.51c-10-0.04-22.62,1.6-28.85,10.33
				c-2.58,3.62-4.5,7.2-7.49,10.55c-3.2,3.58-6.16,7.41-7.31,12.17C25,46.96,27.08,58.74,34.33,66.92
				C40.75,74.16,51.33,63.52,44.94,56.31L44.94,56.31z"/>
		</g>
	</g>
	<g>
		<g>
			<path class="st5" d="M54.71,77.69c7.66-3.05,15.31-6.1,22.97-9.15c7.37-2.94,14.17-6.89,9.96-15.88
				c-1.49,3.67-2.99,7.34-4.48,11.02c8.55-3.6,17.17-7.65,21.62-16.3c3.79-7.38-5.56-15.35-11.78-9.09
				c-2.61,2.63-4.91,5.62-5.2,9.46c-0.27,3.5,1.02,6.55,2.17,9.79c0.28,0.8,0.56,1.59,0.84,2.39c0.38-1.06,0.17-0.84-0.61,0.64
				c-0.8,1.35-1.25,2.9-1.54,4.42c-0.54,2.79-1.12,3.62-2.91,5.89c-0.94,1.18-1.96,2.42-2.73,3.73c-2.51,4.26,1.98-0.06,1.93,0.5
				c0.1-1.21-5.27-2.27-6.69-2.87c-2.65-1.13-4.82-3.4-7.71-4.45c-3.79-1.38-7.26-1.29-11.18-0.74c1.33,4.82,2.66,9.64,3.99,14.46
				c10.55-3.46,22.23-3.8,30.08-12.71c-3.93-3.03-7.85-6.06-11.78-9.09c-2.61,5.81-8.45,9.26-11.1,15.17
				c-2.85,6.37-2.27,14.92,5.43,17.16c9.29,2.69,13.26-11.78,3.99-14.46c-0.32-0.09-0.63-0.18-0.95-0.27
				c1.49,1.15,2.99,2.3,4.48,3.45c-0.18-0.36-0.35-0.72-0.53-1.09c0.34,1.26,0.68,2.52,1.02,3.79c-0.3-3.32,2.12-5.24,4.23-7.49
				c2.49-2.64,4.87-5.35,6.36-8.68c1.55-3.45,1.23-7.23-1.93-9.68c-2.79-2.15-7.37-2.23-9.85,0.59c-5.73,6.51-15.72,6.32-23.46,8.86
				c-9.42,3.09-5.36,15.77,3.99,14.46c2.96-0.41,5.45,2.99,7.8,4.12c2.5,1.21,5.21,1.82,7.76,2.96c7.17,3.21,13.04,0.73,16.75-5.82
				c1.45-2.56,3.68-4.54,5.19-7.07c1.57-2.64,1.64-5.63,2.71-8.18c1.58-3.76,3.04-6.09,2.12-10.32c-0.33-1.51-1-2.98-1.52-4.44
				c-0.38-1.06-0.75-2.13-1.13-3.19c-0.91,0.8-0.72,0.58,0.58-0.67c-3.93-3.03-7.85-6.06-11.78-9.09
				c-2.56,4.98-7.68,7.31-12.65,9.41c-4.72,1.99-6.74,6.2-4.48,11.02c0.16,0.34,0.32,0.69,0.48,1.03c-0.25-1.93-0.5-3.85-0.76-5.78
				c1.7-2.26,1.46-2.73-0.72-1.4c-1.18,0.47-2.36,0.94-3.53,1.41c-2.06,0.82-4.12,1.64-6.18,2.46c-4.42,1.76-8.83,3.52-13.25,5.28
				c-3.75,1.49-6.42,5.02-5.24,9.23C46.48,76.02,50.91,79.2,54.71,77.69L54.71,77.69z"/>
		</g>
	</g>
	<g>
		<g>
			<path class="st5" d="M100.02,41.86c5.79,0,5.8-9,0-9C94.23,32.86,94.22,41.86,100.02,41.86L100.02,41.86z"/>
		</g>
	</g>
	<g>
		<g>
			<path class="st5" d="M36.33,325.26c-0.88,6.04,3.22,10.18,9.29,9.28c-1.69-0.69-3.39-1.38-5.08-2.07
				c0.13,0.23,0.27,0.45,0.4,0.67c-0.15-1.16-0.3-2.31-0.45-3.47c1.13-1.32,1.02-1.57-0.33-0.75c-0.75,0.38-1.45,0.85-2.09,1.4
				c-0.77,0.83-1.39,2.19-1.64,3.28c-0.72,3.12,0.49,6.04,1.55,8.9c1.13,3.05-0.23,5.69,0.82,8.57c0.88,2.41,3.27,3.91,5.82,3.94
				c7.24,0.08,7.57-8.3,6.26-13.44c-0.18-0.75-0.41-1.48-0.68-2.2c-0.21-1.15-0.52-0.98-0.92,0.53c1.34-0.09,3.06-0.87,4.18-1.57
				c2.33-1.45,3.51-3.63,3.52-6.34c-1.5,1.5-3,3-4.5,4.5c2.93-0.35,5.86-0.6,8.81-0.65c1.91-0.03,6.55-0.71,8.17,0.36
				c-0.69-0.9-1.38-1.79-2.07-2.69c0.15-1.1-0.01-0.62-0.49,1.46c-0.36,1.27-0.73,2.54-1.09,3.82c-0.55,1.91-1.09,3.82-1.64,5.73
				c-1.04,3.62-1.85,7.57-4.23,10.59c-1.25,1.58-1.81,3.59-0.7,5.45c0.23,0.38,0.45,0.76,0.68,1.14c1.69-2.2,3.39-4.41,5.08-6.61
				c-3.88-0.75-9.97,0.67-10.23-4.51c-0.16-3.12,1.09-8.26,3.86-9.96c0.8-0.52,1.67-0.77,2.62-0.75c0.62-1.77,0.47-1.81-0.47-0.14
				c-1.04,1.1-1.82,2.7-2.55,4c-1.98,3.58-3.4,7.42-4.37,11.39c2.89,0.8,5.79,1.6,8.68,2.39c0.44-2.47,0.79-4.93,0.72-7.45
				c-0.03-1.1-0.13-2.19-0.27-3.29c-0.06-0.5-0.14-0.99-0.22-1.49c0.04-1.5-0.97-2.03-3.04-1.58c4.59,3.53,9.08-4.29,4.54-7.77
				c-3.15-2.43-7.72-1-9.74,2.22c-2.93,4.68,0.26,11.7-0.68,16.97c-1,5.61,7.28,8.1,8.68,2.39c1.06-4.31,2.69-8.2,5.11-11.94
				c1.97-3.04,4-6.02,2.28-9.72c-2.99-6.43-12.05-5.81-16.9-2.24c-5.7,4.19-8.13,13.27-7.07,20.05c1.46,9.33,9.36,8.71,16.64,10.11
				c3.71,0.72,7.21-3.04,5.08-6.61c-0.23-0.38-0.45-0.76-0.68-1.14c-0.23,1.82-0.47,3.64-0.7,5.45c2.71-3.42,4.33-7.06,5.59-11.22
				c1.54-5.08,4.25-11.09,4.51-16.39c0.52-10.38-17.9-7.06-23.92-6.35c-2.43,0.29-4.49,1.83-4.5,4.5c0.01-2.77-5.92,1.96-6.63,3.47
				c-0.75,1.58-0.7,3.06-0.3,4.72c0.25,1.04,0.65,2.02,0.94,3.05c0.16,0.49,0.28,0.99,0.38,1.49c0.06,1.41,1.08,1.83,3.05,1.27
				c0.69,0.9,1.38,1.79,2.07,2.69c-0.23-0.59,0.49-4.37,0.08-6.02c-0.62-2.44-2.91-5.4-1.96-7.96c-0.69,0.9-1.38,1.79-2.07,2.69
				c3.65-2.16,7.69-4.58,4.79-9.47c-1.12-1.89-3.06-2.37-5.08-2.07c0.59,0.6,1.19,1.19,1.78,1.79
				C45.82,321.99,37.15,319.55,36.33,325.26L36.33,325.26z"/>
		</g>
	</g>
	<g>
		<g>
			<path class="st0" d="M46.57,368.07c5.17,5.07,11.37,3.24,17.85,3.94c-1.3-2.26-2.59-4.51-3.89-6.77c-1.88,2.63-3,5.8-2.99,9.06
				c0,1.58,0.79,3.43,0.43,4.98c-0.13,0.54-0.76,1.73-1.18,2.1c1.39-1.23-0.28-1.33-1.25-0.84c-1.35-0.12-1.03,0.43,0.96,1.63
				c1.2,1.99,1.75,2.3,1.65,0.92c0.31-0.58,0.11-2.09,0.15-2.76c0.09-1.75,0.29-3.53,0.26-5.28c-0.06-3.12-1.04-5.46-3.66-7.23
				c-4.81-3.26-9.32,4.54-4.54,7.77c-0.62-1.2-0.88-1.38-0.8-0.54c0,0.61-0.03,1.22-0.08,1.83c-0.04,0.92-0.1,1.84-0.15,2.76
				c-0.11,2.08-0.58,4.41,0.18,6.4c1.49,3.93,5.78,3.71,9.3,3.31c3.93-0.45,6.02-3.02,7.4-6.59c1.75-4.52-0.89-8.82,2.09-12.99
				c2.2-3.07-0.86-6.45-3.89-6.77c-3.36-0.36-8.84,1.3-11.49-1.3C48.8,357.64,42.43,364,46.57,368.07L46.57,368.07z"/>
		</g>
	</g>
	<g>
		<g>
			<path class="st0" d="M38.5,357.56c-0.85,3.98,0.91,6.28,2.7,9.63c1.54,2.88,2.08,6.14,3.85,8.92c3.11,4.87,10.9,0.36,7.77-4.54
				c-1.23-1.93-1.78-4.06-2.62-6.17c-0.43-1.08-0.88-2.15-1.46-3.16c-0.2-0.35-1.61-2.14-1.57-2.29
				C48.38,354.3,39.71,351.89,38.5,357.56L38.5,357.56z"/>
		</g>
	</g>
	<g>
		<g>
			<path class="st0" d="M42.55,362.58c5.79,0,5.8-9,0-9C36.76,353.58,36.75,362.58,42.55,362.58L42.55,362.58z"/>
		</g>
	</g>
	<g>
		<g>
			<path class="st7" d="M48.7,398.01c3.79,0.52,7.38,0.74,11.19,0.23c4.37-0.59,5.5,1.38,8.78,4.02
				c5.62,4.52,11.58,8.32,17.79,11.96c1.04,0.61,3.68,1.66,4.03,2.78c0.6-0.63,0.51-0.85-0.26-0.69c-0.85-0.01-1.7-0.06-2.54-0.16
				c-4.08-0.33-8.13-0.93-12.16-1.64c-7.24-1.27-16.03-2.07-22.79-5.02c-2.74-1.2-5.49-5.31-1.97-7.29
				c2.59-1.46,8.91,1.22,11.62,2.02c3.27,0.96,7.01,1.76,9.92,3.6c2.57,1.63,4.36,4.17,6.7,6.08c0.94,0.77,2.29,1.91,3.45,2.27
				c1.16,1.17,1.98,0.92,2.46-0.74c1.65-1.31,1.41-1.95-0.7-1.91c-2.42-1.71-7.62-2.37-10.47-3.28c-3.47-1.11-6.96-2.17-10.54-2.82
				c-4.48-0.81-7.42,0.01-8.89-4.99c-1.05,1.85-2.1,3.69-3.14,5.54c8.69-2.37,18.79,4.66,25.79,8.92c4.96,3.02,9.49-4.76,4.54-7.77
				c-9.31-5.67-21.34-12.93-32.72-9.83c-2.32,0.63-3.83,3.2-3.14,5.54c0.95,3.25,2.18,6.52,4.99,8.61c3.8,2.81,9.3,2.34,13.73,3.44
				c4.73,1.17,9.3,2.88,13.96,4.3c3.74,1.15,8.25,2.92,12.05,0.99c2.73-1.39,4.08-4.63,3.16-7.56c-1.37-4.38-6.07-5.37-9.23-7.98
				c-3.06-2.53-5.25-5.51-8.89-7.34c-4.34-2.18-9.28-3.42-13.95-4.67c-7.69-2.07-17.48-3.78-20.57,5.83
				c-2.39,7.44,1.76,14.92,8.9,17.59c9.28,3.48,20.24,4.86,30.02,6.22c6.13,0.85,18.73,3.65,20.28-5.46
				c1.58-9.27-12.9-14.27-18.76-18.26c-4.7-3.2-8.65-7.4-13.28-10.6c-2.13-1.47-3.73-1.55-6.23-1.17c-3.71,0.55-6.93,1.1-10.71,0.58
				C45.43,388.56,42.98,397.23,48.7,398.01L48.7,398.01z"/>
		</g>
	</g>
	<g>
		<g>
			<path class="st7" d="M38.2,379.34c0.5,1.77,0.74,3.1,0.57,4.94c-0.19,2.1,0.31,4.38,1.99,5.79c2.05,1.72,5.69,1.9,7.07-0.91
				c1.32-2.7,1.62-5.2,1.17-8.15c-0.37-2.4-3.39-3.73-5.54-3.14c-2.57,0.7-3.52,3.12-3.14,5.54c0.05,0.33-0.1,0.89-0.26,1.22
				c2.36-0.3,4.71-0.61,7.07-0.91c0.45,1.92,0.65,2.35,0.59,1.28c0.02-0.32,0.04-0.63,0.09-0.94c0.06-0.67,0.12-1.31,0.07-1.98
				c-0.12-1.75-0.51-3.43-0.99-5.11C45.3,371.39,36.61,373.75,38.2,379.34L38.2,379.34z"/>
		</g>
	</g>
	<g>
		<g>
			<path class="st7" d="M69.65,385.78c2.75,0.33,5.47,0.86,8.15,1.55c1.29,0.33,6.05,1.31,6.54,1.92c-0.23-1.82-0.47-3.64-0.7-5.45
				c-0.1,0.22-0.19,0.45-0.29,0.67c0.9-0.69,1.79-1.38,2.69-2.07c-2.3,0.93-5.04,0.95-7.5,1.07c-2.4,0.12-3.83,0.69-5.35-1.11
				c-3.75-4.42-10.09,1.97-6.36,6.36c3.18,3.75,7.05,3.97,11.72,3.74c3.86-0.18,11.05,0.12,12.87-4.14c0.88-2.07,0.68-3.71-0.7-5.45
				c-1.9-2.39-6.51-3.14-9.29-3.91c-3.86-1.07-7.79-1.72-11.76-2.19C63.92,376.1,63.96,385.1,69.65,385.78L69.65,385.78z"/>
		</g>
	</g>
	<g>
		<g>
			<path class="st7" d="M84.67,250.46c-1.77,11.59-3.15,23.99-6.89,35.14c-1.85,5.51-4.31,10.13-4.99,16.01
				c-0.73,6.29-1.07,12.65-1.58,18.97c3-3,6-6,9-9c-4.4,0.54-8.66,0.09-13.04-0.37c-4.13-0.43-8.61-0.43-12.61-1.53
				c1.32,0.77,2.65,1.54,3.97,2.31c-4.64-5.02-4.43-10.47-4.2-16.82c0.23-6.42-2.56-12.16-2.53-18.35c0.01-2.94,0.35-5.69-0.38-8.6
				c-0.33-1.34-0.84-2.78-1.5-4c-0.63-1.03-1.34-2.01-2.13-2.93c0.19,0.64,0.38,1.28,0.58,1.92c-0.16-0.1-0.67-5.87-0.67-5.92
				c-0.29-1.76-0.68-3.47-1.22-5.17c-1.19-3.81-1.6-4.69-0.27-8.63c-4.41,1.79-8.81,3.59-13.22,5.38
				c16.56,7.4,35.18,6.31,52.08,12.59c-1.79-1.38-3.59-2.76-5.38-4.14c0.22,0.32,0.45,0.63,0.67,0.95
				c2.59-4.51,5.18-9.03,7.77-13.54c-9.94,0.9-19.88,1.45-29.87,1.37c-4.92-0.04-10.75-1.13-15.27,1.34
				c-4.21,2.3-6.44,6.82-6.26,11.54c0.41,10.53,9.74,16.5,19.27,17.68c10.2,1.26,19.58-0.85,29.52-2.66c-1.6,0-3.19,0-4.79,0
				c0.4,0.12,0.8,0.24,1.2,0.36c-1.79-1.38-3.59-2.76-5.38-4.14c0.21,0.38,0.42,0.75,0.63,1.13c-0.41-1.51-0.82-3.03-1.23-4.54
				c0.22,1.68,0.43,1-0.93,2.69c-0.31,0.39-2.7,2.04-1.23,1.97c-0.68,0.03-2.21-1.24-2.66-1.52c-1.87-1.16-3.63-2.23-5.72-2.99
				c-7.42-2.74-19.36-0.87-24.18,5.9c-5.47,7.68,1.72,19.41,7.54,25.08c3.34,3.26,7.44,4.6,11.94,5.17c3.5,0.44,8.1-0.41,11.35,0.56
				c-1.32-0.77-2.65-1.54-3.97-2.31c0.07,0.04,0.14,0.07,0.21,0.11c-0.41-1.51-0.82-3.03-1.23-4.54c0.12,1.48-2.48,3.74-3.41,5.14
				c0.45,0.05,0.91,0.1,1.36,0.15c-1.19-0.29-2.38-0.61-3.56-0.95c-1.36-0.37-3.08-0.54-4.31-1.15c1.38,1.79,2.76,3.59,4.14,5.38
				c-1.05-2.93,1.47-7.58,2.42-10.39c1.39-4.12,2.62-8.35,4.27-12.38c-0.77,1.32-1.54,2.65-2.31,3.97c0.3-0.34,0.6-0.67,0.9-1.01
				c-1.32,0.77-2.65,1.54-3.97,2.31c-0.48,0.18-0.61-0.37-0.36-0.08c1,1.12-0.84-5.67-0.4-1.93c0.57,4.83,3.73,9,9,9
				c4.42,0,9.57-4.14,9-9c-0.87-7.39-5-13.01-12.32-15.25c-7.42-2.27-14.32,0.45-17.16,7.85c-2.54,6.6-5.32,13.74-6.67,20.7
				c-0.71,3.66-0.97,7.43,0.25,11c1.54,4.48,5.04,6.09,9.25,7.37c7.7,2.34,15.52,4.12,22.11-1.78c4.63-4.15,9.72-11.28,9.89-17.71
				c0.24-8.64-7.31-12.6-14.88-12.62c-2.31,0-6.6,0.72-8.74-0.38c-1.15-0.59-4.37-5.6-4.25-6.85c-0.88,2.12-1.76,4.24-2.64,6.36
				c1.8-1.95,5.05-0.61,7.38,0.82c3.72,2.29,7.6,4.09,12.09,3.84c8.72-0.48,17.02-8.43,19.33-16.66c1.26-4.5,0.67-9.92-2.78-13.36
				c-4.29-4.29-9.84-2.65-14.98-1.51c-4.81,1.06-9.7,1.47-14.62,1.29c-2.07-0.08-3.81-0.6-5.79-0.85c-2.49-0.31,1.34-2.07-1.09,2.28
				c-1.08,1.08-2.15,2.15-3.23,3.23c-0.96,0.19-0.84,0.26,0.36,0.2c0.99,0.04,1.98,0.06,2.97,0.09c1.32,0.03,2.64,0.05,3.96,0.06
				c3.63,0.03,7.26-0.01,10.88-0.13c6.34-0.2,12.66-0.67,18.98-1.24c6.13-0.55,12.08-7.46,7.77-13.54c-3.4-4.8-7.48-5.58-12.91-6.83
				c-4.72-1.08-9.42-2.21-14.15-3.22c-8.97-1.92-18.26-2.02-26.77-5.81c-5.48-2.45-11.22-0.57-13.22,5.38
				c-1.94,5.74-2.29,10.76-0.31,16.53c1.61,4.68,1.06,10.74,3.49,15c0.58,1.01,1.69,1.8,2.16,2.85c-0.32-0.72-0.28-0.91-0.22,0.23
				c0.11,2.11-0.31,4.21-0.16,6.33c0.36,5.04,2.69,9.58,2.57,14.64c-0.27,11.04,0.8,21.68,9.05,30.05
				c4.22,4.28,11.37,3.79,16.94,4.38c5.92,0.63,11.89,1.61,17.84,0.88c5.15-0.63,8.57-3.63,9-9c0.46-5.71,0.71-11.5,1.4-17.19
				c0.62-5.15,3.57-9.61,5.01-14.54c3.18-10.85,4.71-22.44,6.42-33.6c0.73-4.8-1.21-9.68-6.29-11.07
				C91.48,243,85.41,245.62,84.67,250.46L84.67,250.46z"/>
		</g>
	</g>
	<g>
		<g>
			<path class="st3" d="M40.56,92.05c4.24,0.75,9.2,1.28,12.73,4.01c2.46,1.9,4.4,4.55,6.25,7.01c5.4,7.17,10.44,13.2,18.98,16.61
				c1.6-5.79,3.19-11.57,4.79-17.36c-2.64-0.65-6.03-1.74-7.4-4.28c-0.77-1.43-0.31-4.12-0.79-5.79c-0.67-2.33-1.95-4.67-3.64-6.43
				c-6.6-6.87-17.86-4.24-20.72,4.79c-2.27,7.15,1.22,15.57,5.39,21.34c5.41,7.49,12.91,13.7,22.17,8.55
				c-1.51,0.41-3.03,0.82-4.54,1.23c0.34,0.01,0.68,0.02,1.02,0.03c-1.51-0.41-3.03-0.82-4.54-1.23c4.92,2.22,5.6,11.05,7.16,15.6
				c2.73,7.96,6.16,15.69,9.85,23.25c3.37,6.9,7.01,13.67,10.56,20.47c1.91,3.67,3.81,7.35,5.63,11.06
				c1.57,3.2,3.92,6.94,4.79,10.42c0.53,2.11,0.2,0.4-0.2,2.49c-0.5,2.54-1.61,5.12-2.38,7.59c-1.29,4.11-2.58,8.22-3.87,12.33
				c-0.29,0.93-0.9,3.96-1.23,4.22c0.8-0.62-0.79,0-1.41-0.01c-3.94-0.08-7.78-0.34-11.68-0.92c-7.86-1.17-17.19-1.27-24.56-4.41
				c-3.87-1.65-7.3-3.97-11.47-4.97c-4.28-1.03-8.41-0.25-12.65-0.73c1.51,0.41,3.03,0.82,4.54,1.23c1.4,3.63,2.02,4.23,1.84,1.8
				c0.15-0.64,0.28-1.28,0.39-1.92c0.36-2.42,0.86-4.81,1.21-7.23c0.64-4.42,1.15-8.87,1.44-13.33c0.61-9.46,0.28-18.95-0.9-28.35
				c-1.17-9.3-2.99-18.47-5.8-27.43c-1.4-4.46-3.07-8.83-4.62-13.24c-1.31-3.73-3.85-9.04-3.46-12.85
				c-0.41,1.51-0.82,3.03-1.23,4.54c0.46-0.86,2.39-2.39,3.28-3.46c1.79-2.14,3.36-4.4,4.74-6.82c1.96-3.42,3.75-8.74,6.45-11.17
				c-1.32,0.77-2.65,1.54-3.97,2.31c-0.03,0.02-0.07,0.04-0.1,0.07c-1.51-0.41-3.03-0.82-4.54-1.23c0.8,0.31,1.56,0.69,2.3,1.12
				c0.59,0.22,0.38-0.06-0.64-0.84c0-1.6,0-3.19,0-4.79c-0.61,2.37-2.75,4.77-4.07,6.85c-1.58,2.5-3.16,5-4.74,7.51
				c-3.13,4.96-6.31,9.9-9.4,14.88c-5.97,9.63-9.2,20.11-10.51,31.34c-1.33,11.43,3.03,19.93,11.31,27.51
				c7.47,6.84,15.61,13.53,25.84,15.44c4.77,0.89,9.71-1.32,11.07-6.29c1.2-4.38-1.48-10.18-6.29-11.07
				c-7.51-1.4-13.02-6.29-18.48-11.34c-2.62-2.43-5.3-4.65-5.73-8.36c-0.5-4.25,0.85-8.78,1.8-12.87
				c2.14-9.19,7.26-16.45,12.24-24.33c2.46-3.89,4.92-7.78,7.38-11.67c2.72-4.3,6.52-8.81,7.09-14.02
				c0.96-8.69-8.6-16.97-17.1-15.84c-8.83,1.18-11.91,11.74-15.83,18.35c-1.61,2.71-3.67,4.51-5.73,6.83
				c-3.69,4.15-3.53,9.12-2.35,14.22c2.12,9.1,6.1,17.66,8.72,26.61c5.12,17.48,6.65,35.73,4.8,53.84
				c-0.8,7.88-4.92,17.68-0.97,25.22c2.21,4.21,6.08,6.57,10.82,6.84c4.65,0.27,7.69-0.24,12,2c8.38,4.35,17.11,5.28,26.33,6.67
				c8.7,1.31,18.39,3.71,27.13,1.52c10.51-2.64,12.72-12.31,15.58-21.4c2.61-8.32,7.87-18.46,4.97-27.23
				c-3.12-9.46-8.45-18.56-13.05-27.35c-4.52-8.62-9.13-17.21-13.12-26.09c-3.81-8.47-5.79-17.54-9.47-26.02
				c-3.86-8.9-12.65-16.93-22.45-11.14c1.51-0.41,3.03-0.82,4.54-1.23c-0.47-0.03-0.94-0.05-1.41-0.08
				c1.51,0.41,3.03,0.82,4.54,1.23c-2.22-1.3-3.91-3.36-5.2-5.58c-0.66-1.14-0.98-2.35-1.56-3.5c-1.59-3.12,2.34-0.35-2.28,1.83
				c-1.51,0.41-3.03,0.82-4.54,1.23c0.03,0.04,0.06,0.09,0.09,0.13c-1.32-0.77-2.65-1.54-3.97-2.31c0-0.79,0.04-0.83,0.12-0.13
				c0.09,0.44,0.15,0.89,0.19,1.34c0.3,1.63,0.32,3.3,0.84,4.89c0.9,2.76,2.5,5.27,4.48,7.39c4.01,4.3,9.52,7.14,15.17,8.53
				c11.51,2.83,15.32-13.15,4.79-17.36c-5.82-2.33-9.73-10.75-13.6-15.24c-6.47-7.51-14.81-10.71-24.36-12.39
				c-4.78-0.84-9.7,1.29-11.07,6.29C33.08,85.33,35.75,91.2,40.56,92.05L40.56,92.05z"/>
		</g>
	</g>
	<g>
		<g>
			<path class="st3" d="M48.75,115.95c8.62,5.39,18.68,11.24,22.97,21c2.43,5.53,1.4,11.77,2.28,17.61
				c0.87,5.76,3.08,11.18,5.86,16.28c5.44,10.01,12.21,19.22,17.6,29.29c0.73,1.36,1.45,2.73,2.17,4.1
				c1.36,2.58,0.67,2.06,1.04,1.05c0.93-2.55-1.64,1.32-1.96,1.73c-0.71,0.94-1.46,1.84-2.23,2.72c-3.67,4.25-7.79,8.1-12.37,11.35
				c-7.23,5.12-4.74,16.32,4.54,16.77c10.85,0.53,15.37-8.14,20.64-15.84c2.62-3.83,5.3-7.04,4.03-12.05
				c-1.27-5.01-5.81-8.59-10.86-8.97c-9.09-0.69-16.01,6.18-23.24,10.58c-7.08,4.31-16.23,3.2-23.02-1.49
				c-2.47-1.7-2.36-3.91-2.42-6.83c-0.11-5.37,0.04-10.76,0.06-16.13c0.03-10.42-0.04-20.85-0.81-31.25
				c-0.37-5.02-0.93-10.02-1.63-15.01c-0.29-2.03-1.64-6.56-0.22-8.29c1.26-1.54,4.66-1.7,6.26-0.79c3.52,2,6.19,7.76,8.18,11.1
				c5.55,9.29,9.11,19.49,13,29.54c2.01,5.21,4.12,10.39,5.82,15.72c0.86,2.69,1.59,5.41,2.18,8.18c0.26,1.23,0.5,2.48,0.7,3.73
				c0.07,0.45,0.13,0.91,0.2,1.36c-0.02,2.34,0.2,2.51,0.65,0.51c1.08-1.08,2.15-2.15,3.23-3.23c1.99-0.24,2.14-0.35,0.46-0.33
				c-0.5-0.11-1.01-0.2-1.52-0.26c-2.05-0.26-4.1-0.59-6.15-0.85c-4.07-0.51-8.17-0.88-12.27-0.85c-3.46,0.02-7.17,0.12-10.47,1.2
				c-3.87,1.27-6.4,3.99-8.59,6.36c1.32-0.77,2.65-1.54,3.97-2.31c-0.29,0.08-0.59,0.16-0.88,0.24c-5.99,1.61-7.83,8.08-5.38,13.22
				c1.75,3.68,3.84,8.04,6.81,10.91c4.58,4.42,11.39,3.98,15.99-0.15c6.75-6.05,11.95-15.27,11.75-24.45
				c-0.1-4.7-1.22-9.39-2.04-14.01c-0.92-5.2-0.79-10.35-1.22-15.59c-0.82-9.82-4.57-18.96-8.88-27.74
				c-3.75-7.64-10.69-21.74-21.15-19.43c-11.39,2.51-8.75,17.39-7.09,25.76c1.82,9.21,5.44,17.96,7.29,27.16
				c2,10.02-0.35,20.28,0.85,30.38c0.7,5.87,3.47,11.31,9.8,12.44c6.27,1.12,11.76-2.96,15.13-7.9c6.26-9.17,6.5-21.94,6.99-32.61
				c-4.51,2.59-9.03,5.18-13.54,7.77c7.63,5.39,12.37,14.37,12.85,23.64c0.59,11.53,18.59,11.6,18,0
				c-0.82-16.05-8.67-29.95-21.76-39.19c-5.91-4.17-13.26,1.51-13.54,7.77c-0.22,4.78-0.34,9.62-1.28,14.32
				c-0.67,3.38-1.18,8.15-4.66,9.64c1.51-0.41,3.03-0.82,4.54-1.23c-0.51-0.02-1.02-0.04-1.53-0.06c1.51,0.41,3.03,0.82,4.54,1.23
				c-0.28-0.19-0.57-0.39-0.85-0.58c1.08,1.08,2.15,2.15,3.23,3.23c-0.49-0.74-0.35-5.26-0.33-6.83c0.04-3.42,0.27-6.84,0.35-10.26
				c0.15-6.43-0.52-12.79-1.98-19.05c-1.36-5.83-3.31-11.5-4.93-17.27c-0.76-2.71-1.48-5.45-1.98-8.23
				c-0.26-1.45-0.43-2.79-0.52-4.26c-0.06-1.06,0.82-4.46-0.5-2.43c-1.79,1.38-3.59,2.76-5.38,4.14c0.36-0.08,0.72-0.16,1.08-0.24
				c-2.31-0.3-4.62-0.6-6.94-0.91c2.11,0.97,3.91,5.02,5.03,6.95c1.66,2.87,3.13,5.85,4.47,8.89c2.84,6.44,4.65,12.51,4.9,19.56
				c0.26,7.38,1.67,14.39,2.73,21.67c0.72,4.97-0.74,11.5-5.58,14.29c1.51-0.41,3.03-0.82,4.54-1.23c-0.44-0.01-0.87-0.03-1.31-0.04
				c1.51,0.41,3.03,0.82,4.54,1.23c2.37,1.71-0.31-1.45-0.67-2.07c-0.81-1.4-1.52-2.85-2.22-4.3c-1.79,4.41-3.59,8.81-5.38,13.22
				c3.81-1.02,4.24-3.2,6.95-5.12c-1.48,1.06,3.42,0.28,4.23,0.28c6.4-0.04,12.52,1.15,18.84,1.82c4.95,0.53,10.09-0.84,12.96-5.21
				c3.53-5.38,1.62-12.66,0.45-18.54c-2.37-11.92-7.55-23.23-11.93-34.51c-4.42-11.4-9.2-22.49-16.53-32.37
				c-3.12-4.21-6.42-8.09-11.26-10.37c-5.88-2.77-12.69-2.35-18.63,0.02c-11.89,4.76-13.87,15.55-12.27,27.04
				c1.76,12.6,2.24,25.28,2.29,38c0.02,5.87-0.03,11.74-0.06,17.61c-0.03,5.88-0.19,11.93,2.09,17.47
				c4.81,11.71,21.26,17.32,33.08,17.01c6.49-0.17,12.52-2.2,17.99-5.66c3.42-2.16,9.41-8.23,13.51-7.71
				c-1.51-0.41-3.03-0.82-4.54-1.23c-0.01-0.02-0.03-0.04-0.04-0.05c-0.77-1.32-1.54-2.65-2.31-3.97c0-0.1,0-0.21,0-0.31
				c0.41-1.51,0.82-3.03,1.23-4.54c-0.65,1.11-3.38,4.57-4.61,6.67c-0.84,1.42-1.92,4.38-3.52,4.3c1.51,5.59,3.03,11.18,4.54,16.77
				c5.62-3.98,10.91-8.37,15.47-13.53c4.29-4.85,10.12-11,9.99-17.9c-0.13-6.81-5.46-13.99-8.71-19.72
				c-3.46-6.11-7.3-11.96-11.06-17.88c-3.39-5.36-6.72-10.9-7.38-17.33c-0.79-7.73-0.64-14.48-3.96-21.72
				c-5.89-12.82-18.16-20.92-29.71-28.13C47.98,94.25,38.93,109.82,48.75,115.95L48.75,115.95z"/>
		</g>
	</g>
	<g>
		<g>
			<path d="M94.37,33.06c1.93,2.85,2.86,6.2,2.6,9.65c-0.26,3.36-2.21,6.33-2.34,9.7c-0.12,3.23,1.96,4.94,4.01,7.04
				c0.69,0.7,1.33,1.46,0.84,2.45c-0.55,1.12-1.72,1.89-2.41,2.94c-0.64,0.97-0.92,2.13-0.66,3.28c0.16,0.71,0.65,1.35,0.77,2.05
				c0.11,0.64-0.24,0.69-0.82,0.97c-1.04,0.49-2.09,0.93-2.67,2c-0.34,0.63-0.4,1.34-0.3,2.04c0.07,0.49,0.75,1.71,0.55,2.14
				c-0.23,0.48-2.05,0.78-2.52,1.03c-1.46,0.79-2.02,2.16-2.21,3.74c-0.15,1.26-0.21,2.39-1.1,3.38c-0.85,0.95-2.09,1.51-3.28,1.89
				c-2.84,0.91-5.97,1.1-8.93,0.96c-2.97-0.14-6.27-0.85-8.02-3.49c-1.06-1.6-3.66-0.1-2.59,1.51c3.59,5.41,11.03,5.46,16.81,4.66
				c2.81-0.38,5.84-1.18,7.93-3.22c0.95-0.93,1.65-2.14,1.92-3.44c0.17-0.8,0.14-1.62,0.3-2.41c0.16-0.78,0.59-0.98,1.28-1.24
				c1.3-0.48,2.67-0.93,3.21-2.34c0.27-0.71,0.25-1.45,0.07-2.18c-0.11-0.45-0.61-1.34-0.43-1.68c0.21-0.38,1.12-0.6,1.51-0.78
				c0.59-0.28,1.16-0.62,1.59-1.12c1.2-1.37,0.72-2.93,0.12-4.43c-0.58-1.43,0.23-2.05,1.17-3.08c0.95-1.04,1.81-2.19,1.9-3.64
				c0.19-3.06-2.71-4.42-4.3-6.53c-1.28-1.7-0.61-3.85-0.01-5.68c0.65-1.97,1.32-3.86,1.56-5.94c0.46-4.11-0.63-8.36-2.95-11.77
				C95.88,29.96,93.28,31.46,94.37,33.06L94.37,33.06z"/>
		</g>
	</g>
	<g>
		<g>
			<path d="M36.76,68c-5.79,0.4-9.06-6.28-10.7-10.85c-2.14-6-2.84-12.52-1.94-18.83c0.43-3.02,1.16-6.15,2.47-8.91
				c1.36-2.86,3.34-4.84,6.2-6.2c2.65-1.27,5.51-2.08,7.91-3.81c2-1.45,4.63-4.2,3.99-6.94c-0.67-2.86-4.25-2.65-6.23-1.42
				c-2.65,1.65-4.28,5.09-4.78,8.06c-0.32,1.89,2.57,2.7,2.89,0.8c0.38-2.27,1.59-5.58,3.92-6.55c0.27-0.11,0.87-0.34,1.17-0.21
				c0.09,0.04,0.19,0.11,0.11-0.01c0.13,0.18-0.13,0.62-0.2,0.8c-0.48,1.17-1.39,2.12-2.38,2.87c-2.25,1.69-5.01,2.48-7.53,3.64
				c-2.65,1.21-4.86,2.92-6.48,5.36c-3.18,4.79-4.25,11.22-4.41,16.87c-0.17,6.12,1.01,12.24,3.43,17.86
				c2.18,5.07,6.36,10.91,12.57,10.48C38.68,70.87,38.69,67.87,36.76,68L36.76,68z"/>
		</g>
	</g>
	<g>
		<g>
			<path d="M44.92,11.89c1.36-2.88,4.49-3.87,7.43-4.31c4.06-0.6,8.34-0.43,12.42-0.18c3.68,0.22,8.45,0.18,11.55,2.49
				c1.44,1.07,2.42,2.63,4.03,3.5c1.72,0.94,3.71,1.12,5.64,1.14c5.08,0.05,10.17-0.05,15.26-0.08c-0.5-0.5-1-1-1.5-1.5
				c-1.61,12.3-8.76,23.8-18.83,30.97c-2.87,2.05-5.98,3.78-9.27,5.08c-1.77,0.7-1,3.61,0.8,2.89c12.61-5,22.62-15.31,27.54-27.93
				c1.38-3.55,2.27-7.23,2.76-11.01c0.1-0.8-0.77-1.5-1.5-1.5c-4.8,0.03-9.61,0.06-14.41,0.08c-2,0.01-4.18,0.05-5.81-1.3
				c-1.5-1.24-2.6-2.75-4.38-3.65c-3.7-1.88-8.31-1.99-12.37-2.21c-4.26-0.23-8.67-0.33-12.89,0.35c-3.62,0.58-7.4,2.16-9.05,5.66
				C41.51,12.11,44.09,13.63,44.92,11.89L44.92,11.89z"/>
		</g>
	</g>
	<g>
		<g>
			<path d="M82.7,17.56c-1.63,4.98-3.33,9.93-5.11,14.85c-1.71,4.74-3.24,9.76-5.64,14.2c-2.11,3.91-5.41,6.63-9.39,8.53
				c-1.93,0.92-3.96,1.6-6.01,2.18c-1.97,0.55-4.07,0.92-5.76,2.16c-0.96,0.7-1.55,1.65-2.33,2.51c-0.88,0.98-2.12,1.38-3.31,1.84
				c-2.74,1.06-5.48,2.11-8.22,3.17c-1.78,0.69-1.01,3.59,0.8,2.89c2.52-0.97,5.03-1.94,7.55-2.91c2.29-0.88,4.35-1.62,5.9-3.61
				c0.65-0.83,1.27-1.53,2.25-1.99c0.99-0.47,2.09-0.68,3.14-0.96c2.19-0.58,4.33-1.3,6.4-2.19c4.07-1.76,7.77-4.37,10.3-8.05
				c2.91-4.21,4.43-9.44,6.18-14.2c2.15-5.83,4.19-11.71,6.12-17.62C86.19,16.52,83.3,15.73,82.7,17.56L82.7,17.56z"/>
		</g>
	</g>
	<g>
		<g>
			<path d="M37.24,68.78c1.36,1.89,2.72,3.78,4.08,5.67c0.23,0.33,0.5,0.58,0.9,0.69c0.36,0.1,0.84,0.05,1.16-0.15
				c0.63-0.41,1.03-1.37,0.54-2.05c-1.36-1.89-2.72-3.78-4.08-5.67c-0.23-0.33-0.5-0.58-0.9-0.69c-0.36-0.1-0.84-0.05-1.16,0.15
				C37.15,67.14,36.75,68.1,37.24,68.78L37.24,68.78z"/>
		</g>
	</g>
	<g>
		<g>
			<path d="M34.7,76.17c3.81-1.34,7.64-0.28,11.25,1.17c3.68,1.49,7.26,3.22,10.96,4.7c3.38,1.36,6.82,2.96,9.06,5.95
				c2.24,3,3.43,6.64,5.48,9.77c2.35,3.58,5.5,6.56,9.19,8.74c1.67,0.99,3.18-1.61,1.51-2.59c-3.42-2.02-6.34-4.8-8.44-8.18
				c-2.04-3.29-3.32-6.99-5.76-10.04c-2.45-3.06-5.95-4.79-9.5-6.25c-3.72-1.53-7.38-3.2-11.09-4.75
				c-4.26-1.78-8.94-3.02-13.46-1.42C32.1,73.91,32.88,76.81,34.7,76.17L34.7,76.17z"/>
		</g>
	</g>
	<g>
		<g>
			<path d="M32.91,73.88c-1.73,1.05-2.31,2.99-2.46,4.89c-0.06,0.84-0.03,1.68-0.11,2.52c-0.01,0.06-0.05,0.38,0,0.07
				c-0.01,0.09-0.03,0.18-0.04,0.27c-0.04,0.22-0.09,0.43-0.16,0.65c-0.01,0.04-0.13,0.37-0.06,0.19C30.16,82.3,30,82.64,30,82.65
				c-0.04,0.08-0.09,0.15-0.13,0.22c-0.2,0.34,0.18-0.19-0.09,0.12c-0.51,0.59-0.63,1.55,0,2.12c0.56,0.52,1.57,0.63,2.12,0
				c1.34-1.55,1.48-3.49,1.52-5.46c0.01-0.38,0.02-0.75,0.06-1.13c0.02-0.16,0.04-0.24,0-0.04c0.01-0.08,0.03-0.16,0.04-0.25
				c0.04-0.2,0.08-0.4,0.14-0.6c0.02-0.08,0.05-0.16,0.07-0.23c0-0.01,0.14-0.35,0.05-0.16c-0.09,0.2,0.06-0.11,0.08-0.14
				c0.04-0.07,0.08-0.14,0.12-0.2c0.01-0.01,0.22-0.29,0.08-0.13c-0.14,0.17,0.11-0.1,0.11-0.11c0.05-0.05,0.12-0.1,0.17-0.16
				c-0.23,0.23,0.01,0.01,0.08-0.04c0.67-0.41,0.98-1.36,0.54-2.05C34.53,73.74,33.63,73.45,32.91,73.88L32.91,73.88z"/>
		</g>
	</g>
	<g>
		<g>
			<path d="M32,84.68c7.64-1.69,14.7,3.78,20.42,8.08c6.26,4.7,12.49,9.46,19.23,13.46c3.78,2.24,7.71,4.2,11.8,5.8
				c1.8,0.7,2.58-2.2,0.8-2.89c-7.5-2.93-14.34-7.29-20.87-11.96c-3.31-2.37-6.55-4.82-9.8-7.26c-3.13-2.35-6.33-4.67-9.89-6.32
				c-3.95-1.83-8.17-2.74-12.49-1.79C29.31,82.2,30.11,85.09,32,84.68L32,84.68z"/>
		</g>
	</g>
	<g>
		<g>
			<path d="M80.6,105.09c0.84,0.7,1.23,1.18,1.72,2.13c0.05,0.09,0.09,0.18,0.13,0.27c0.21,0.42-0.04-0.12,0.06,0.12
				c0.09,0.23,0.17,0.47,0.25,0.71c0.07,0.24,0.13,0.48,0.18,0.73c0.03,0.12,0.05,0.25,0.07,0.37c0.05,0.27,0-0.04,0.02,0.12
				c0.04,0.48,0.06,0.95,0.04,1.43c-0.01,0.13-0.02,0.25-0.03,0.37c-0.01,0.09-0.05,0.34-0.01,0.12c-0.04,0.25-0.09,0.49-0.15,0.73
				c-0.06,0.24-0.13,0.48-0.22,0.72c-0.03,0.09-0.07,0.19-0.11,0.28c0.1-0.24-0.09,0.18-0.09,0.19c-0.22,0.45-0.49,0.87-0.8,1.27
				c-0.49,0.64-0.1,1.68,0.54,2.05c0.77,0.45,1.56,0.11,2.05-0.54c2.97-3.88,2.23-10.1-1.53-13.21c-0.62-0.52-1.51-0.61-2.12,0
				C80.07,103.5,79.98,104.57,80.6,105.09L80.6,105.09z"/>
		</g>
	</g>
	<g>
		<g>
			<path d="M29.45,83.1c-3.49,8.17-7.84,15.97-13,23.21c-1.21,1.7-2.61,3.33-3.63,5.15c-1.03,1.85-1.5,3.85-1.51,5.96
				c-0.03,4.12,0.7,8.26,0.89,12.37c0.19,4.07,0.12,8.2-0.9,12.16c-0.49,1.92-1.2,3.77-2.19,5.5c-0.96,1.68-2.15,3.2-3.18,4.83
				c-2.29,3.6-2.98,7.35-1.89,11.51c0.98,3.75,2.78,7.4,4.76,10.72c4.43,7.39,10.73,13.61,18.16,17.96
				c1.67,0.98,3.18-1.61,1.51-2.59c-6.32-3.7-11.77-8.8-15.83-14.9c-2.04-3.06-3.79-6.37-5.04-9.83c-0.71-1.97-1.28-4.05-1.12-6.16
				c0.14-1.9,1.02-3.61,2.03-5.19c2.06-3.23,4.2-6.16,5.34-9.87c1.12-3.67,1.44-7.57,1.41-11.39c-0.03-3.94-0.44-7.86-0.79-11.79
				c-0.18-2.05-0.43-4.22,0.22-6.22c0.61-1.89,1.96-3.47,3.12-5.05c5.69-7.7,10.44-16.06,14.2-24.87
				C32.79,82.86,30.21,81.33,29.45,83.1L29.45,83.1z"/>
		</g>
	</g>
	<g>
		<g>
			<path d="M15,120.96c0.79,4.41,1.58,8.82,2.37,13.23c0.76,4.23,1.37,8.54,2.56,12.68c1.13,3.93,2.9,7.67,5.07,11.13
				c1.93,3.09,4.63,6.2,4.72,10.03c0.04,1.93,3.04,1.93,3,0c-0.09-3.98-2.31-7.21-4.41-10.43c-2.26-3.45-4.17-7.12-5.35-11.08
				c-1.23-4.12-1.85-8.41-2.61-12.64c-0.82-4.57-1.64-9.14-2.46-13.72C17.55,118.27,14.66,119.07,15,120.96L15,120.96z"/>
		</g>
	</g>
	<g>
		<g>
			<path d="M24.79,154.75c-2.44,10.06,1.03,20.01,2.35,29.95c0.69,5.19,0.49,10.14-0.88,15.2c-0.72,2.65-1.5,5.28-1.83,8.02
				c-0.33,2.79-0.15,5.59-0.04,8.38c0.25,6.32-0.68,12.44-3.04,18.32c-0.72,1.79,2.18,2.57,2.89,0.8
				c2.04-5.09,3.14-10.53,3.21-16.02c0.03-2.79-0.24-5.58-0.21-8.38c0.03-2.86,0.6-5.57,1.36-8.32c0.7-2.54,1.41-5.07,1.74-7.69
				c0.31-2.51,0.31-5.04,0.1-7.56c-0.41-5.05-1.54-9.99-2.43-14.97c-1-5.59-1.67-11.35-0.31-16.94
				C28.14,153.68,25.25,152.88,24.79,154.75L24.79,154.75z"/>
		</g>
	</g>
	<g>
		<g>
			<path d="M81.53,116.72c0.44,3.6,1.85,6.83,3.34,10.1c1.55,3.4,3.1,6.8,4.67,10.2c3.21,6.93,6.47,13.84,9.78,20.73
				c3.31,6.88,6.68,13.74,10.09,20.58c1.67,3.34,3.36,6.68,5.05,10.01c1.74,3.43,3.65,6.81,5.27,10.29c0.76,1.63,1,3.08,0.48,4.83
				c-0.56,1.87-1.3,3.7-1.96,5.53c-1.3,3.61-2.59,7.21-3.89,10.82c-1.35,3.76-2.7,7.53-4.06,11.29c-1.12,3.13-2.04,6.63-4.36,9.12
				c-4.03,4.33-10.57,4.93-16.12,4.27c-3.64-0.43-7.2-1.36-10.79-2.06c-3.72-0.73-7.43-1-11.21-1.24
				c-4.14-0.26-8.02-1.11-11.92-2.49c-3.84-1.36-7.62-2.86-11.52-4.05c-3.92-1.19-7.91-2.17-11.93-2.94
				c-3.63-0.69-7.41-1.18-10.79,0.66c-1.7,0.92-0.19,3.51,1.51,2.59c3.01-1.63,6.7-0.73,9.87-0.08c3.71,0.75,7.38,1.69,10.99,2.8
				c7.14,2.2,13.91,5.61,21.44,6.33c3.64,0.35,7.29,0.36,10.9,0.97c3.74,0.64,7.42,1.61,11.18,2.2c5.97,0.94,12.55,0.86,17.78-2.57
				c2.6-1.7,4.45-4.09,5.68-6.92c1.49-3.41,2.61-7,3.87-10.5c2.69-7.49,5.6-14.94,8.08-22.5c0.51-1.57,0.74-3.12,0.4-4.75
				c-0.4-1.89-1.43-3.61-2.31-5.31c-1.72-3.32-3.42-6.65-5.11-9.98c-3.53-6.96-7-13.94-10.43-20.96
				c-3.78-7.74-7.49-15.52-11.14-23.32c-1.86-3.98-3.7-7.96-5.52-11.95c-1.7-3.73-3.84-7.57-4.34-11.69
				C84.3,114.82,81.29,114.8,81.53,116.72L81.53,116.72z"/>
		</g>
	</g>
	<g>
		<g>
			<path d="M46.82,131.63c3.43,8.39,3.89,17.8,1.16,26.45c-0.62,1.97-2.05,4.17-1.08,6.24c0.4,0.86,1.04,1.58,1.42,2.46
				c0.44,1.03,0.67,2.16,0.68,3.27c0.01,1.03-0.22,2.04,0.15,3.04c0.29,0.78,0.88,1.35,1.57,1.79c2.1,1.34,4.49,2.35,6.7,3.5
				c1.71,0.89,3.23-1.7,1.51-2.59c-2.13-1.1-4.35-2.11-6.42-3.33c-0.84-0.5-0.55-1.11-0.53-1.99c0.03-0.96-0.08-1.94-0.28-2.87
				c-0.23-1.06-0.64-2.12-1.17-3.07c-0.53-0.95-1.16-1.44-0.78-2.57c0.67-2.02,1.44-3.95,1.92-6.04c1.92-8.32,1.26-17.18-1.97-25.09
				C48.99,129.07,46.08,129.84,46.82,131.63L46.82,131.63z"/>
		</g>
	</g>
	<g>
		<g>
			<path d="M54.63,176.77c0.29,3.79,0.58,7.66,1.79,11.3c1.08,3.25,2.9,6.15,5.22,8.66c4.7,5.09,10.94,8.28,16.75,11.86
				c3.45,2.13,6.76,4.45,9.53,7.43c1.31,1.42,3.43-0.71,2.12-2.12c-5.93-6.4-14.13-9.7-21.08-14.74c-3.27-2.37-6.32-5.22-8.29-8.79
				c-2.3-4.15-2.68-8.96-3.04-13.6C57.48,174.86,54.48,174.84,54.63,176.77L54.63,176.77z"/>
		</g>
	</g>
	<g>
		<g>
			<path d="M65.37,110c2.83,2.84,5.7,5.71,7.9,9.08c2.44,3.72,3.51,7.66,3.71,12.08c0.21,4.67,0.21,9.35,0.3,14.02
				c0.04,1.93,0.54,4.64-0.38,6.43c-0.78,1.52-2.69,1.87-4.22,2.11c-3.44,0.56-8.02,1.09-8.92,5.22c-0.41,1.88,2.48,2.69,2.89,0.8
				c0.73-3.34,6.26-2.78,8.74-3.55c1.75-0.54,3.36-1.56,4.19-3.25c0.96-1.95,0.77-4.2,0.73-6.31c-0.1-5-0.12-10.01-0.31-15
				c-0.17-4.59-1.05-8.89-3.39-12.88c-2.41-4.1-5.78-7.53-9.12-10.88C66.13,106.51,64.01,108.63,65.37,110L65.37,110z"/>
		</g>
	</g>
	<g>
		<g>
			<path d="M75.99,155.5c0.39,0.3-0.21-0.18,0.17,0.14c0.12,0.1,0.23,0.19,0.35,0.29c0.09,0.08,0.19,0.17,0.27,0.26
				c0.04,0.04,0.29,0.32,0.23,0.24c-0.09-0.11,0.12,0.18,0.14,0.22c0.07,0.11,0.12,0.38,0.07,0.13c0.02,0.13,0.07,0.25,0.09,0.38
				c-0.03-0.21-0.04-0.09-0.03,0.05c0.02,0.15,0.08-0.21-0.01,0.04c-0.12,0.34,0.08-0.2-0.04,0.1c0.1-0.12,0.11-0.14,0.04-0.06
				c-0.07,0.07-0.06,0.06,0.03-0.01c-0.05,0.04-0.41,0.2-0.16,0.1c-0.55,0.22-1.13,0.35-1.66,0.63c-2,1.1-3.04,3.7-2.34,5.87
				c0.24,0.75,1.05,1.3,1.85,1.05c0.75-0.24,1.3-1.05,1.05-1.85c-0.04-0.12-0.06-0.23-0.1-0.35c-0.1-0.32-0.01,0.23-0.01-0.08
				c0-0.12,0-0.24,0-0.36c-0.01-0.34-0.07,0.22,0-0.08c0.06-0.24,0.11-0.47,0.2-0.7c-0.13,0.33,0.03-0.03,0.06-0.08
				c0.06-0.11,0.13-0.21,0.19-0.31c0.2-0.31-0.2,0.18,0.07-0.08c0.09-0.08,0.17-0.17,0.26-0.25c0.26-0.25-0.23,0.12,0.08-0.06
				c0.11-0.06,0.21-0.12,0.32-0.18c0.32-0.17-0.27,0.07,0.14-0.05c0.14-0.04,0.28-0.09,0.42-0.13c0.35-0.11,0.7-0.24,1.03-0.42
				c1.35-0.75,1.85-2.38,1.45-3.83c-0.39-1.42-1.53-2.34-2.65-3.19c-0.63-0.48-1.71-0.12-2.05,0.54
				C75.03,154.24,75.32,154.99,75.99,155.5L75.99,155.5z"/>
		</g>
	</g>
	<g>
		<g>
			<path d="M76.03,160.69c2.01,2.15,4.27,4.54,4.8,7.55c0.08,0.46,0.24,1.08-0.13,1.41c-0.61,0.55-1.58,0.92-2.29,1.32
				c-1.7,0.98-3.41,1.95-5.11,2.93c-1.68,0.96-0.17,3.55,1.51,2.59c1.97-1.13,3.95-2.26,5.92-3.39c0.9-0.52,1.95-0.98,2.57-1.86
				c0.61-0.86,0.68-1.9,0.56-2.91c-0.45-3.93-3.1-6.99-5.7-9.77C76.83,157.16,74.72,159.28,76.03,160.69L76.03,160.69z"/>
		</g>
	</g>
	<g>
		<g>
			<path d="M79.37,173.1c0.95,1.85,2.15,3.58,3.56,5.13c1.26,1.39,2.85,2.57,3.8,4.22c1.45,2.53-0.15,5.92-2.94,6.59
				c-1.88,0.45-1.08,3.35,0.8,2.89c3.92-0.94,6.52-5.32,5.48-9.22c-0.58-2.19-2.23-3.82-3.8-5.35c-1.74-1.71-3.18-3.59-4.3-5.77
				C81.07,169.87,78.48,171.39,79.37,173.1L79.37,173.1z"/>
		</g>
	</g>
	<g>
		<g>
			<path d="M87.42,188.36c1.64,1.15,3.28,2.3,4.93,3.45c0.11,0.08,0.28,0.25,0.41,0.3c0.17,0.06,0.14,0.38,0.13-0.16
				c-0.01-0.47-0.02-0.24-0.39-0.08c-0.83,0.36-1.77,0.56-2.63,0.83c-1.87,0.59-3.73,1.18-5.6,1.76c-1.75,0.55-3.62,1.16-5.47,0.79
				c-0.79-0.16-1.62,0.23-1.85,1.05c-0.2,0.74,0.25,1.68,1.05,1.85c2.53,0.51,4.95-0.12,7.36-0.88c2.47-0.78,4.95-1.55,7.42-2.34
				c0.97-0.31,2.01-0.7,2.59-1.59c0.65-0.99,0.5-2.22-0.26-3.1c-0.75-0.86-1.89-1.46-2.81-2.11c-1.12-0.79-2.25-1.57-3.37-2.36
				c-0.66-0.46-1.67-0.12-2.05,0.54C86.44,187.06,86.75,187.89,87.42,188.36L87.42,188.36z"/>
		</g>
	</g>
	<g>
		<g>
			<path d="M92.44,194.27c2.03,0.94,4.4,1.73,6.16,3.15c0.63,0.51,1.23,1.17,1.35,2c0.16,1.14-0.51,2.23-1.12,3.14
				c-2.57,3.85-6.19,7.1-10.09,9.56c-1.63,1.03-0.12,3.63,1.51,2.59c2.38-1.5,4.61-3.25,6.62-5.23c1.94-1.91,4.03-4.15,5.26-6.61
				c1.22-2.46,1.07-5.13-0.92-7.13c-1.94-1.97-4.81-2.93-7.26-4.07C92.21,190.88,90.68,193.46,92.44,194.27L92.44,194.27z"/>
		</g>
	</g>
	<g>
		<g>
			<path d="M96.8,209.61c4.4-0.55,8.3-2.84,10.89-6.45c0.46-0.64,0.13-1.7-0.54-2.05c-0.78-0.41-1.56-0.14-2.05,0.54
				c-0.07,0.1-0.15,0.2-0.22,0.3c-0.15,0.2,0.12-0.14-0.04,0.05c-0.14,0.17-0.29,0.34-0.43,0.51c-0.3,0.33-0.61,0.65-0.94,0.95
				c-0.16,0.15-0.33,0.3-0.5,0.44c-0.1,0.08-0.19,0.16-0.29,0.24c0.12-0.1,0.01-0.01-0.05,0.04c-0.38,0.28-0.77,0.54-1.18,0.78
				c-0.38,0.23-0.78,0.44-1.18,0.63c-0.09,0.04-0.18,0.08-0.27,0.12c-0.14,0.06,0.12-0.04-0.12,0.05c-0.21,0.08-0.42,0.16-0.63,0.24
				c-0.42,0.15-0.85,0.27-1.29,0.38c-0.22,0.05-0.44,0.1-0.66,0.14c-0.1,0.02-0.2,0.04-0.29,0.05c-0.01,0-0.48,0.07-0.19,0.03
				c-0.78,0.1-1.54,0.62-1.5,1.5C95.33,208.84,95.97,209.72,96.8,209.61L96.8,209.61z"/>
		</g>
	</g>
	<g>
		<g>
			<path d="M25.42,232.57c-1.27,3.7-2.54,7.4-3.8,11.1c-0.59,1.72-1.37,3.49-1.42,5.34c-0.05,1.65,0.59,3.16,1.34,4.59
				c0.73,1.4,1.45,2.7,1.79,4.26c0.32,1.45,0.39,2.93,0.46,4.41c0.15,2.88,0.27,5.88,1.64,8.49c0.71,1.35,1.78,2.33,2.85,3.39
				c1.14,1.14,1.54,2.16,1.09,3.75c-0.41,1.44-1.14,2.78-1.45,4.25c-0.33,1.58-0.17,3.08,0.45,4.58c0.64,1.54,1.62,2.92,2.14,4.51
				c0.53,1.64,0.66,3.35,0.64,5.06c-0.05,3.48-0.72,6.94-0.64,10.43c0.18,7.31,3.29,14.38,8.48,19.52c1.37,1.36,3.5-0.76,2.12-2.12
				c-4.53-4.48-7.33-10.61-7.58-16.99c-0.13-3.34,0.46-6.64,0.6-9.96c0.14-3.3-0.33-6.44-1.88-9.39c-0.67-1.29-1.58-2.62-1.52-4.14
				c0.06-1.47,0.83-2.87,1.31-4.23c0.43-1.25,0.72-2.6,0.46-3.92c-0.3-1.52-1.28-2.67-2.36-3.72c-0.97-0.94-1.86-1.83-2.38-3.1
				c-0.56-1.37-0.73-2.87-0.84-4.34c-0.21-2.88-0.12-5.89-1.07-8.66c-0.57-1.65-1.6-3.06-2.24-4.67c-0.78-1.95-0.04-3.72,0.61-5.59
				c1.37-4.01,2.75-8.02,4.12-12.03C28.94,231.53,26.04,230.75,25.42,232.57L25.42,232.57z"/>
		</g>
	</g>
	<g>
		<g>
			<path d="M29.84,233.89c-1.32,11.86,3.38,24.11,12.26,32.08c1.43,1.29,3.56-0.83,2.12-2.12c-8.35-7.5-12.62-18.81-11.38-29.96
				C33.06,231.98,30.06,231.99,29.84,233.89L29.84,233.89z"/>
		</g>
	</g>
	<g>
		<g>
			<path d="M52.87,254.45c-2.15,3.57-4.84,6.76-8.01,9.47c-1.55,1.33-3.22,2.53-4.97,3.58c-1.66,1-3.74,1.65-5.2,2.93
				c-3.96,3.46,2.23,6.92,4.85,8.33c3.98,2.13,8.33,3.6,12.8,4.24c0.17,0.02,0.44,0.11,0.61,0.08c0.42,0.17,0.48,0.06,0.21-0.31
				c-0.06-0.44-0.2-0.48-0.41-0.1c-0.39,0.21-0.72,0.6-1.12,0.84c-0.92,0.55-1.94,0.86-2.98,1.07c-2.19,0.44-4.48,0.31-6.69,0.18
				c-1.93-0.12-1.92,2.89,0,3c3.87,0.23,8.29,0.34,11.63-1.94c1.5-1.03,3.63-3.18,1.78-4.94c-0.76-0.72-1.9-0.71-2.87-0.86
				c-1.14-0.18-2.27-0.42-3.38-0.7c-2.31-0.6-4.57-1.41-6.72-2.45c-0.97-0.47-1.92-0.98-2.85-1.54c-0.9-0.54-2.17-1.12-2.82-1.96
				c-0.56-0.73,0.43-1.02,1.05-1.32c0.99-0.49,1.98-0.98,2.95-1.54c1.82-1.05,3.55-2.26,5.2-3.57c3.81-3.04,7.03-6.79,9.54-10.96
				C56.45,254.31,53.86,252.8,52.87,254.45L52.87,254.45z"/>
		</g>
	</g>
	<g>
		<g>
			<path d="M40.51,282.63c-0.54,3.7,0.32,7.24,1.25,10.81c0.87,3.33,1.87,6.92,0.67,10.29c-0.66,1.86-1.51,3.37-1.3,5.43
				c0.21,2.07,0.99,3.98,0.89,6.09c-0.19,3.98-1.83,7.63-1.18,11.68c0.31,1.9,3.2,1.09,2.89-0.8c-0.61-3.79,1.24-7.52,1.3-11.3
				c0.03-1.95-0.63-3.72-0.89-5.62c-0.28-2.01,0.91-3.55,1.41-5.4c1.9-6.97-3.15-13.45-2.15-20.37c0.12-0.81-0.2-1.6-1.05-1.85
				C41.65,281.38,40.63,281.83,40.51,282.63L40.51,282.63z"/>
		</g>
	</g>
	<g>
		<g>
			<path d="M40.4,327.7c3.08,0.92,6.35,0.87,9.54,0.98c3.38,0.12,6.76,0.24,10.14,0.35c6.85,0.24,13.69,0.48,20.54,0.71
				c0.77,0.03,1.56-0.71,1.5-1.5c-1.69-22.06,7.47-43.19,12.85-64.15c1.51-5.89,2.75-11.85,3.53-17.88c0.25-1.91-2.76-1.89-3,0
				c-2.78,21.55-12.06,41.6-15.41,63.03c-0.98,6.29-1.45,12.64-0.97,19c0.5-0.5,1-1,1.5-1.5c-6.68-0.23-13.36-0.46-20.04-0.7
				c-3.3-0.11-6.6-0.23-9.9-0.34c-3.16-0.11-6.43,0.01-9.48-0.9C39.34,324.26,38.55,327.15,40.4,327.7L40.4,327.7z"/>
		</g>
	</g>
	<g>
		<g>
			<path d="M108.5,208.61c-0.28,1.38-0.69,2.72-1.24,4.02c0.05-0.12,0.1-0.24,0.15-0.36c-0.08,0.18-0.16,0.36-0.24,0.54
				c-0.17,0.38-0.27,0.74-0.15,1.16c0.1,0.35,0.36,0.72,0.69,0.9c0.35,0.18,0.77,0.28,1.16,0.15c0.35-0.11,0.74-0.34,0.9-0.69
				c0.72-1.58,1.29-3.22,1.63-4.92c0.08-0.4,0.06-0.8-0.15-1.16c-0.18-0.31-0.54-0.61-0.9-0.69
				C109.6,207.39,108.67,207.78,108.5,208.61L108.5,208.61z"/>
		</g>
	</g>
	<g>
		<g>
			<path d="M86.14,232.13c4.51,0.47,9.14-1.23,13.22-2.98c3.71-1.59,7.14-4.16,8.35-8.17c0.56-1.85-2.34-2.64-2.89-0.8
				c-1.01,3.34-4.2,5.27-7.26,6.49c-3.6,1.44-7.49,2.86-11.42,2.45c-0.81-0.09-1.49,0.75-1.5,1.5
				C84.63,231.51,85.34,232.04,86.14,232.13L86.14,232.13z"/>
		</g>
	</g>
	<g>
		<g>
			<path d="M72.43,245.52c-4.67,6.59-10.59,12.29-17.37,16.68c-2.97,1.92-7.46,3.52-8.23,7.44c-0.32,1.62,0.13,3.3,1.45,4.34
				c1.28,1.01,3.09,1.27,4.47,0.31c1.58-1.09,0.08-3.69-1.51-2.59c-1.07,0.74-1.66-0.74-1.43-1.62c0.4-1.54,1.96-2.42,3.23-3.16
				c2.87-1.67,5.63-3.46,8.26-5.5c5.27-4.09,9.87-8.95,13.73-14.39C76.14,245.45,73.54,243.95,72.43,245.52L72.43,245.52z"/>
		</g>
	</g>
	<g>
		<g>
			<path d="M64.97,287.16c-3.94,2.61-7.63,5.61-10.96,8.97c-1.53,1.54-3.21,3.2-3.83,5.35c-0.68,2.36,0.4,4.47,1.71,6.38
				c1.09,1.58,3.69,0.08,2.59-1.51c-0.98-1.42-2.03-2.92-1.18-4.66c0.83-1.7,2.44-3.07,3.77-4.36c2.9-2.81,6.05-5.33,9.41-7.56
				C68.08,288.69,66.58,286.09,64.97,287.16L64.97,287.16z"/>
		</g>
	</g>
	<g>
		<g>
			<path d="M68.82,319.96c2.99-5.37,6.25-10.57,9.64-15.7c3.19-4.83,6.28-9.7,8.52-15.06c0.31-0.75-0.34-1.64-1.05-1.85
				c-0.86-0.25-1.53,0.3-1.85,1.05c-2.19,5.24-5.35,10-8.47,14.72c-3.31,5-6.47,10.08-9.39,15.32
				C65.29,320.13,67.88,321.65,68.82,319.96L68.82,319.96z"/>
		</g>
	</g>
	<g>
		<g>
			<path d="M43.44,326.81c-1.87,5.46-2.38,11.26-2.55,17c-0.17,5.76-0.51,11.72,0.91,17.35c0.47,1.87,3.37,1.08,2.89-0.8
				c-1.35-5.36-0.97-11.08-0.8-16.55c0.17-5.49,0.65-10.97,2.45-16.2C46.96,325.78,44.06,324.99,43.44,326.81L43.44,326.81z"/>
		</g>
	</g>
	<g>
		<g>
			<path d="M68.71,329.24c1.09,5.63-1.32,11.2-3.16,16.41c-1.92,5.41-3.37,10.97-4.33,16.63c-0.32,1.89,2.57,2.7,2.89,0.8
				c1.02-5.97,2.6-11.8,4.64-17.5c1.98-5.53,4-11.18,2.85-17.13C71.24,326.55,68.35,327.35,68.71,329.24L68.71,329.24z"/>
		</g>
	</g>
	<g>
		<g>
			<path d="M32.44,321.88c-2.57,10.1-1.96,20.88,1.82,30.6c0.69,1.78,3.59,1.01,2.89-0.8c-3.59-9.24-4.26-19.39-1.82-29
				C35.81,320.81,32.92,320.01,32.44,321.88L32.44,321.88z"/>
		</g>
	</g>
	<g>
		<g>
			<path d="M40.31,361.4c3.64,1.37,7.39,2.38,11.23,2.97c1.82,0.28,3.65,0.49,5.49,0.6c0.93,0.06,1.86,0.09,2.79,0.1
				c0.34,0,1.82-0.16,2.07,0.11c0.08,0.09-0.54,2.17-0.59,2.41c-0.23,1.01-0.44,2.03-0.64,3.04c-0.37,1.88-0.71,3.77-1,5.66
				c-0.6,3.92-1.03,7.86-1.29,11.82c-0.13,1.93,2.87,1.92,3,0c0.29-4.33,0.77-8.64,1.49-12.91c0.37-2.2,0.8-4.4,1.28-6.58
				c0.38-1.7,1.33-3.82,0.06-5.35c-1.07-1.28-2.87-1.19-4.38-1.2c-2.09-0.02-4.19-0.16-6.27-0.42c-4.26-0.54-8.43-1.63-12.45-3.14
				C39.3,357.83,38.52,360.73,40.31,361.4L40.31,361.4z"/>
		</g>
	</g>
	<g>
		<g>
			<path d="M58.99,387.49c-4.72,1.17-10.77,2.68-14.92-0.84c-0.62-0.52-1.52-0.61-2.12,0c-0.54,0.54-0.62,1.59,0,2.12
				c5.11,4.34,11.88,3.09,17.84,1.61C61.66,389.92,60.86,387.03,58.99,387.49L58.99,387.49z"/>
		</g>
	</g>
	<g>
		<g>
			<path d="M38.94,359.1c-0.96,4.93,1.35,9.34,2.55,13.99c0.64,2.48,1.05,5.02,1.43,7.55c0.3,2.03,0.8,4.34-0.32,6.21
				c-1,1.66,1.59,3.17,2.59,1.51c1.14-1.89,1.22-4.06,0.95-6.2c-0.31-2.52-0.7-5.05-1.21-7.54c-0.51-2.46-1.28-4.81-2.06-7.2
				c-0.79-2.43-1.53-4.97-1.04-7.54C42.19,358.01,39.3,357.2,38.94,359.1L38.94,359.1z"/>
		</g>
	</g>
	<g>
		<g>
			<path d="M40.92,352.95c-0.16-0.02-0.31-0.03-0.47-0.06c0.39,0.07-0.01,0-0.07-0.01c-0.27-0.04-0.54-0.09-0.81-0.14
				c-0.52-0.1-1.04-0.21-1.55-0.35c-1.04-0.27-2.07-0.62-3.06-1.03c-0.33-0.14-0.86-0.02-1.16,0.15c-0.31,0.18-0.61,0.54-0.69,0.9
				c-0.09,0.38-0.07,0.82,0.15,1.16c0.23,0.35,0.51,0.53,0.9,0.69c2.16,0.9,4.43,1.43,6.75,1.69c0.78,0.09,1.53-0.75,1.5-1.5
				C42.38,353.57,41.76,353.05,40.92,352.95L40.92,352.95z"/>
		</g>
	</g>
	<g>
		<g>
			<path d="M32.51,352.26c-0.74,5.3,1.47,10.32,3.15,15.23c0.87,2.54,1.73,5.09,2.61,7.62c0.68,1.98,1.5,3.75,3.56,4.56
				c1.8,0.7,2.58-2.2,0.8-2.89c-1.34-0.52-1.78-3.37-2.18-4.54c-0.74-2.16-1.48-4.31-2.21-6.47c-1.36-3.98-3.44-8.4-2.84-12.71
				c0.11-0.81-0.2-1.6-1.05-1.85C33.66,351.01,32.63,351.46,32.51,352.26L32.51,352.26z"/>
		</g>
	</g>
	<g>
		<g>
			<path d="M36.88,371.03c-0.4,2.27-1.66,4.14-2.79,6.1c-1.22,2.12-2.14,4.39-2.55,6.81c-0.36,2.15-0.59,4.67,0.96,6.43
				c1.63,1.85,4.77,2.08,7.03,2.63c1.88,0.46,2.68-2.44,0.8-2.89c-1.16-0.28-2.32-0.56-3.48-0.84c-0.76-0.19-1.79-0.35-2.25-1.07
				c-0.91-1.43-0.13-4.04,0.3-5.52c1.12-3.84,4.17-6.86,4.87-10.85C40.1,369.94,37.21,369.12,36.88,371.03L36.88,371.03z"/>
		</g>
	</g>
	<g>
		<g>
			<path d="M43.93,385.39c-3.08,3.71-5.5,7.87-7.13,12.42c-1.41,3.94-2.39,8.25-1.57,12.43c0.35,1.82,1.16,3.6,2.44,4.96
				c1.55,1.64,3.67,2.36,5.82,2.86c5.39,1.25,10.83,2.34,16.26,3.36c5.46,1.03,10.95,1.96,16.44,2.79c2.72,0.41,5.44,0.8,8.17,1.17
				c2.01,0.27,3.99,0.47,6.01,0.14c4-0.65,6.77-4.16,5.28-8.22c-1.64-4.46-6.72-6.24-10.45-8.56c-9.08-5.65-17.08-13.02-23.46-21.6
				c-1.14-1.53-3.74-0.04-2.59,1.51c5.12,6.89,11.14,12.99,17.99,18.18c3.4,2.57,6.98,4.85,10.7,6.93c1.74,0.98,3.7,2.02,4.68,3.85
				c0.82,1.51,0.78,3.4-0.81,4.35c-1.38,0.83-3.18,0.81-4.74,0.71c-2.2-0.13-4.4-0.53-6.58-0.85c-5.02-0.72-10.02-1.53-15.01-2.41
				c-4.91-0.87-9.81-1.82-14.69-2.85c-2.34-0.49-4.69-0.96-7.02-1.54c-1.87-0.47-3.57-1.19-4.59-2.9
				c-2.02-3.41-1.11-7.93-0.05-11.48c1.43-4.79,3.84-9.27,7.03-13.11C47.27,386.03,45.16,383.9,43.93,385.39L43.93,385.39z"/>
		</g>
	</g>
	<g>
		<g>
			<path d="M61.33,377.77c3.93,1.8,8.31,2.73,12.45,3.94c2.11,0.62,4.23,1.2,6.33,1.85c1.42,0.44,2.92,0.98,4.06,1.96
				c0.95,0.82,2.11,2.87,0.21,3.21c-2.01,0.36-4.25,0.18-6.29,0.22c-4.53,0.09-9.06,0.08-13.58-0.02c-1.93-0.04-1.93,2.96,0,3
				c4.12,0.09,8.25,0.11,12.37,0.04c2.1-0.03,4.2-0.08,6.3-0.16c1.51-0.06,3.13-0.21,4.23-1.36c2.33-2.43,0.31-6.06-1.92-7.68
				c-2.64-1.93-6.18-2.57-9.25-3.47c-2.3-0.67-4.59-1.34-6.89-2.01c-2.18-0.64-4.44-1.17-6.51-2.11
				C61.1,374.39,59.57,376.97,61.33,377.77L61.33,377.77z"/>
		</g>
	</g>
</g>
</svg>
