<?xml version="1.0" encoding="utf-8"?>
<!-- Generator: Adobe Illustrator 28.0.0, SVG Export Plug-In . SVG Version: 6.00 Build 0)  -->
<svg version="1.1" id="Layer_1" xmlns="http://www.w3.org/2000/svg" xmlns:xlink="http://www.w3.org/1999/xlink" x="0px" y="0px"
	 viewBox="0 0 222.5 679.5" style="enable-background:new 0 0 222.5 679.5;" xml:space="preserve">
<style type="text/css">
	.st0{fill:#C94D39;}
	.st1{fill:#CE6249;}
	.st2{fill:#D8AB74;}
	.st3{fill:#C8B1A5;}
	.st4{fill:#443337;}
	.st5{fill:#1B1916;}
</style>
<g>
	<g>
		<path class="st0" d="M12.36,363.15c8.39-0.86,16.7-0.63,24.98,0.96c3.65,0.7,6.73-1.54,6.96-5.3c1.07-17.38-2.3-35.14,1.59-52.29
			c1.8-7.93,4.61-15.6,5.92-23.64c1.34-8.22,1.24-16.51,1.22-24.81c-0.08-31.74,10.78-64.25,1.38-95.55
			c-2.07-6.88-12.31-34.17-23.13-25.15c-4.97,4.14-3.41,13.96-3.95,19.65c-0.81,8.55-2.2,17.03-3.78,25.47
			c-3.06,16.36-6.85,32.58-9.17,49.07c-2.21,15.77-2.48,31.34-1.72,47.22c0.79,16.48,1.38,32.85-2.8,48.96
			c-1.37,5.29-2.11,10.11-2.32,15.58c-0.09,2.56-0.14,5.13-0.2,7.69c-0.02,0.97-0.12,1.98-0.06,2.95c0.1,1.77-0.95,1.79,0.66-1.33
			c3.35,0.44,6.7,0.88,10.05,1.31c-0.03-0.11-0.06-0.21-0.08-0.32c-1.77,2.32-3.54,4.64-5.3,6.96c1.66-0.11,5.61,0.47,8.29,0.05
			c3.83-0.6,7.57-1.71,10.64-4.17c6.53-5.25,6.86-14.64,8.15-22.28c3.35-19.84,5.97-39.81,7.83-59.84
			c1.88-20.2,2.99-40.47,3.3-60.75c0.3-19.48-0.31-39.04-4.85-58.07c-1.51-6.33-10.36-4.46-10.8,1.46
			c-1.22,16.22-3.87,31.27-8.66,46.83c-4.67,15.14-8.14,30.51-10.13,46.24c-4.19,33.06-3.23,67.07-3.21,100.34
			c0,2.74,2.53,5.81,5.5,5.5c14.26-1.49,16.41-16.16,17.36-27.94c1.2-14.87,1.28-29.63,3.42-44.44c4.15-28.79,10.41-57.37,6.2-86.54
			c-0.81-5.59-9.3-4.87-10.61,0c-6.55,24.43-10.33,49.45-14.28,74.4c-1.91,12.04-3.79,24.08-5.54,36.14
			c-1.69,11.65-4.18,23.58-1.3,35.23c1.15,4.65,7.7,5.31,10.05,1.31c7.73-13.1,4.07-27.98,7.09-42.15c1.47-6.9-9.13-9.86-10.61-2.92
			c-2.72,12.81,0.89,27.89-5.98,39.53c3.35,0.44,6.7,0.88,10.05,1.31c-2.73-11.01,0.37-23.15,1.99-34.14
			c1.73-11.74,3.58-23.46,5.44-35.18c3.76-23.68,7.46-47.41,13.68-70.6c-3.54,0-7.07,0-10.61,0c3.62,25.11-1.56,50.34-5.36,75.09
			c-1.84,11.95-3.38,23.94-3.87,36.03c-0.25,6.27-0.35,12.55-0.95,18.8c-0.37,3.9-0.68,14.49-6.2,15.07c1.83,1.83,3.67,3.67,5.5,5.5
			c-0.01-16.81,0.14-33.61,0.46-50.41c0.32-16.66,0.6-33.38,2.75-49.92c2.04-15.67,5.92-30.87,10.55-45.95
			c4.78-15.55,7.02-30.92,8.24-47.11c-3.6,0.49-7.2,0.97-10.8,1.46c4.17,17.46,4.71,35.37,4.48,53.25
			c-0.23,17.64-1.06,35.28-2.48,52.87c-1.43,17.77-3.46,35.5-6.12,53.13c-1.3,8.62-2.15,17.73-4.46,26.15
			c-1.08,3.93-3.39,5.21-7.34,5.94c-2.5,0.46-4.42-0.37-6.84-0.2c-3.55,0.24-6.27,3.32-5.3,6.96c0.03,0.11,0.06,0.21,0.08,0.32
			c1.17,4.42,7.85,5.57,10.05,1.31c1.4-2.7,0.89-6.62,0.95-9.55c0.09-4.04-0.04-8.77,0.59-12.49c1.18-6.93,3.43-13.57,4.31-20.61
			c0.9-7.19,1.12-14.43,0.97-21.68c-0.3-14.7-1.7-29.34-0.83-44.05c1.01-17.06,4.61-33.83,7.98-50.54
			c1.86-9.22,3.7-18.46,5.09-27.76c0.67-4.51,1.27-9.03,1.72-13.56c0.25-2.48-0.05-12.08,0.81-12.8c-1.3,0.54-2.59,1.07-3.89,1.61
			c-1.9-1.07-2.09-0.88-0.57,0.55c0.68,0.85,1.32,1.73,1.93,2.63c1.16,1.7,2.22,3.49,3.18,5.31c1.72,3.26,3.04,6.67,4.1,10.2
			c2.3,7.64,3.27,15.55,3.43,23.5c0.37,19.04-3.77,37.78-4.9,56.73c-0.56,9.43,0.09,18.89-0.52,28.32
			c-0.62,9.6-3.83,18.51-6.09,27.78c-4.6,18.86-1.24,37.93-2.42,57.04c2.32-1.77,4.64-3.54,6.96-5.3
			c-9.27-1.78-18.51-2.32-27.91-1.35C5.39,352.86,5.31,363.87,12.36,363.15L12.36,363.15z"/>
	</g>
</g>
<g>
	<g>
		<path class="st0" d="M39.25,144.42c8.23-3.1,16.64-5.74,24.98-8.53c8.12-2.71,16.68-6.71,25.1-8.15
			c-1.41-0.18-2.83-0.37-4.24-0.55c1,0.45,1.71,2.12,2.46,2.94c1.07,1.16,2.33,2.2,3.65,3.06c2.31,1.51,4.98,2.56,7.63,3.28
			c4.79,1.31,13.77,3.71,17.29-1.1c4.12-5.62-4.19-12.75-7.46-16.55c-5.09-5.91-11.15-6.06-17.79-2.53c2.69,1.1,5.39,2.19,8.08,3.29
			c-0.93-3.29-0.7-6.17,0.95-9.2c-3.42-0.93-6.83-1.85-10.25-2.78c-0.5,6.64,4.89,7.4,9.24,10.21c5.57,3.6,10.17,10.15,14.73,14.92
			c4.9,5.13,12.67-2.66,7.78-7.78c-4-4.18-7.91-8.47-12.01-12.54c-1.35-1.34-2.77-2.66-4.35-3.72c-0.97-0.65-2.02-1.32-3.15-1.66
			c-2.02-0.62-1.1-1.17-1.23,0.58c0.42-5.5-7.73-7.41-10.25-2.78c-3.04,5.58-3.79,11.54-2.06,17.68c1,3.52,4.95,4.95,8.08,3.29
			c2.86-1.52,3.65-0.18,5.5,2.08c0.83,1.01,1.64,2.03,2.46,3.04c0.53,0.66,2.19,3.71,1.91,1.12c0.54-1.3,1.07-2.59,1.61-3.89
			c-0.21,0.18-0.42,0.36-0.63,0.54c1.3-0.54,2.59-1.07,3.89-1.61c-4.73,0.32-11.87-0.75-15.39-4.22c-1.82-1.8-2.68-4.04-5.15-5.16
			c-3.23-1.46-6.35-0.09-9.5,0.96c-14.94,5-30.08,9.61-44.82,15.17C29.76,136.29,32.6,146.93,39.25,144.42L39.25,144.42z"/>
	</g>
</g>
<g>
	<g>
		<path class="st0" d="M135.32,106.01c0.42,2.78-4.67,4.29-6.41,5.59c-2.28,1.7-4.43,3.67-6.39,5.74
			c-3.54,3.75-8.82,10.86-4.55,15.8c4.23,4.89,11.77,0.52,15.92-2.3c2.53-1.72,4.77-3.79,6.54-6.29c0.9-1.27,1.59-2.59,2.17-4.02
			c0.3-0.74,2.21-5.2,0.65-3.79c-1.3,0.54-2.59,1.07-3.89,1.61c2.29,0.21,3.75-0.28,5.54-1.76c-3.06-0.81-6.13-1.62-9.19-2.43
			c0.12,0.4,0.24,0.79,0.36,1.19c3.35-1.41,6.7-2.83,10.05-4.24c-3.33-4.63-8.9-10.98-14.11-4.33c-4.51,5.75-6.04,14.29-6.12,21.39
			c-0.09,7.08,10.91,7.08,11,0c0.06-4.51,0.73-11.24,3.91-14.82c-1.3,0.54-2.59,1.07-3.89,1.61c0.37,0.04,0.74,0.08,1.11,0.12
			c-1.3-0.54-2.59-1.07-3.89-1.61c0.96,0.97,1.7,2.09,2.49,3.19c3.42,4.77,11.97,2.13,10.05-4.24c-0.12-0.4-0.24-0.79-0.36-1.19
			c-1.27-4.23-6.02-5.03-9.19-2.43c-0.12,0.1-0.23,0.19-0.35,0.29c1.3-0.54,2.59-1.07,3.89-1.61c-4.97-0.63-6.76,2.95-7.69,7.06
			c-0.58,2.56-1.93,4.58-3.97,6.25c-1.31,1.07-4.87,3.7-6.65,3.52c1.3,0.54,2.59,1.07,3.89,1.61c-0.16-0.19-0.33-0.37-0.49-0.56
			c0.54,1.3,1.07,2.59,1.61,3.89c0.16-2.17,3.64-4.87,5.05-6.2c2.27-2.14,4.46-3.27,7.08-4.88c5.48-3.37,7.37-8.91,6.43-15.08
			C144.86,96.11,134.26,99.07,135.32,106.01L135.32,106.01z"/>
	</g>
</g>
<g>
	<g>
		<path class="st0" d="M142.68,126.72c16.93,2.02,33.63,6.4,49.38,12.92c1.29,0.54,4.44,1.19,5.22,2.35
			c0.66,0.98,0.72,3.52,0.88,4.55c0.72,4.69,1.38,9.38,2,14.08c1.19,9.08,2.2,18.18,3.08,27.29c3.54,36.49,4.87,73.15,5.82,109.79
			c0.53,20.51,1.77,41.21,0.02,61.68c2.76-1.58,5.52-3.17,8.28-4.75c-10.88-7.39-24.12-9.61-36.88-6.67
			c2.32,1.77,4.64,3.54,6.96,5.3c-1.26-13.73,1.49-27.74,2.03-41.48c0.55-13.99,0.36-28-0.07-42c-0.83-27.37-2.6-54.74-1.68-82.13
			c0.4-11.92,0.62-24.51,4.81-35.82c0.96-2.58,3.37-5.34,3.99-7.9c0.12-0.19,0.24-0.37,0.36-0.56c-4-2.04-5.67-1.53-4.99,1.52
			c-0.4,1.35,0.03,3.51,0.04,4.95c0.07,7.59,0.16,15.17,0.28,22.76c0.44,27.71,1.21,55.41,2.3,83.09
			c1.25,31.64,2.91,63.27,4.93,94.87c0.34,5.37,7.28,7.58,10.25,2.78c8.28-13.39,4.82-32.51,3.42-47.3
			c-1.65-17.37-2.27-34.66-2.99-52.08c-0.71-17.27-3.46-34.2-5.62-51.31c-2.2-17.42-2.49-34.88-2.27-52.41
			c-3.6,0.49-7.2,0.97-10.8,1.46c4.15,27.33,6.72,54.87,7.8,82.49c3.6-0.49,7.2-0.97,10.8-1.46c-9.25-25.17-6.67-52.52-11.66-78.54
			c-1.2-6.26-10.65-4.55-10.8,1.46c-1.09,43.01-2.17,86.03-3.26,129.04c-0.27,10.59-0.53,21.18-0.8,31.76
			c-0.13,4.96-0.25,9.93-0.38,14.89c-0.12,4.67-1.25,10.55,0.19,15.08c2.19,6.91,10.76,7.79,16.03,3.93
			c7.98-5.84,3.67-16.23,2.35-24.1c-3.76-22.33,3.32-45.02,2.68-67.44c-0.2-7.1-10.64-7.06-11,0c-1.42,27.58-2.84,55.16-4.27,82.74
			c-0.36,7.07,10.64,7.06,11,0c1.42-27.58,2.84-55.16,4.27-82.74c-3.67,0-7.33,0-11,0c0.48,17.02-3.08,33.76-3.58,50.73
			c-0.25,8.42,0.48,16.75,2.42,24.96c0.51,2.18,0.82,4.09,0.89,6.33c0,0.05-0.39,1.16-0.55,0.8c-0.22-0.49,0.58,1.15,1.3,0.61
			c0.73-0.55,0.14-5.75,0.18-6.95c0.07-2.65,0.13-5.29,0.2-7.94c0.92-36.4,1.84-72.79,2.75-109.19c0.53-20.84,1.05-41.69,1.58-62.53
			c-3.6,0.49-7.2,0.97-10.8,1.46c5,26.05,2.39,53.31,11.66,78.54c2.01,5.48,11.06,5.14,10.8-1.46c-1.12-28.61-3.89-57.11-8.19-85.41
			c-0.95-6.27-10.73-4.54-10.8,1.46c-0.22,16.89,0,33.73,2.03,50.52c1.99,16.46,4.85,32.77,5.68,49.36c0.84,16.74,1,33.43,2.6,50.13
			c0.8,8.37,1.68,16.74,1.95,25.15c0.24,7.5,0.79,15.78-3.31,22.4c3.42,0.93,6.83,1.85,10.25,2.78
			c-3.92-61.23-6.46-122.55-7.33-183.91c-0.11-7.88,0.26-15.89-0.25-23.75c-0.34-5.24-3.31-10.94-9.51-9.73
			c-5.1,0.99-7.82,7.23-9.7,11.43c-2.65,5.9-4.16,12.1-5.09,18.48c-4.15,28.63-2,58.35-0.88,87.13c0.66,16.93,1.3,33.88,1.06,50.82
			c-0.13,8.78-0.49,17.57-1.22,26.32c-0.71,8.64-1.89,17.21-1.09,25.89c0.33,3.63,3.24,6.16,6.96,5.3
			c10.02-2.31,19.95-0.19,28.41,5.56c3.74,2.54,7.95-0.93,8.28-4.75c1.64-19.18,0.56-38.54,0.08-57.75
			c-0.5-19.97-1.1-39.93-2.09-59.88c-0.97-19.6-2.32-39.19-4.31-58.71c-0.98-9.6-2.14-19.17-3.45-28.73
			c-1.12-8.19-0.65-18.34-9.01-22.56c-17.96-9.06-38.79-13.64-58.63-16.01C135.67,114.88,135.73,125.89,142.68,126.72L142.68,126.72
			z"/>
	</g>
</g>
<g>
	<g>
		<path class="st0" d="M170.04,350.33c-2.43,6.45-4.85,12.9-7.28,19.35c-2.12,5.64-4.86,11.54-4.66,17.7
			c0.09,2.83,0.91,5.48,2.23,7.96c1.6,3.01,0.82,0.65,2.36,0.66c-1.98-0.01-4,0.17-5.97,0.25c-7.3,0.3-14.6,0.58-21.9,0.77
			c-14.3,0.37-28.54,0.09-42.83-0.3c-12.75-0.34-26.6,1.96-38.78-2.59c-0.97,3.54-1.95,7.07-2.92,10.61
			c17.84,4.11,35.28,8.99,53.73,6.4c6.39-0.9,17.38-2.42,17.15-11.19c-0.23-8.45-9.72-8.97-15.99-8.97
			c-10.29,0.01-20.58,0.02-30.87,0.03c-4.7,0-10.34-0.87-14.94,0.01c-1.42,0.27-2.46-0.89-1.21,0.91c1.4,2.03,0.85-0.26,0.92-1.26
			c0.22-2.93,0.51-5.86,0.77-8.78c1.76-19.52,3.79-39.01,5.53-58.52c1.02-11.38,1.95-22.77,2.67-34.18c0.45-7.1,3-20.73-7.8-21.03
			c-2.69-0.08-5.89,2.6-5.5,5.5c0.99,7.39,2.18,14.73,3.69,22.03c3.54-0.97,7.07-1.95,10.61-2.92c-0.97-3.47-1.94-6.95-2.91-10.42
			c-1.9-6.81-12.52-3.92-10.61,2.92c0.97,3.47,1.94,6.95,2.91,10.42c1.92,6.87,12.03,3.97,10.61-2.92
			c-1.31-6.33-2.44-12.7-3.3-19.11c-1.83,1.83-3.67,3.67-5.5,5.5c-1.23-0.03-1.88-2.13-2.6-1.15c-0.22,0.3-0.07,1.99-0.08,2.39
			c-0.09,1.96-0.22,3.91-0.34,5.87c-0.28,4.56-0.58,9.12-0.92,13.68c-0.62,8.47-1.34,16.93-2.11,25.38
			c-1.53,16.91-3.26,33.81-4.82,50.72c-0.36,3.9-0.71,7.8-1.06,11.71c-0.27,3.13-0.88,6.51,0.53,9.46
			c3.28,6.88,13.31,4.81,19.47,4.8c8.63-0.01,17.26-0.02,25.89-0.02c4.32,0,8.63-0.03,12.95-0.01c0.4,0,3.94,0.49,4.17,0.31
			c-0.17-0.6-0.34-1.2-0.51-1.8c0.2-1.58-0.18-2.12-1.12-1.62c-0.68-0.19-2.59,0.63-3.32,0.77c-18.17,3.7-35.56-1.45-53.17-5.51
			c-6.99-1.61-9.49,8.16-2.92,10.61c13.68,5.11,29.26,2.6,43.56,3.03c16,0.48,31.95,0.56,47.95,0.04
			c7.61-0.25,16.31,0.51,23.76-1.11c5.72-1.25,8.59-6.69,6.74-12.21c-1.04-3.12-3.35-5.2-3.17-8.68c0.17-3.28,1.79-6.66,2.92-9.69
			c2.86-7.63,5.74-15.25,8.6-22.87C183.14,346.62,172.51,343.76,170.04,350.33L170.04,350.33z"/>
	</g>
</g>
<g>
	<g>
		<path class="st0" d="M64.48,277.35c7.1-17.84,6.05-39.48,4.91-58.3c-1.23-20.25-4.65-40.33-10.13-59.86
			c-1.91-6.81-12.52-3.91-10.61,2.92c5.21,18.6,8.56,37.65,9.73,56.94c1.09,17.93,2.24,38.4-4.52,55.38
			C51.25,281,61.89,283.86,64.48,277.35L64.48,277.35z"/>
	</g>
</g>
<g>
	<g>
		<path class="st0" d="M53.16,158.62c10.05-2.12,17.48-9.69,27.08-12.42c4.49-1.27,9.02,0.98,13.46,2.66
			c5.75,2.18,11.81,3.35,17.98,2.99c11.5-0.68,22.01-5.79,33.34-6.96c5.46-0.56,10.33,0.6,15.5,2.24c6.45,2.04,12.56,3.86,19.3,4.73
			c-0.93-6.87-1.86-13.75-2.79-20.62c-11.32,3.9-22.98,4.42-34.84,4.9c-12.53,0.5-25.01,1.49-37.47,2.95
			c-12.87,1.51-25.69,3.37-38.5,5.32c-6.59,1.01-14.56,1-18.53,7.34c-4.42,7.06-0.59,12.84,3.32,18.75
			c4.97,7.52,4.52,17.19,4.34,25.82c-0.26,12.81-0.55,25.63-0.68,38.44c-0.27,26.1-0.06,52.21,1.09,78.28
			c0.64,14.51,1.58,29.01,2.9,43.48c0.33,3.62,0.71,7.23,1.06,10.85c0.24,2.49,0.89,5.52,0.16,7.95c-0.68,2.25-2.74,4.21-3.86,6.29
			c-1.81,3.32-2.72,6.7-2.83,10.49c-0.18,5.97,4.97,10.09,10.5,10.5c24.58,1.8,49.16,3.61,73.74,5.41
			c5.63,0.41,12.25,1.91,17.73,0.13c6.78-2.2,8.67-8.67,10.81-14.7c3.87-10.93,7.66-21.89,10.74-33.07
			c12.46-45.19,8.2-92.97,3.05-138.94c-2.76-24.67-5.01-50,4.16-73.65c3.13-8.06-5.87-14.36-12.92-12.92
			c-19,3.88-38.02,7.77-57.2,10.65c-9.29,1.39-18.63,2.46-28,3.2c-8.65,0.68-17.02,1.51-23.5,7.95c-5.92,5.88-1.98,19,7.42,17.92
			c29.36-3.36,58.95-3.25,88.29,0.31c0-7,0-14,0-21c-19.99,2.55-39.67-4.41-59.64-2.46c-9.94,0.97-19.92,3.68-25.46,12.76
			c-4.78,7.84-3.93,17.5-2.19,26.08c4.05,19.97,8.5,39.74,11.21,59.97c2.74,20.44,4.28,41.07,4.45,61.7
			c0.1,11.48-0.24,22.97-1.06,34.42c-0.43,6.04-1,12.08-1.71,18.1c-0.3,2.56-0.63,5.11-0.99,7.65c-0.18,1.26-0.37,2.53-0.57,3.79
			c-0.1,0.63-0.2,1.26-0.3,1.89c-0.13,1.35-0.22,1.62-0.29,0.81c1.26-1.26,2.51-2.51,3.77-3.77c0.17-0.12,0.35-0.23,0.52-0.35
			c1.86,0,3.72,0,5.58,0c5.04,0.79,1.75,4.25,2.19,0.91c0.2-1.5-0.75-3.94-0.95-5.47c-0.45-3.34-0.67-6.73-0.85-10.1
			c-0.4-7.53-0.37-15.09-0.33-22.63c0.07-15.62,0.51-31.23,1.01-46.84c0.97-30.51,1.53-61.16,4.2-91.58
			c0.46-5.23,1-11.45,3.99-15.95c0.64-0.96,1.2-1.95,2.19-2.17c3.03-0.68,7.83,1.65,10.64,2.58c6.01,1.99,11.7,4.73,17.08,8.07
			c4.81,2.98,7.99,5.89,8.76,11.69c1.93,14.5,0.14,30.06-1.25,44.53c-1.5,15.67-3.27,31.32-4.98,46.97
			c-1.86,17.01-3.78,34.01-5.89,50.99c-1.02,8.21-2.07,16.42-3.2,24.61c-0.63,4.56-1.27,9.12-1.93,13.68
			c-0.56,3.85-0.65,8.24-2.06,11.89c0.9-1.54,1.8-3.09,2.7-4.63c-0.24,0.26-0.47,0.53-0.71,0.79c1.54-0.9,3.09-1.8,4.63-2.7
			c-0.39,0.12-0.78,0.24-1.17,0.36c1.86,0,3.72,0,5.58,0c0.38,0.28,0.75,0.56,1.13,0.83c-0.76-0.75-1.51-1.51-2.23-2.29
			c-1.08-1.16-2.16-2.36-3.14-3.61c-1.74-2.22-3.28-4.6-4.72-7.02c-3.39-5.7-5.95-11.7-7.88-18.04c-4.26-14-5.27-28.51-5.05-43.08
			c0.49-32.7,4.21-65.53,6.61-98.13c0.58-7.94,1.17-15.89,1.75-23.83c0.29-3.97,0.58-7.94,0.88-11.91c0.15-1.99,0.29-3.97,0.44-5.96
			c0.18-2.02,0.22-2.64,0.13-1.88c-5.19,2.87-6,4.05-2.41,3.55c6.24,1.17,13.13-1.42,19.46-0.38c4.55,0.74,5.34,4.45,6.3,8.65
			c3.21,14.06,3.61,29.82,4.44,44.41c0.92,16.06,1.19,32.16,0.82,48.24c-0.41,18.01-1.63,36.01-3.65,53.91
			c-0.98,8.66-2.17,17.29-3.57,25.89c-0.69,4.29-1.35,8.6-2.24,12.85c-0.3,1.43-0.82,2.86-1.08,4.29c-0.53,2.89-1.25,0.58,0.21,0.31
			c1.86,0,3.72,0,5.58,0c1.07,0.99,1.35,1.27,0.83,0.84c-0.68-1.01-1.33-2.04-1.95-3.08c-1.25-2.09-2.38-4.24-3.45-6.43
			c-1.75-3.6-3.24-7.31-4.64-11.06c-3.02-8.14-5.51-16.48-7.43-24.95c-4.06-17.85-5.14-36.11-4.84-54.37
			c0.61-37.13,5.32-74.35,12.2-110.8c-6.75,0-13.5,0-20.25,0c3.06,13.73,2.9,27.82,2.71,41.82c-0.2,15.17-0.51,30.35-0.86,45.52
			c-0.71,30.34-1.67,60.68-2.62,91.01c-0.36,11.55,18.82,14.68,20.62,2.79c7.29-47.97,11.99-96.29,13.85-144.78
			c0.52-13.51-20.48-13.49-21,0c-1.8,46.6-6.1,93.09-13.1,139.19c6.87,0.93,13.75,1.86,20.62,2.79c0.97-30.99,1.95-61.99,2.67-92.99
			c0.35-15.13,0.66-30.27,0.84-45.41c0.19-15.28-0.15-30.55-3.49-45.53c-2.19-9.82-18.32-10.21-20.25,0
			c-5.21,27.6-9,55.48-11.23,83.48c-2.23,27.93-2.92,56.04,2.02,83.74c2.4,13.44,6.19,26.62,11.3,39.28
			c4.48,11.1,11.12,30.65,26.04,29.38c14.78-1.26,16.97-19.01,18.86-30.4c2.31-13.94,4.16-27.96,5.54-42.02
			c2.71-27.54,3.52-55.26,2.43-82.91c-0.55-13.82-1.57-27.63-3.07-41.38c-1.27-11.68-1.77-24.96-9.81-34.33
			c-9.02-10.51-22.61-9.09-35.11-8.69c-6.35,0.2-13.11-0.07-17.83,4.98c-5.22,5.6-4.61,14.32-5.13,21.41
			c-2.09,28.46-4.18,56.93-6.27,85.39c-2.04,27.79-5.25,55.98-0.13,83.63c2.11,11.4,5.91,22.61,11.46,32.81
			c5.08,9.35,15.83,27.57,28.67,24.52c7.36-1.75,9.43-7.96,10.41-14.51c1.07-7.16,2.09-14.33,3.06-21.5
			c1.99-14.62,3.84-29.26,5.57-43.92c3.31-28.04,6.54-56.12,9.16-84.23c1.25-13.44,2.18-27.07,1.21-40.56
			c-0.46-6.37-1.45-12.78-4.81-18.34c-3.49-5.78-8.84-9.99-14.5-13.5c-10.58-6.56-24.08-12.72-36.69-13.45
			c-14.46-0.84-23.33,11.39-26.59,24.07c-3.29,12.82-3.14,26.88-3.85,40.02c-0.77,14.35-1.32,28.71-1.81,43.08
			c-0.95,27.86-2.17,55.78-1.74,83.67c0.09,6.17,0.34,12.35,1.04,18.49c0.74,6.5,1.17,14,4.99,19.52c4.26,6.16,12.84,8.53,19.37,4.4
			c6.49-4.11,6.64-12.27,7.58-19.08c3.76-27.52,4.8-55.28,3.32-83.02c-1.49-27.77-5.26-55.45-10.69-82.72
			c-1.25-6.28-2.6-12.53-4.01-18.77c-0.85-3.74-2.91-9.66-1.48-13.38c1.2-3.13,5.5-3.37,8.74-3.66c6.71-0.61,13.5-0.09,20.18,0.62
			c12.85,1.37,25.61,3.57,38.55,1.92c13.43-1.71,13.54-19.36,0-21c-29.33-3.56-58.93-3.67-88.29-0.31
			c2.47,5.97,4.95,11.95,7.42,17.92c1.23-1.22,3.42-1.34,5.32-1.55c4.31-0.49,8.67-0.68,12.99-1.13c9.28-0.96,18.54-2.22,27.76-3.66
			c17.89-2.81,35.63-6.43,53.37-10.06c-4.31-4.31-8.61-8.61-12.92-12.92c-12.01,30.96-6.37,64.4-2.98,96.4
			c1.8,16.93,2.79,33.95,2.94,50.98c0.15,16.63-0.16,33.37-3.45,49.72c-1.85,9.2-4.37,18.25-7.21,27.19
			c-1.42,4.48-2.92,8.94-4.46,13.38c-0.82,2.37-1.65,4.74-2.49,7.1c-0.31,0.89-0.63,1.77-0.94,2.66c-0.21,0.59-0.42,1.18-0.63,1.77
			c-0.55,1.46-0.39,1.19,0.48-0.81c1.54-0.9,3.09-1.8,4.63-2.7c-2.38,0.68-6.67-0.47-9.16-0.66c-3.65-0.27-7.31-0.54-10.96-0.8
			c-7.31-0.54-14.62-1.07-21.92-1.61c-14.62-1.07-29.23-2.15-43.85-3.22c3.5,3.5,7,7,10.5,10.5c0.03-0.86,2.38-3.57,3.06-4.72
			c2.23-3.75,3.38-7.71,3.75-12.05c0.69-8.07-1.18-16.68-1.86-24.72c-1.38-16.45-2.29-32.94-2.85-49.44
			c-1.12-33.36-0.81-66.75-0.06-100.11c0.19-8.33,0.3-16.55-1.03-24.8c-0.61-3.77-1.71-7.29-3.21-10.79
			c-0.78-1.81-1.6-3.58-2.68-5.24c-0.52-0.8-1.11-1.55-1.69-2.31c-0.43-0.56-0.86-1.12-1.3-1.67c-0.94-1.34-0.82-0.71,0.35,1.89
			c-0.48,1.77-0.96,3.53-1.43,5.3c0.19-0.37,0.38-0.73,0.57-1.1c-1.26,1.26-2.51,2.51-3.77,3.77c1.26-0.76,4.39-0.63,5.9-0.86
			c2.57-0.39,5.14-0.79,7.71-1.18c5.14-0.78,10.28-1.53,15.43-2.25c10.32-1.43,20.68-2.64,31.07-3.5
			c20.07-1.67,41.16-0.18,60.46-6.84c4.92-1.7,8.33-6.18,7.52-11.52c-0.84-5.58-4.97-8.42-10.31-9.1c-5.8-0.74-11.39-3.4-16.99-4.97
			c-5.97-1.68-12.21-2.52-18.4-1.92c-11.61,1.14-22.71,6.7-34.34,6.95c-5.63,0.12-10.42-2.32-15.63-4.13
			c-5.99-2.09-12.28-2.63-18.49-1.17c-10.31,2.42-18.14,10.6-28.41,12.76c-5.55,1.17-8.77,7.69-7.33,12.92
			C41.82,157.04,47.59,159.79,53.16,158.62L53.16,158.62z"/>
	</g>
</g>
<g>
	<g>
		<path class="st1" d="M177.22,379.51c0.08,0.76,0.11,1.53,0.08,2.3c-0.01,0.21-0.02,0.43-0.04,0.64c-0.01,0.07-0.07,0.63-0.01,0.22
			c-0.05,0.38-0.13,0.76-0.21,1.13c-0.08,0.37-0.18,0.74-0.3,1.11c-0.06,0.2-0.13,0.41-0.2,0.61c-0.01,0.04-0.18,0.49-0.09,0.25
			c0.11-0.27-0.14,0.29-0.16,0.34c-0.07,0.14-0.14,0.28-0.22,0.41c-0.1,0.17-0.2,0.33-0.31,0.49c-0.2,0.3,0.35-0.33-0.12,0.12
			c-0.12,0.11-0.23,0.22-0.35,0.32c0.26-0.22-0.07,0.04-0.19,0.11c-0.31,0.2-0.64,0.37-0.97,0.54c-0.73,0.37-1.48,0.73-2.21,1.09
			c-1.61,0.79-3.21,1.58-4.82,2.37c-1.18,0.58-1.59,2.34-0.9,3.42c0.78,1.21,2.16,1.52,3.42,0.9c1.73-0.85,3.46-1.7,5.2-2.55
			c1.64-0.81,3.46-1.54,4.65-3c2.37-2.9,3.13-7.15,2.75-10.8c-0.13-1.3-1.05-2.56-2.5-2.5
			C178.48,377.06,177.08,378.12,177.22,379.51L177.22,379.51z"/>
	</g>
</g>
<g>
	<g>
		<path class="st0" d="M184.03,401.99c-1.32-0.83-2.64-1.67-3.96-2.5c0.17,1.31,0.34,2.62,0.51,3.93c0.28-0.32-0.23,0.11-0.46,0.13
			c-0.36,0.04-0.58-0.12-0.84-0.34c0.37-1.39,0.74-2.79,1.1-4.18c-4.59,1.17-8.97,1.85-13.65,2.1c-1.44,0.08-3.07,1.57-2.41,3.16
			c0.62,1.5,1.65,2.21,3.24,2.37c1.11,0.11,2.27,0.02,3.38,0.02c2.38,0,4.76-0.01,7.14-0.01c1.31,0,2.56-1.15,2.5-2.5
			c-0.06-1.35-1.1-2.5-2.5-2.5c-1.9,0-3.81,0.01-5.71,0.01c-0.9,0-1.8,0-2.7,0c-0.48,0-0.95,0-1.43,0c-0.16,0-0.63-0.12-0.36,0.02
			c0.22,0.11,0.5,0.1,0.67,0.32c0.21,0.37,0.43,0.74,0.64,1.1c-0.02-0.05-0.04-0.1-0.06-0.16c-0.8,1.05-1.61,2.11-2.41,3.16
			c5.05-0.27,10.08-1.03,14.97-2.28c1.7-0.43,2.58-2.97,1.1-4.18c-1.67-1.37-4.25-1.58-5.77,0.2c-1.06,1.25-0.94,3.01,0.51,3.93
			c1.32,0.83,2.64,1.67,3.95,2.5c1.11,0.7,2.8,0.27,3.42-0.9C185.58,404.17,185.21,402.73,184.03,401.99L184.03,401.99z"/>
	</g>
</g>
<g>
	<g>
		<path class="st0" d="M94.45,381.14c1.59,0.13,2.92-1.16,3.23-2.65c0.39-1.88-0.85-3.46-2.55-4.1c-2.26-0.86-4.96-0.44-7.21,0.25
			c-2.13,0.65-4.14,1.63-6.28,2.23c-1.19,0.34-1.71,0.44-2.82,0.41c-0.55-0.01-0.27-0.07,0.17,0.29c0.44,0.36,0.32,0.28,0.49,0.67
			c0.01,0.07-0.02,0.14-0.08,0.19c0.15-0.24,0.18-0.3,0.09-0.18c-0.1,0.11-0.05,0.07,0.15-0.13c-0.05,0.08-0.12,0.12-0.21,0.14
			c1.27-0.46,2.12-1.7,1.75-3.08c-0.34-1.22-1.8-2.21-3.08-1.75c-2.8,1.02-4.75,4.41-2.91,7.16c1.59,2.38,5.17,1.79,7.52,1.17
			c2.11-0.56,4.09-1.5,6.16-2.18c0.52-0.17,1.04-0.32,1.57-0.44c0.66-0.15,0.63-0.16,1.18-0.19c0.39-0.02,1.09-0.02,1.26,0
			c-0.14-0.02,0.47,0.11,0.57,0.13c0.17,0.05,0.16,0.05-0.01,0c-1.1-1.42-0.76-2.4,1.02-2.94c-1.35-0.11-2.5,1.23-2.5,2.5
			C91.95,380.08,93.1,381.03,94.45,381.14L94.45,381.14z"/>
	</g>
</g>
<g>
	<g>
		<path class="st2" d="M118.52,182.94c0.33-0.33,0.67-0.67,1-1c0.24-0.23,0.42-0.49,0.52-0.8c0.16-0.3,0.23-0.62,0.22-0.96
			c0.01-0.34-0.06-0.67-0.22-0.96c-0.1-0.31-0.27-0.58-0.52-0.8c-0.17-0.13-0.34-0.26-0.51-0.39c-0.39-0.23-0.81-0.34-1.26-0.34
			c-0.22,0.03-0.44,0.06-0.66,0.09c-0.42,0.12-0.79,0.33-1.1,0.64c-0.33,0.33-0.67,0.67-1,1c-0.24,0.23-0.42,0.49-0.52,0.8
			c-0.16,0.3-0.23,0.62-0.22,0.96c-0.01,0.34,0.06,0.67,0.22,0.96c0.1,0.31,0.27,0.58,0.52,0.8c0.17,0.13,0.34,0.26,0.51,0.39
			c0.39,0.23,0.81,0.34,1.26,0.34c0.22-0.03,0.44-0.06,0.66-0.09C117.84,183.46,118.21,183.25,118.52,182.94L118.52,182.94z"/>
	</g>
</g>
<g>
	<g>
		<path class="st2" d="M116.44,210.38c0.32,0.03,0.63-0.01,0.96-0.06c0.32-0.04,0.63-0.08,0.94-0.19c0.29-0.1,0.58-0.23,0.87-0.36
			c0.1-0.05,0.2-0.1,0.29-0.16c0.34-0.21,0.69-0.46,0.96-0.76c0.45-0.48,0.71-0.93,0.92-1.54c0.01-0.04,0.03-0.08,0.03-0.12
			c0.05-0.24,0.09-0.52,0.1-0.77c0.01-0.31-0.03-0.63-0.13-0.92c-0.17-0.49-0.34-0.84-0.71-1.22c-0.19-0.19-0.4-0.36-0.63-0.49
			c-0.15-0.08-0.46-0.2-0.62-0.26c-0.01-0.01-0.03-0.01-0.04-0.02c-0.03-0.01-0.05-0.01-0.08-0.02c-0.19-0.04-0.57-0.11-0.83-0.1
			c-0.12,0.01-0.31,0.04-0.37,0.05c-0.08,0.01-0.26,0.02-0.38,0.05c-0.13,0.03-0.26,0.1-0.38,0.15c-0.12,0.05-0.26,0.1-0.37,0.17
			c-0.09,0.05-0.37,0.29-0.27,0.21c-0.04,0.03-0.2,0.14-0.28,0.22c-0.01,0.01-0.02,0.02-0.03,0.03c-0.13,0.17-0.26,0.34-0.39,0.51
			c-0.01,0.01-0.01,0.02-0.02,0.02c0,0.01-0.01,0.02-0.01,0.03c-0.07,0.13-0.22,0.49-0.27,0.63c-0.07,0.23-0.11,0.48-0.1,0.72
			c0,0.01,0,0.03,0,0.04c0.03,0.22,0.06,0.44,0.09,0.66c0,0.02,0,0.03,0.01,0.05c0.08,0.33,0.23,0.61,0.45,0.85
			c0.18,0.27,0.41,0.49,0.7,0.64c0.29,0.18,0.6,0.28,0.93,0.3c0.33,0.07,0.66,0.06,1-0.04c0.2-0.08,0.4-0.17,0.6-0.25
			c0.38-0.22,0.67-0.52,0.9-0.9c0.08-0.2,0.17-0.4,0.25-0.6c0.12-0.44,0.12-0.89,0-1.33c0-0.01-0.01-0.03-0.01-0.05
			c0.03,0.22,0.06,0.44,0.09,0.66c0-0.02,0-0.04,0-0.06c-0.03,0.22-0.06,0.44-0.09,0.66c0-0.02,0.01-0.04,0.01-0.06
			c-0.08,0.2-0.17,0.4-0.25,0.6c0.01-0.02,0.02-0.05,0.04-0.07c-0.13,0.17-0.26,0.34-0.39,0.51c0.02-0.02,0.04-0.04,0.06-0.05
			c-0.17,0.13-0.34,0.26-0.51,0.39c0.03-0.02,0.06-0.04,0.09-0.05c-0.2,0.08-0.4,0.17-0.6,0.25c0.04-0.02,0.09-0.03,0.13-0.04
			c-0.22,0.03-0.44,0.06-0.66,0.09c0.06-0.01,0.12-0.01,0.19,0c-0.22-0.03-0.44-0.06-0.66-0.09c0.05,0.01,0.09,0.02,0.13,0.04
			c-0.2-0.08-0.4-0.17-0.6-0.25c0.04,0.02,0.07,0.03,0.1,0.06c-0.17-0.13-0.34-0.26-0.51-0.39c0.02,0.02,0.04,0.04,0.06,0.06
			c-0.13-0.17-0.26-0.34-0.39-0.51c0.02,0.03,0.03,0.05,0.05,0.08c-0.08-0.2-0.17-0.4-0.25-0.6c0.02,0.05,0.03,0.09,0.04,0.14
			c-0.03-0.22-0.06-0.44-0.09-0.66c0.01,0.06,0.01,0.12,0,0.18c0.03-0.22,0.06-0.44,0.09-0.66c-0.01,0.09-0.04,0.17-0.07,0.25
			c0.08-0.2,0.17-0.4,0.25-0.6c-0.04,0.1-0.1,0.18-0.16,0.27c0.13-0.17,0.26-0.34,0.39-0.51c-0.09,0.11-0.19,0.21-0.31,0.3
			c0.17-0.13,0.34-0.26,0.51-0.39c-0.2,0.15-0.42,0.28-0.65,0.38c0.2-0.08,0.4-0.17,0.6-0.25c-0.24,0.1-0.5,0.17-0.76,0.21
			c0.22-0.03,0.44-0.06,0.66-0.09c-0.21,0.03-0.41,0.03-0.62,0.01c-0.34-0.01-0.67,0.06-0.96,0.22c-0.31,0.1-0.58,0.27-0.8,0.52
			c-0.24,0.23-0.42,0.49-0.52,0.8c-0.16,0.3-0.23,0.62-0.22,0.96c0.03,0.22,0.06,0.44,0.09,0.66c0.12,0.42,0.33,0.79,0.64,1.1
			c0.17,0.13,0.34,0.26,0.51,0.39C115.57,210.27,115.99,210.38,116.44,210.38L116.44,210.38z"/>
	</g>
</g>
<g>
	<g>
		<path class="st2" d="M120.18,241.59c0.2-0.16,0.41-0.48,0.52-0.64c0.04-0.05,0.07-0.11,0.1-0.17c0.08-0.18,0.26-0.52,0.31-0.78
			c0-0.02,0.01-0.03,0.01-0.05c0.04-0.23,0.07-0.47,0.09-0.7c0-0.03,0.01-0.07,0.01-0.1c0-0.28-0.05-0.57-0.11-0.84
			c-0.01-0.03-0.01-0.06-0.02-0.09c0-0.02-0.01-0.03-0.02-0.05c-0.08-0.21-0.17-0.42-0.26-0.63c-0.03-0.06-0.06-0.12-0.1-0.17
			c-0.12-0.17-0.32-0.48-0.53-0.64c-0.23-0.24-0.49-0.42-0.8-0.52c-0.3-0.16-0.62-0.23-0.96-0.22c-0.34-0.01-0.67,0.06-0.96,0.22
			c-0.31,0.1-0.58,0.27-0.8,0.52c-0.13,0.17-0.26,0.34-0.39,0.51c-0.23,0.39-0.34,0.81-0.34,1.26c0.03,0.22,0.06,0.44,0.09,0.66
			c0.12,0.42,0.33,0.79,0.64,1.1c0.05,0.04,0.09,0.08,0.13,0.13c-0.13-0.17-0.26-0.34-0.39-0.51c0.04,0.06,0.08,0.12,0.1,0.18
			c-0.08-0.2-0.17-0.4-0.25-0.6c0.03,0.07,0.05,0.14,0.06,0.22c-0.03-0.22-0.06-0.44-0.09-0.66c0.01,0.09,0.01,0.17,0,0.26
			c0.03-0.22,0.06-0.44,0.09-0.66c-0.01,0.08-0.03,0.15-0.06,0.22c0.08-0.2,0.17-0.4,0.25-0.6c-0.03,0.06-0.06,0.12-0.11,0.18
			c0.13-0.17,0.26-0.34,0.39-0.51c-0.04,0.05-0.08,0.09-0.13,0.13c-0.24,0.23-0.42,0.49-0.52,0.8c-0.16,0.3-0.23,0.62-0.22,0.96
			c-0.01,0.34,0.06,0.67,0.22,0.96c0.1,0.31,0.27,0.58,0.52,0.8c0.17,0.13,0.34,0.26,0.51,0.39c0.39,0.23,0.81,0.34,1.26,0.34
			c0.22-0.03,0.44-0.06,0.66-0.09C119.5,242.12,119.87,241.9,120.18,241.59L120.18,241.59z"/>
	</g>
</g>
<g>
	<g>
		<path class="st2" d="M119.09,268.34c3.22,0,3.22-5,0-5C115.87,263.34,115.86,268.34,119.09,268.34L119.09,268.34z"/>
	</g>
</g>
<g>
	<g>
		<path class="st3" d="M128.86,27.82c0.01,7.07,2.69,13.26,4.62,19.92c2.14,7.42,0.4,14.39-0.92,21.81
			c-1.21,6.81-2.08,13.19-9.36,15.83c-7.22,2.62-12.06-1.98-14.44-8.47c-2.32-6.31-3.15-13.09-5.35-19.47
			c-1.98-5.76-5.33-13.13-1.98-19.04c2.94-5.19,9.13-2.68,13.7-1.52c5.9,1.5,11.24,2.03,16.89-0.59c6.06-2.8,1.45-11.04-4.24-10.05
			c-6.02,1.04-12.24,2.63-18.35,2.96c-5.93,0.32-11.02-4.38-16.9-2.93C81.47,29,84.38,44.11,85.81,52
			c2.06,11.37,4.18,25.56,11.13,35.1c6.77,9.3,17.4,10.82,26.76,4.25c8.8-6.18,16.95-14.15,17.24-25.52
			c0.14-5.56-1.01-11.39-2.21-16.79c-1.17-5.23-2.33-11.17-7.38-14.04c-7.94-4.52-21.07-2.85-27.53,3.51
			c-8.11,7.98-5.99,20.1-3.44,29.96c0.89,3.46,1.89,6.9,2.91,10.32c0.78,2.63,1.37,5.68,3.65,7.45c5.46,4.22,10.4-1.64,11.48-6.64
			c3.09-14.23-3.3-28.52-9.11-41.15c-2.25-4.89-10.7-2.54-10.25,2.78c0.82,9.52,1.63,19.05,2.45,28.57
			c0.53,6.15,1.22,17.6,10.64,15.2c6.87-1.75,10.72-9.92,12.41-16.14c2.34-8.6,2.28-17.52,0.59-26.23
			c-0.99-5.11-7.54-4.77-10.05-1.31c-4.31,5.92-7.02,12.73-8.01,19.98c-0.76,5.57-1.77,15.68,3.83,19.24
			c6.79,4.33,11.62-4.35,13.56-9.5c1.3-3.45,1.98-7.05,2.62-10.67c0.28-1.57,0.53-3.15,0.83-4.72c0.19-1.04,0.41-2.08,0.65-3.11
			c0.51-1.79,0.54-2.03,0.09-0.72c-1.78,0.47-3.57,0.94-5.35,1.41c-0.81-0.74-0.73-0.48,0.24,0.78c0.49,0.78,0.85,1.61,1.1,2.5
			c0.59,1.77,0.78,3.61,0.72,5.46c-0.12,3.89-1.39,7.58-3.52,10.82c-2.36,3.61-5.65,6.59-9.18,9.03c-1.54,1.06-4.22,1.98-5.45,3.32
			c-1.74,0.38-1.86,0.89-0.37,1.53c-0.64-0.28-1.28-0.54-1.92-0.8c-9.69-2.27-8.84,11.45-6.95,16.91c1.23,3.55,3.58,6.18,6.61,8.3
			c1.82,1.27,5.73,2.53,6.46,4.8c1.32,4.14,6.01,5.14,9.19,2.43c4.62-3.94,9.04-8.09,13.19-12.52c3.34-3.56,7.21-7.66,4.88-12.83
			c-1.89-4.19-6.1-4.75-10.05-3.46c-1.27,0.42-14.61,6.49-14.83,5.81c-2.17-6.71-12.79-3.84-10.61,2.92
			c3.31,10.25,13.62,8.57,21.37,4.89c1.88-0.89,4.58-1.52,6.22-2.73c2.31-0.31,2.18-1.25-0.38-2.82c-0.82-2.46-1.66-2.98-2.53-1.57
			c-0.8,0.32-1.86,2.03-2.47,2.67c-3.97,4.19-8.18,8.12-12.56,11.86c3.06,0.81,6.13,1.62,9.19,2.43c-1.37-4.3-4.25-6.83-7.99-9.18
			c-1.58-0.99-3.47-1.78-4.59-3.31c-0.82-1.12-1.04-2.46-1.25-3.8c-0.13-0.84,0.53-4.36-0.39-2.39c-1.1,0.84-2.19,1.69-3.29,2.53
			c-2.44-0.51-2.98-0.52-1.6-0.01c0.43,0.25,0.89,0.37,1.39,0.38c1.14,0.22,2.33,0.22,3.46-0.02c2.31-0.51,4.75-2.12,6.78-3.29
			c4.27-2.46,8.4-5.42,11.88-8.93c6.71-6.78,11.09-16.09,10.23-25.79c-0.56-6.29-6.61-22.39-15.39-15.11
			c-3.57,2.95-3.66,9.16-4.4,13.4c-0.53,2.98-1.31,12.52-4.59,13.95c1.41-0.18,2.83-0.37,4.24-0.55c-0.33-0.12-0.65-0.24-0.98-0.35
			c1.1,0.84,2.19,1.69,3.29,2.53c-2.08-3.09-0.74-10.01,0.08-13.41c1.13-4.69,3.24-8.84,6.08-12.73c-3.35-0.44-6.7-0.88-10.05-1.31
			c1.03,5.32,1.25,10.88,0.33,16.24c-0.44,2.56-1.04,5.3-2.09,7.7c-0.38,0.87-0.86,1.78-1.4,2.57c-1.1,1.59-3.21,1.9-0.18,2.65
			c2.55,0.64,1.72-0.01,1.55-2.06c-0.13-1.59-0.27-3.17-0.41-4.76c-0.24-2.86-0.49-5.71-0.73-8.57c-0.52-6.03-1.03-12.06-1.55-18.09
			c-3.42,0.93-6.83,1.85-10.25,2.78c2.52,5.48,4.97,11.01,6.61,16.83c0.77,2.73,1.42,5.52,1.63,8.36c0.15,2.01,0.9,7.42-0.65,8.91
			c1.3-0.54,2.59-1.07,3.89-1.61c-0.34-0.02-0.69-0.04-1.03-0.06c1.58,0.91,3.17,1.82,4.75,2.72c-2.05-3.61-2.76-8.74-3.81-12.74
			c-1.03-3.91-2.15-7.9-2.2-11.97c-0.09-7.81,5.12-11.23,12.46-10.69c4.94,0.36,5.1,1.78,6.22,6.38c1.04,4.28,1.97,8.73,2.2,13.14
			c0.47,8.8-5.55,14.35-12.41,19.04c-8.38,5.74-12.92-2.12-15.33-9.56c-2.67-8.25-4.7-17-6.07-25.55
			c-0.17-1.06-2.07-9.35-0.36-10.48c-0.49,0.32,7.12,3.07,8.68,3.28c8.55,1.13,17.91-1.69,26.28-3.14
			c-1.41-3.35-2.83-6.7-4.24-10.05c-4.65,2.15-11.66-1.64-16.39-2.28c-5.63-0.76-11.33,0.4-15.38,4.63
			c-10.36,10.81-3.42,24.79-0.09,36.82c3.25,11.76,5.4,27.11,19.44,30.72c6.44,1.66,13.87-0.43,19.18-4.23
			c5.32-3.81,7.9-9.43,9.17-15.71c1.66-8.2,4.13-17.35,3.02-25.74c-1.05-7.92-5.52-15.14-5.53-23.2
			C139.85,20.74,128.85,20.73,128.86,27.82L128.86,27.82z"/>
	</g>
</g>
<g>
	<g>
		<path class="st3" d="M121.27,110.7c4.2-5.19,5.75-11.05,4.71-17.64c-0.46-2.94-4.13-4.56-6.77-3.84c-3.13,0.86-4.3,3.82-3.84,6.77
			c0.36,2.32-0.41,5.12-1.88,6.94c-1.87,2.31-2.26,5.52,0,7.78C115.42,112.63,119.4,113.02,121.27,110.7L121.27,110.7z"/>
	</g>
</g>
<g>
	<g>
		<path class="st4" d="M88.98,29.83c2.82-16.02,19.49-23.51,34.33-19.47c3.77,1.03,7.38,2.65,10.65,4.79
			c3.93,2.57,5.37,5.59,6.81,10.05c2.59,7.99,3.13,16.23,2.02,24.53c2.17-0.59,4.35-1.18,6.52-1.77c-2.62-3.79-1.78-9.16-2.4-13.57
			c-0.52-3.75-1.41-7.42-2.73-10.98c-2.4-6.43-5.72-10.12-12.83-7.28c-8.93,3.57-16.65,3.54-26.08,1.8c-6.3-1.16-12.69-2-17.75,2.74
			c1.83,1.41,3.66,2.83,5.5,4.24c3.14-5.59,8.82-8.38,15-9.26c3.4-0.49,6.84-0.4,10.26-0.17c1.41,0.1,9.11-0.09,9.56,1.9
			c0.81-1.44,1.63-2.87,2.44-4.31c-11.93,3.85-24.37-2.63-36.57,0.31c-4.38,1.05-2.52,7.8,1.86,6.75
			c12.17-2.93,24.38,3.62,36.57-0.31c1.87-0.6,2.87-2.39,2.44-4.31c-0.79-3.52-3.74-5.31-7.11-6.03c-5.48-1.17-11.7-1.48-17.26-1.09
			c-9.38,0.66-18.48,4.49-23.24,12.98c-1.96,3.49,2.59,6.97,5.5,4.24c4.2-3.94,12.8-0.46,17.79,0.17
			c6.16,0.78,12.62,0.81,18.59-1.12c1.35-0.44,2.63-1.19,3.98-1.59c2.13-0.63,2.68-0.98,4.11,1c1.7,2.35,2.29,6.75,2.81,9.52
			c1.11,6-0.12,12.62,3.52,17.88c2.1,3.03,6.07,1.65,6.52-1.77c1.44-10.76,0.03-21.65-4.27-31.63c-3.6-8.36-13.36-12.92-21.87-14.87
			c-17.89-4.1-38.06,5.62-41.42,24.74C81.45,32.38,88.2,34.27,88.98,29.83L88.98,29.83z"/>
	</g>
</g>
<g>
	<g>
		<path class="st3" d="M17.64,364c-4.34,6.26-6.25,13.82-5.12,21.39c0.83,5.5,3.67,15.82,9.29,18.31c0.9-2.13,1.8-4.26,2.7-6.4
			c-0.44-0.13-4.05-0.87-4.27-1.24c0.93,1.59,1.8-3.4,1.74-3.2c0.82-3.12,2.02-6.11,3.57-8.94c0.27-0.49,1.11-2.55,1.31-2.61
			c0.29-0.08,3.33,3.98,3.54,4.25c2.47,3.15,4.7,6.48,6.8,9.89c2.17,3.52,7.07,1.12,6.4-2.7c-1.26-7.16-2.52-14.33-3.78-21.49
			c-1.01-5.73-1.82-7.9-7.86-8.6c-4.52-0.53-11.01-2.61-14.4,1.59c-3.63,4.48-0.61,9.13-0.11,14.01c0.33,3.19,3.51,4.4,5.97,2.47
			c3.41-2.67,3.01-7.53,6.09-10.15c-1.95-0.51-3.9-1.03-5.85-1.54c1.21,2.99,2.1,7.6,5.73,8.45c3.75,0.89,6.13-2.23,6.82-5.5
			c-2.29-0.31-4.58-0.62-6.87-0.93c-0.05,3.79,0.43,7.36,1.48,11c1.24,4.32,7.99,2.49,6.75-1.86c-0.87-3.05-1.26-5.98-1.23-9.14
			c0.05-3.87-6.04-4.86-6.87-0.93c0.13,0.14,0.26,0.28,0.4,0.42c0.82,0.34,1.65,0.68,2.47,1.03c-0.85-0.87-1.47-3.3-1.92-4.4
			c-1.02-2.52-3.71-3.37-5.85-1.54c-3.21,2.73-2.96,7.7-6.09,10.15c1.99,0.82,3.98,1.65,5.97,2.47c-0.19-1.87-2.72-8.46-1.39-9.56
			c0.68-0.56,4.05,0.41,5.1,0.53c1.26,0.14,2.53,0.29,3.79,0.43c0.48-0.74,0.68-0.56,0.6,0.53c0.86,1.32,0.75,4.28,1.03,5.86
			c0.34,1.95,0.69,3.91,1.03,5.86c0.74,4.23,1.49,8.46,2.23,12.7c2.13-0.9,4.26-1.8,6.4-2.7c-3.3-5.34-7.23-12.26-12.16-16.29
			c-4.21-3.45-8.33-0.57-10.78,3.36c-3.12,4.99-5.61,11.36-6.13,17.25c-0.5,5.69,3.91,6.5,8.46,7.82c3.7,1.08,6.4-4.76,2.7-6.4
			c-2-0.89-2.94-4.34-3.74-6.21c-1.21-2.84-2.16-5.75-2.38-8.85c-0.39-5.5,1.35-10.59,4.46-15.07
			C26.26,363.82,20.19,360.32,17.64,364L17.64,364z"/>
	</g>
</g>
<g>
	<g>
		<path class="st3" d="M184.07,364.43c3.54,0.17,7.08,0.34,10.62,0.51c1.61,0.08,3.22,0.16,4.83,0.23c0.97,0.05,1.93,0.09,2.9,0.14
			c1.46,0.27,1.35-0.09-0.33-1.09c-1.36,2.13-1.48,6.64-2.04,9.13c-0.75,3.35-1.49,6.7-2.24,10.04c-0.66,2.98-1.06,6.32-2.82,8.87
			c-0.77,1.12-2.03,2.64-3.39,3.11c-2.25,0.78-2.35-0.49-3.82-1.58c-3.8-2.82-8.61-1.89-12.8-0.54c-4.31,1.39-2.55,7.64,1.86,6.75
			c13.87-2.8,12.86-19.33,8.15-29.34c-2.33-4.96-6.84-4.71-10.05-0.76c-3.85,4.74-5.31,11.04-4.52,17.02c0.58,4.31,7.05,4.66,7,0
			c-0.1-9.12,7.41-16.42,10.54-24.62c1.31-3.43-3.51-5.66-5.85-3.41c-3.69,3.55-5.54,7.84-5.78,12.94
			c-0.11,2.23,2.33,4.03,4.43,3.37c4.76-1.49,8.79-3.92,12.28-7.49c-1.95-1.14-3.9-2.27-5.85-3.41c-0.85,4.85-1.7,9.7-2.55,14.55
			c-0.76,4.36,5.62,6.3,6.75,1.86c1.43-5.65,0.83-10.91-1.65-16.16c-1.48-3.15-6.7-1.6-6.52,1.77c0.22,4.29,0.44,8.58,0.67,12.87
			c0.21,4,1.68,9.96-0.03,13.65c-1.86,4.02,3.8,7.53,6.04,3.53c4.98-8.85,8.38-18.33,10.02-28.36c-2.25,0-4.5,0-6.75,0
			c2.02,8.06,1.94,16.07-0.2,24.1c2.25,0.62,4.5,1.24,6.75,1.86c1.57-7.02,3.13-14.04,4.7-21.07c0.73-3.26,1.78-8.85-3.02-9.53
			c-1.8-0.26-3.85,0.41-4.31,2.44c-1.01,4.49-2.03,8.98-3.04,13.47c-0.43,1.92-0.87,3.85-1.3,5.77c-0.46,2.05-0.6,6.07-2.31,7.54
			c0.82-0.34,1.65-0.68,2.47-1.03c0.24,0.21,0.48,0.41,0.72,0.62c0.12,0.9,0.24,1.8,0.35,2.7c0.07-0.27,0.13-0.54,0.2-0.81
			c1.08-4.37-5.67-6.24-6.75-1.86c-1.46,5.93,6.12,8.59,9.46,3.79c2.37-3.4,2.58-9,3.47-12.94c1.16-5.13,2.32-10.26,3.48-15.39
			c-1.44,0.81-2.87,1.63-4.31,2.44c-2.57-0.36-2.06,1.78-2.48,3.66c-0.48,2.14-0.95,4.27-1.43,6.41c-0.88,3.97-1.77,7.94-2.65,11.91
			c-0.98,4.38,5.58,6.24,6.75,1.86c2.45-9.21,2.51-18.58,0.2-27.82c-0.79-3.17-6.18-3.5-6.75,0c-1.55,9.45-4.61,18.34-9.32,26.69
			c2.01,1.18,4.03,2.36,6.04,3.53c2.04-4.39,1.42-8.79,1.18-13.5c-0.29-5.52-0.57-11.03-0.86-16.55c-2.17,0.59-4.35,1.18-6.52,1.77
			c1.65,3.51,1.9,7.03,0.95,10.77c2.25,0.62,4.5,1.24,6.75,1.86c0.85-4.85,1.7-9.7,2.55-14.55c0.57-3.25-3.22-6.09-5.85-3.41
			c-2.67,2.73-5.53,4.54-9.19,5.69c1.48,1.12,2.95,2.25,4.43,3.37c0.15-3.25,1.4-5.76,3.73-7.99c-1.95-1.14-3.9-2.27-5.85-3.41
			c-3.5,9.17-10.9,16.1-10.79,26.48c2.33,0,4.67,0,7,0c-0.34-2.55-0.38-4.93,0.34-7.44c0.39-1.37,1.75-5.48,3.34-5.91
			c-0.9-0.12-1.8-0.24-2.7-0.35c1.97,1.26,2.97,9,3,10.82c0.09,4.42-1.79,8.27-6.44,9.21c0.62,2.25,1.24,4.5,1.86,6.75
			c2.18-0.7,4.83-1.81,7.02-0.42c1.39,0.88,1.8,2.15,3.5,2.82c2.6,1.03,5.4,0.37,7.77-0.98c7.46-4.22,8.53-12.17,10.24-19.82
			c1.02-4.56,2.1-9.12,3.06-13.7c0.55-2.6,1.39-5.51-0.63-7.72c-2.07-2.27-5.48-1.87-8.28-2.01c-5.15-0.25-10.3-0.5-15.45-0.75
			C179.56,357.21,179.58,364.21,184.07,364.43L184.07,364.43z"/>
	</g>
</g>
<g>
	<g>
		<path class="st5" d="M15.78,367.94c0.22-0.33,0.44-0.67,0.67-1c0.26-0.4,0.39-0.84,0.42-1.3c0.1-0.47,0.08-0.93-0.06-1.4
			c-0.11-0.46-0.32-0.85-0.63-1.19c-0.25-0.38-0.57-0.68-0.98-0.9c-0.81-0.43-1.8-0.64-2.7-0.35c-0.28,0.12-0.56,0.24-0.84,0.35
			c-0.53,0.31-0.94,0.73-1.26,1.26c-0.22,0.33-0.44,0.67-0.67,1c-0.26,0.4-0.39,0.84-0.42,1.3c-0.1,0.47-0.08,0.93,0.06,1.4
			c0.11,0.46,0.32,0.85,0.63,1.19c0.25,0.38,0.57,0.68,0.98,0.9c0.81,0.43,1.8,0.64,2.7,0.35c0.28-0.12,0.56-0.24,0.84-0.35
			C15.05,368.88,15.46,368.46,15.78,367.94L15.78,367.94z"/>
	</g>
</g>
<g>
	<g>
		<path class="st5" d="M214.44,363.74c-0.11-0.22-0.22-0.44-0.33-0.67c-0.22-0.41-0.52-0.74-0.9-0.98
			c-0.34-0.31-0.73-0.52-1.19-0.63c-0.47-0.15-0.93-0.17-1.4-0.06c-0.47,0.02-0.9,0.16-1.3,0.42c-0.24,0.18-0.47,0.36-0.71,0.55
			c-0.43,0.44-0.73,0.95-0.9,1.54c-0.04,0.31-0.08,0.62-0.13,0.93c0,0.63,0.16,1.22,0.48,1.77c0.11,0.22,0.22,0.44,0.33,0.67
			c0.22,0.41,0.52,0.74,0.9,0.98c0.34,0.31,0.73,0.52,1.19,0.63c0.47,0.15,0.93,0.17,1.4,0.06c0.47-0.02,0.9-0.16,1.3-0.42
			c0.24-0.18,0.47-0.36,0.71-0.55c0.43-0.44,0.73-0.95,0.9-1.54c0.04-0.31,0.08-0.62,0.13-0.93
			C214.92,364.87,214.76,364.28,214.44,363.74L214.44,363.74z"/>
	</g>
</g>
<g>
	<g>
		<path class="st5" d="M213.42,370c4.5,0,4.51-7,0-7C208.92,363,208.91,370,213.42,370L213.42,370z"/>
	</g>
</g>
<g>
	<g>
		<path class="st5" d="M54.8,415.45c7.89,6.26,18.15,5.45,27.73,5.94c10.16,0.52,20.57,1.17,30.17-2.8
			c-2.26-2.26-4.51-4.51-6.77-6.77c-6.09,29.61-13.37,59.14-14.37,89.47c-0.2,6.05,9.9,7.69,10.8,1.46
			c2.08-14.36,7.95-27.7,6.77-42.48c-1.04-13.01-5.66-25.47-13.63-35.82c-0.66,2.51-1.32,5.02-1.97,7.53
			c3.98-2.61,8.11-4.83,12.49-6.7c-2.76-1.58-5.52-3.17-8.28-4.75c0.35,6.68-1.22,12.55-4.86,18.16c3.17,0,6.33,0,9.5,0
			c-1.96-4.11-1.44-8.94-3.68-13.03c-2.11-3.85-5.71-6.47-9.73-8.04c-8.87-3.47-19.35,0.39-27.73-3.85
			c-4.09-2.07-9.53,1.37-8.08,6.21c4.63,15.4,4.16,31.49,5.28,47.37c1.18,16.73,3.48,33.36,6.79,49.8c3.06-1.78,6.13-3.57,9.19-5.35
			c-0.76-0.39-0.9-1-0.44-1.84c-3.67,0-7.33,0-11,0c-1.13,24.67-2.46,49.33-4.01,73.98c-0.71,11.24-1.26,22.6-4.44,33.47
			c-1.27,4.34-4,9.13-1.43,13.55c2.47,4.26,8.49,4.62,12.78,5.34c5.38,0.9,10.8,1.57,16.24,1.94c4.77,0.33,10.08,0.93,14-2.41
			c3.76-3.22,4.4-8.67,5.08-13.26c0.9-6.15,1.21-12.34,1.19-18.55c-0.04-11.49-0.82-22.94-0.55-34.43
			c0.29-12.24,1.04-24.47,1.32-36.72c0.62-27.8-0.32-55.61-2.71-83.31c-0.6-7-11.61-7.06-11,0c1.88,21.76,2.87,43.59,2.9,65.44
			c0.02,21.39-1.74,42.75-1.6,64.13c0.07,10.52,0.94,21.04,0.54,31.56c-0.18,4.64-0.15,10.16-1.7,14.57
			c-0.94,2.66-1.97,2.27-4.67,2.14c-3.1-0.15-6.19-0.4-9.27-0.75c-2.59-0.29-5.18-0.67-7.75-1.12c-1.07-0.19-2.63-0.72-3.66-0.68
			c-0.3-0.06-0.61-0.13-0.91-0.19c-1.47-0.59-1.59,0.14-0.36,2.19c1.08,0.04,3.62-12.18,3.88-13.48c2.01-10.02,2.56-20.26,3.2-30.43
			c1.52-24.32,2.83-48.65,3.95-72.99c0.33-7.27-10.09-6.78-11,0c-0.5,3.71,0.95,7.09,3.66,9.61c4.15,3.87,10.27-0.01,9.19-5.35
			c-3.37-16.76-5.63-33.7-6.65-50.77c-0.93-15.58-0.89-31.32-5.42-46.4c-2.69,2.07-5.39,4.14-8.08,6.21
			c8.2,4.14,16.31,2.35,25.01,3.52c3.53,0.48,7.36,1.59,8.75,5.17c1.57,4.03,1.53,8.28,3.43,12.28c1.88,3.95,7.43,3.19,9.5,0
			c4.62-7.12,6.8-15.24,6.36-23.71c-0.23-4.5-4.42-6.4-8.28-4.75c-4.38,1.88-8.5,4.09-12.49,6.7c-2.24,1.47-3.86,5.07-1.97,7.53
			c7.11,9.22,11.61,20.17,12.24,31.86c0.7,13.16-4.63,25.13-6.49,37.96c3.6,0.49,7.2,0.97,10.8,1.46
			c0.97-29.35,8.09-57.9,13.98-86.55c0.74-3.62-2.56-8.5-6.77-6.77c-7.58,3.13-15.39,2.99-23.45,2.6c-4.19-0.2-8.38-0.42-12.58-0.64
			c-3.57-0.19-8.22,0.08-11.17-2.27C57.09,403.32,49.25,411.05,54.8,415.45L54.8,415.45z"/>
	</g>
</g>
<g>
	<g>
		<path class="st5" d="M61.75,426.21c8.49,60.73,2.45,122.25-3.42,182.92c-0.51,5.27-3.28,14.52-0.03,19.32
			c3.66,5.42,13.15,3.48,18.65,2.91c5.05-0.52,12.72-0.43,16.52-4.45c4.35-4.61,3.42-13.58,3.26-19.43
			c-0.83-30.75-2.67-61.43-2.04-92.21c0.31-14.94,1.49-29.8,2.3-44.72c0.38-7.02,0.59-14.06,0.29-21.09
			c-0.25-5.92,0.05-14.34-3.04-19.61c-1.23-2.11-3.21-3.66-5.55-4.31c-2.38-0.66-3.92-1.77-6.2-2.62c-5.33-2-11.13,1.05-13.75,5.85
			c-3.07,5.61-0.97,11.97,0.46,17.69c1.84,7.37,3.01,14.86,3.62,22.42c2.36,29.44-1.51,59.4-3.63,88.76
			c-1.11,15.42-2.23,30.83-3.34,46.25c-0.38,5.33-1.66,11.64,2.22,16.04c3.47,3.93,9.44,4.22,13.86,1.75
			c5.58-3.12,7.2-9.42,7.27-15.42c0.09-8.18-0.48-16.4-0.47-24.59c0.02-17.07,0.73-34.12,1.46-51.17
			c0.73-17.05,1.5-34.11,1.64-51.18c0.12-15.47,0.68-31.78-4.71-46.53c-1.6-4.38-7.45-5.55-10.05-1.31
			c-3.34,5.43-4.01,11.54-4.08,17.8c-0.09,7.79,0.36,15.6,0.83,23.37c0.96,15.98,1.72,31.8,0.63,47.8
			c-2.14,31.43-4.98,62.45-4.25,94.01c0.16,7.07,11.17,7.09,11,0c-0.7-30.22,1.65-60.01,3.97-90.1c1.16-15.02,0.98-29.88,0.07-44.9
			c-0.45-7.46-0.96-14.92-1.16-22.39c-0.18-6.56-1.09-14.22,2.49-20.05c-3.35-0.44-6.7-0.88-10.05-1.31
			c4.2,11.5,4.28,23.63,4.33,35.73c0.06,13.13-0.32,26.26-0.83,39.38c-1.01,26.23-2.57,52.47-2.24,78.73
			c0.07,5.56,0.52,11.16,0.43,16.72c-0.03,2,0.09,4.73-1.82,5.92c-1.04,0.64,0.25,0.24-0.04-0.42c-0.6-1.36,0.26-4.48,0.36-5.91
			c0.92-12.79,1.85-25.59,2.77-38.38c1.83-25.34,4.44-50.76,4.92-76.17c0.23-12.32-0.33-24.65-2.33-36.83
			c-0.5-3.06-1.1-6.11-1.82-9.13c-0.66-2.81-2.13-6.2-2.11-9.12c0.02-2.89,0.44-2.84,2.55-1.6c0.91,0.54,2.04,1.09,3.11,1.16
			c2.56,0.16,0.54-0.81,1.21,0.59c1.1,2.29,0.89,6.75,1.07,9.26c0.22,3.18,0.33,6.37,0.35,9.56c0.05,6.4-0.26,12.8-0.65,19.19
			c-0.8,12.97-1.73,25.91-2.03,38.91c-0.61,26.26,0.34,52.51,1.39,78.74c0.23,5.74,0.57,11.5,0.65,17.24
			c0.04,2.84,0.39,6.61-0.4,9.37c-0.19,0.67,0.94-0.48-0.51,0.49c-1.5,0.99-5.21,0.9-6.96,1.1c-2.82,0.33-5.66,0.52-8.5,0.61
			c-0.63,0.01-1.26,0.03-1.89,0.04c-2.79-0.39-2.62,0.26,0.51,1.94c0.11-0.03,0.4-4.19,0.38-3.92c0.66-6.86,1.33-13.72,1.99-20.59
			c5.58-58.22,10.12-116.84,1.98-175.06C71.38,416.3,60.78,419.27,61.75,426.21L61.75,426.21z"/>
	</g>
</g>
<g>
	<g>
		<path class="st5" d="M126.47,420.05c17.58-0.59,35.16-1.19,52.74-1.78c-1.83-1.83-3.67-3.67-5.5-5.5
			c-0.32,30.74-4.5,60.81-11.37,90.74c-3.25,14.16-4.94,28.41-7.03,42.76c-2.27,15.57-5.48,30.99-8.67,46.39
			c-1.43,6.91,9.17,9.86,10.61,2.92c3.2-15.4,6.4-30.82,8.67-46.39c2.19-15,4.05-29.85,7.47-44.64
			c6.96-30.18,11.01-60.78,11.33-91.78c0.03-2.9-2.54-5.6-5.5-5.5c-17.58,0.59-35.16,1.19-52.74,1.78
			C119.41,409.29,119.38,420.29,126.47,420.05L126.47,420.05z"/>
	</g>
</g>
<g>
	<g>
		<path class="st5" d="M120.05,415.9c4.45,20.79,4.42,42.24,8.26,63.15c3.7,20.09,9.86,39.53,17.95,58.27
			c2.8,6.48,12.28,0.89,9.5-5.55c-7.94-18.38-13.68-37.73-17.16-57.45c-3.59-20.33-3.61-41.13-7.94-61.34
			C129.17,406.06,118.57,408.99,120.05,415.9L120.05,415.9z"/>
	</g>
</g>
<g>
	<g>
		<path class="st5" d="M134.65,507.88c1.51,24.62,3.5,49.27,4.17,73.93c0.34,12.48,0.18,24.99-1.09,37.42
			c-0.5,4.94-2.06,11.08-0.5,15.96c1.71,5.37,6.72,5.26,11.39,5.02c5.6-0.29,11.21-0.59,16.81-0.88c4.37-0.23,9.7,0.17,13.49-2.42
			c4.57-3.12,4.36-8.03,4.21-13.02c-0.19-6.1-0.57-12.19-1.04-18.27c-1.87-24-4.78-47.81-3.98-71.92c0.89-27.05,3.93-54.1-1.44-80.9
			c-1.39-6.94-11.99-4-10.61,2.92c6.79,33.86-0.46,68.65,1.19,102.83c0.84,17.33,3,34.57,4.18,51.87c0.26,3.84,0.48,7.69,0.62,11.54
			c0.02,0.56,0.27,6.69,0.85,5.78c-0.26,0.4-3.79,0.38-3.76,0.38c-4.36,0.24-8.72,0.46-13.08,0.69c-3.23,0.17-8.69,1.57-11.58,0.43
			c1.1,0.84,2.19,1.69,3.29,2.53c-0.79-1.26,0.16-5.31,0.3-6.74c0.24-2.59,0.59-5.17,0.83-7.76c0.49-5.23,0.78-10.48,0.93-15.73
			c0.3-10.52,0.02-21.05-0.48-31.56c-0.99-20.71-2.45-41.4-3.71-62.09C145.22,500.85,134.22,500.8,134.65,507.88L134.65,507.88z"/>
	</g>
</g>
<g>
	<g>
		<path class="st5" d="M172.06,415.28c-8.32-1.02-16.69-1.45-25.07-1.1c-6.7,0.28-14.97-0.12-18.31,6.91
			c-2.99,6.3-1.12,15.08-0.28,21.66c1.03,8.14,2.36,16.25,3.55,24.37c5.02,34.3,9.43,68.68,13.24,103.13
			c1.08,9.8,2.12,19.6,3.1,29.4c0.92,9.19,2.35,18.69,1.05,27.91c3.06-0.81,6.13-1.62,9.19-2.43c-4.38-4.69-3.16-12.24-2.47-18.06
			c-3.67,0-7.33,0-11,0c-0.07,6.95-0.25,13.92-0.22,20.87c0.03,5.24,2.25,10.47,8.54,9.26c2.49-0.48,5.03-2,7.34-2.98
			c3.01-1.27,6.11-2.43,9.06-3.83c5-2.37,6.58-6.44,5.71-11.9c-0.94-5.89-4.67-10.82-5.66-16.75c-1.16-6.98-1.19-14.29-1.56-21.34
			c-0.74-14.24-1.04-28.5-0.96-42.76c-3.67,0-7.33,0-11,0c1.91,29.31,9.24,58.98,4.26,88.34c3.06-0.81,6.13-1.62,9.19-2.43
			c-5.15-5.62-5.95-13.46-5.85-20.76c0.13-9.4,1.29-18.5-0.37-27.86c-0.78-4.41-6.35-4.85-9.19-2.43c-0.91,0.77-1.81,1.55-2.72,2.32
			c3.06,0.81,6.13,1.62,9.19,2.43c-2.47-12.66-2.7-25.58-2.94-38.44c-0.24-12.98-0.28-25.99,0.78-38.93
			c2.12-25.8,10.8-49.69,20.15-73.62c-3.54-0.97-7.07-1.95-10.61-2.92c-6.56,38.46-13.11,76.93-19.67,115.39
			c-1.18,6.91,9.37,9.91,10.61,2.92c3.89-21.97,5.38-44.3,3.97-66.58c-0.68-10.71-2.22-21.37-2.25-32.12c0-2.25-0.44-5.39,0.39-7.56
			c0.87-2.27,2.09-1.62,4.37-2.35c4.37-1.4,6.78-4.56,7.22-9.05c0.36-3.66-3.79-6.13-6.96-5.3c-9.37,2.43-12.3,11.29-13.08,19.97
			c-0.97,10.79-1.54,21.63-2.31,32.44c3.67,0,7.33,0,11,0c-0.89-10.43-2.45-20.81-4.89-30.99c-1.67-6.99-3.13-20.68-12.51-21.32
			c-7.31-0.5-12.25,9.44-9.84,15.66c4.06,10.52,17.72-1.26,22.94-4.4c-2.69-1.1-5.39-2.19-8.08-3.29
			c4.4,10.87-1.25,24.86-3.53,35.76c-2.48,11.84-3.95,23.55-2.16,35.59c0.95,6.37,10.55,4.44,10.8-1.46
			c0.92-21.3-1.32-42.5-3.64-63.64c-0.62-5.6-9.61-8.11-10.8-1.46c-3.11,17.36-2.71,34.81,1.33,51.99c1.2,5.11,9.58,5.38,10.61,0
			c2.53-13.22,1.87-26.53-2.33-39.35c-2.19-6.7-12.82-3.83-10.61,2.92c3.57,10.9,4.49,22.2,2.33,33.5c3.54,0,7.07,0,10.61,0
			c-3.57-15.16-4.08-30.8-1.33-46.14c-3.6-0.49-7.2-0.97-10.8-1.46c2.32,21.14,4.55,42.34,3.64,63.64c3.6-0.49,7.2-0.97,10.8-1.46
			c-1.85-12.45,1.08-24.9,3.74-37c2.39-10.85,6.33-23.54,1.95-34.35c-1.29-3.19-4.74-5.3-8.08-3.29c-2.35,1.42-4.71,2.83-7.06,4.25
			c-1.05,0.63-2.09,1.26-3.14,1.89c-0.52,0.31-1.05,0.63-1.57,0.94c-1.07,0.58-1.05,0.63,0.06,0.14c1.58,0.91,3.17,1.82,4.75,2.72
			c-0.04,1.22,0.06,1.07,0.3-0.43c0.99-1.69,0.03-1.95-2.89-0.76c-0.28,0.46,1.36,4.17,1.51,4.68c1.13,3.89,2.14,7.82,3.03,11.77
			c1.87,8.36,3.14,16.8,3.86,25.33c0.6,7.04,10.49,7.11,11,0c0.55-7.69,1.09-15.37,1.64-23.06c0.36-5.1-0.85-17.05,5.68-18.75
			c-2.32-1.77-4.64-3.54-6.96-5.3c0.35-3.57-8.01,2.18-9.01,3.56c-2.44,3.35-2.76,7.63-2.91,11.64
			c-0.42,11.04,1.18,22.03,1.99,33.01c1.64,22.22,0.51,44.59-3.38,66.53c3.54,0.97,7.07,1.95,10.61,2.92
			c6.56-38.46,13.11-76.93,19.67-115.39c1.2-7.02-8.02-9.54-10.61-2.92c-9.74,24.95-18.33,49.67-20.54,76.55
			c-1.09,13.27-1.02,26.6-0.76,39.91c0.27,13.54,0.71,27.06,3.32,40.39c0.86,4.38,6.31,4.89,9.19,2.43
			c0.91-0.77,1.81-1.55,2.72-2.32c-3.06-0.81-6.13-1.62-9.19-2.43c1.82,10.23-0.68,20.59,0.14,30.88c0.67,8.42,3.12,16.28,8.91,22.6
			c2.62,2.86,8.5,1.65,9.19-2.43c5.18-30.57-1.87-60.77-3.86-91.27c-0.46-7-10.96-7.15-11,0c-0.1,17.82,0.41,35.65,1.6,53.43
			c0.54,8.15,1.21,15.7,4.54,23.24c0.7,1.59,1.31,3.2,1.98,4.8c1.01,2.44-0.19,1.76-2.66,2.81c-1.65,0.7-3.29,1.39-4.94,2.09
			c-0.69,0.29-5.51,2.13-4.46,2.35c1.1,0.84,2.19,1.69,3.29,2.53c0.23,1.55,0.3,1.23,0.2-0.97c0.01-0.63,0.01-1.26,0.02-1.9
			c0.02-2.21,0.05-4.43,0.07-6.64c0.04-4.11,0.09-8.22,0.13-12.33c0.08-7.26-10.18-6.84-11,0c-1.1,9.23-1.01,18.67,5.69,25.84
			c2.58,2.76,8.61,1.73,9.19-2.43c1.36-9.71,0.51-19.17-0.46-28.88c-0.98-9.81-2.01-19.61-3.09-29.41
			c-2.26-20.57-4.74-41.12-7.43-61.65c-2.62-20.02-5.45-40.01-8.45-59.97c-0.72-4.78-1.44-9.56-1.84-14.38
			c-0.21-2.47-0.47-5.02-0.39-7.5c0.1-2.88,0.02-2.83,2.9-3.18c10.14-1.22,20.76-0.5,30.85,0.75
			C179.07,427.14,179,416.13,172.06,415.28L172.06,415.28z"/>
	</g>
</g>
<g>
	<g>
		<path class="st5" d="M73.78,613.15c-6.16-0.76-11.73,5.06-11.67,11.02c0.03,2.88,2.51,5.63,5.5,5.5c2.95-0.13,5.53-2.42,5.5-5.5
			c-0.01-1.05-0.46,1.1-0.07,0.14c0.37-0.91-0.51,0.82-0.15,0.23c0.05-0.08,0.46-0.63,0.43-0.72c-0.5,0.62-0.61,0.77-0.33,0.47
			c0.11-0.12,0.23-0.24,0.36-0.35c-0.1,0.3-1.03,0.68-0.16,0.17c0.87-0.51,0.06,0.12-0.25,0.07c0.16-0.05,0.32-0.1,0.48-0.13
			c0.43-0.09,0.21-0.07-0.64,0.07c0.1,0.09,0.86,0.03,1,0.05c2.87,0.35,5.62-2.78,5.5-5.5C79.14,615.37,76.86,613.52,73.78,613.15
			L73.78,613.15z"/>
	</g>
</g>
<g>
	<g>
		<path class="st4" d="M54.91,638.36c-2.37,4.35-7.95,6.92-11.09,10.87c-3.49,4.37-5.88,9.37-7.24,14.79
			c3.06-0.81,6.13-1.62,9.19-2.43c0.21,0.38,0.42,0.76,0.63,1.15c-0.18,1.41-0.37,2.83-0.55,4.24c0.1-0.24,0.21-0.48,0.31-0.72
			c-2.51,0.66-5.02,1.32-7.53,1.97c11.8,7.98,24.91,5.04,35.67-2.99c5.18-3.86,9.86-6.61,15.76-9.19c2.56-1.12,4.91-2.62,6.42-5.05
			c0.83-1.32,1.34-2.77,1.52-4.31c0.14-0.64,0.14-1.29,0.01-1.94c-0.14-2.15-0.32-1.95-0.54,0.61c-1.58,0.91-3.17,1.82-4.75,2.72
			c0.23,0.02,0.46,0.03,0.68,0.05c-0.49-3.6-0.97-7.2-1.46-10.8c-5.01,1.49-10.05,2.17-15.28,1.73c-4.43-0.38-8.8-2.18-13.28-1.64
			c-9.08,1.11-12.55,12.68-16.36,19.6c-2.61,4.73,2.69,10.4,7.53,7.53c3.73-2.22,7.47-4.44,11.2-6.67
			c2.95-1.76,6.88-5.11,10.47-4.23c6.87,1.69,9.81-8.92,2.92-10.61C68.4,640.41,57.66,649.9,49,655.05
			c2.51,2.51,5.02,5.02,7.53,7.53c2.07-3.75,4.12-7.51,6.2-11.25c0.88-1.59,1.05-2.7,2.74-3.02c1.53-0.29,3.82,0.72,5.32,0.99
			c8.1,1.46,16.2,0.98,24.09-1.37c6.11-1.81,4.65-10.4-1.46-10.8c-2.31-0.15-4.11,0.83-5.43,2.68c-0.77,1.08-1.15,2.02-1.23,3.4
			c-0.03,0.5,0.2,2.27,0.26,2.17c-0.64,1.15-4.9,1.94-6.3,2.56c-2.53,1.12-4.85,2.55-7.1,4.15c-9.27,6.59-18.13,14.28-29.43,6.64
			c-2.26-1.52-6.39-0.63-7.53,1.97c-1.34,3.09-1.48,6.32,1.34,8.67c3.04,2.53,8.11,1.89,9.19-2.43c1.28-5.11,3.65-9.67,7.47-13.36
			c3.4-3.28,7.42-5.39,9.76-9.67C67.79,637.69,58.3,632.14,54.91,638.36L54.91,638.36z"/>
	</g>
</g>
<g>
	<g>
		<path class="st4" d="M149.11,650.83c9.29,0.29,18.51,1.64,27.28-1.75c-2.22-0.84-2.49-0.54-0.82,0.89
			c0.72,0.94,1.39,1.92,2.01,2.93c1.2,1.94,2.23,3.98,3.02,6.12c1.08,2.94,3.14,8.63,1.95,11.63c0.84-1.1,1.69-2.19,2.53-3.29
			c-2.51,1.74-9.25-1.59-11.63-2.72c-3.76-1.79-7.63-3.31-9.63-7.06c-3.51-6.55-7.91-11.81-15.9-12.03
			c-4.24-0.11-6.76,4.74-4.75,8.28c5.88,10.33,22.36,1.76,20.61-8.7c-2.26,2.26-4.51,4.51-6.77,6.77c3.25,0.92,5.47,1.79,6.87,4.98
			c1.02,2.33,1.76,4.71,2.95,6.98c2.46,4.67,6.69,9.35,12.28,5.79c9.51-6.06,4.31-20.81-3.66-25.41c-4.98-2.88-9.9,2.74-7.53,7.53
			c1.61,3.24,3.9,5.9,5.94,8.86c0.87,1.25,1.75,2.56,2.37,3.96c0.41,1.01,0.74,2.04,0.98,3.1c0.05,2.37,0.59,2.2,1.63-0.5
			c1.41-0.18,2.83-0.37,4.24-0.55c-2.34-0.37-6.53-5.85-8.27-7.52c-2.78-2.68-5.38-4.89-7.13-8.33c-3.51-6.89-11.02-8.1-17.84-10.46
			c-1.78-0.62-4.08,0.07-5.35,1.41c-4.16,4.42-2.59,9.22,0.85,13.52c4.43,5.52,12.16-2.3,7.78-7.78c-0.28,0.68-0.56,1.36-0.85,2.04
			c-1.78,0.47-3.57,0.94-5.35,1.41c3.61,1.25,9.23,2.13,11.27,5.41c1.64,2.63,3.08,4.91,5.33,7.15c3.23,3.22,6.54,6.39,9.86,9.53
			c2.2,2.08,4.33,4.09,7.51,4.33c7.77,0.59,8.2-7.86,6.73-13.33c-1.87-6.92-7.09-11.55-10.19-17.79c-2.51,2.51-5.02,5.02-7.53,7.53
			c1.51,0.87,2.49,1.88,2.97,3.62c0.27,1-0.38,2.8-0.12,3.46c4.48,1.56,6.05,1.39,4.7-0.52c-0.38-0.66-0.75-1.32-1.11-1.98
			c-0.88-1.67-1.46-3.35-2.11-5.11c-2.47-6.75-7.56-10-14.28-11.9c-4.36-1.24-7.43,2.79-6.77,6.77c0-1.38-0.38-1.71-1.14-1
			c-1.07,0.36-0.86,0.77,0.64,1.22c-1.58,2.76-3.17,5.52-4.75,8.28c4.98,0.13,6.11,7.33,8.84,10.47c3.46,3.98,9.33,6.42,14.1,8.43
			c8.02,3.37,23.38,6.48,22.81-6.59c-0.43-10-4.44-21.53-11.97-28.44c-4.54-4.17-8.08-1.08-13.02-0.21
			c-6.13,1.08-13.35-0.2-19.56-0.39C142.02,639.61,142.03,650.61,149.11,650.83L149.11,650.83z"/>
	</g>
</g>
<g>
	<g>
		<path d="M81.78,56.46c-1.69-7.6-2.15-15.4-2.86-23.14c-0.32-3.46-0.67-7.01,0.19-10.42c0.72-2.89,2.19-5.57,4.12-7.84
			c4.24-4.97,10.19-7.81,16.46-9.28c3.51-0.82,7.09-1.23,10.69-1.45c3.44-0.21,7.12-0.36,10.37,0.99c3.46,1.44,6.13,4.39,9.36,6.25
			c3.35,1.92,7.04,3.26,10.84,3.95c-0.22-0.84-0.44-1.67-0.66-2.51c-1.26,1.31-2.72,2.23-4.46,2.76c-1.17,0.36-1.55,2.13-0.36,2.74
			c3,1.54,3.8,4.99,4.17,8.09c0.46,3.79,0.76,7.61,1.05,11.41c0.28,3.7,0.42,7.44-0.23,11.11c-0.64,3.57-1.8,7.02-2.96,10.46
			c-0.62,1.83,2.28,2.62,2.89,0.8c1.28-3.8,2.57-7.62,3.15-11.6c0.59-4.07,0.38-8.15,0.04-12.23c-0.34-4.05-0.54-8.18-1.24-12.19
			c-0.59-3.4-2.14-6.8-5.34-8.44c-0.12,0.91-0.24,1.83-0.36,2.74c2.21-0.68,4.18-1.86,5.78-3.53c0.72-0.75,0.49-2.3-0.66-2.51
			c-3.56-0.65-6.98-1.85-10.12-3.65c-3.18-1.82-5.79-4.61-9.12-6.14c-3.32-1.52-6.98-1.74-10.58-1.59
			c-3.77,0.16-7.56,0.54-11.27,1.27c-6.81,1.34-13.47,4.14-18.38,9.18c-2.19,2.24-3.97,4.86-5.16,7.77
			c-1.38,3.38-1.65,6.98-1.44,10.59c0.27,4.52,0.79,9.05,1.21,13.56c0.43,4.59,1.02,9.15,2.02,13.66
			C79.31,59.14,82.2,58.35,81.78,56.46L81.78,56.46z"/>
	</g>
</g>
<g>
	<g>
		<path d="M130.09,19.66c-8.07,8.14-20.8,4.69-30.83,3.9c-5.1-0.4-11.29-0.54-15.82,2.25c-4.31,2.65-5.6,8.3-6.22,12.98
			c-0.79,5.93-0.03,12.02,2.21,17.56c0.71,1.77,3.62,1,2.89-0.8c-1.93-4.78-2.73-9.89-2.29-15.03c0.37-4.4,1.39-10.49,5.8-12.6
			c4.65-2.23,10.61-1.68,15.57-1.17c5.61,0.58,11.26,1.59,16.92,1.03c5.14-0.51,10.2-2.27,13.9-6
			C133.57,20.41,131.45,18.29,130.09,19.66L130.09,19.66z"/>
	</g>
</g>
<g>
	<g>
		<path d="M130.47,20.47c0.85,6.76,1.75,13.51,3.64,20.07c1.8,6.26,4.31,12.75,3.4,19.38c-0.11,0.81,0.2,1.6,1.05,1.85
			c0.7,0.2,1.74-0.25,1.85-1.05c0.93-6.78-1.11-13.21-3.01-19.64c-2-6.75-3.04-13.63-3.92-20.61
			C133.23,18.58,130.23,18.56,130.47,20.47L130.47,20.47z"/>
	</g>
</g>
<g>
	<g>
		<path d="M79.5,57.25c2.46,7.88,4.17,15.98,6.75,23.83c1.07,3.26,2.62,6.12,4.96,8.63c1.03,1.11,2.14,2.18,3.36,3.08
			c1.45,1.07,3.11,1.76,4.77,2.44c3.58,1.46,7.02,3.61,10.83,4.44c3.55,0.78,7.33,0.41,10.72-0.88c6.9-2.63,11.78-8.47,14.62-15.14
			c1.76-4.15,2.77-8.55,3.4-13c0.65-4.57,0.58-9.38,1.96-13.81c0.57-1.85-2.32-2.64-2.89-0.8c-1.13,3.63-1.22,7.47-1.63,11.22
			c-0.43,3.84-1.07,7.68-2.19,11.38c-1.97,6.49-5.72,12.85-11.82,16.21c-2.96,1.63-6.38,2.47-9.76,2.17
			c-3.51-0.32-6.57-2.16-9.73-3.56c-3.02-1.34-5.93-2.34-8.34-4.69c-2.27-2.21-3.95-4.59-5.03-7.59c-1.37-3.77-2.4-7.74-3.46-11.6
			c-1.2-4.38-2.25-8.79-3.61-13.13C81.82,54.62,78.92,55.4,79.5,57.25L79.5,57.25z"/>
	</g>
</g>
<g>
	<g>
		<path d="M89.14,88.01c0.44,6.23,1.24,12.44,2.39,18.58c0.35,1.9,3.25,1.09,2.89-0.8c-1.1-5.88-1.86-11.81-2.28-17.78
			C92.01,86.1,89.01,86.08,89.14,88.01L89.14,88.01z"/>
	</g>
</g>
<g>
	<g>
		<path d="M128.73,90.34c0.08,3.39,0.16,6.78,0.24,10.16c0.02,0.81,0.68,1.5,1.5,1.5c0.8,0,1.52-0.69,1.5-1.5
			c-0.08-3.39-0.16-6.78-0.24-10.16c-0.02-0.81-0.68-1.5-1.5-1.5C129.43,88.84,128.71,89.53,128.73,90.34L128.73,90.34z"/>
	</g>
</g>
<g>
	<g>
		<path d="M130.67,99.13c0.29-0.03-0.67,1.64-0.82,1.87c-0.51,0.79-1.08,1.54-1.7,2.25c-1.15,1.32-2.42,2.52-3.75,3.65
			c-2.76,2.37-5.75,4.45-8.44,6.9c-2.61,2.37-5.01,5.11-6.44,8.36c-1.65,3.75-1.68,7.75-0.89,11.72c0.38,1.89,3.27,1.09,2.89-0.8
			c-0.89-4.47-0.31-8.67,2.29-12.46c2.19-3.18,5.26-5.66,8.27-8.03c3.06-2.41,6.22-4.79,8.7-7.84c1.16-1.42,2.63-3.18,2.89-5.06
			c0.25-1.81-1.02-3.74-3.01-3.57C128.76,96.3,128.74,99.3,130.67,99.13L130.67,99.13z"/>
	</g>
</g>
<g>
	<g>
		<path d="M89.22,96.44c-2.56,5.89,1.43,11.49,6.15,14.78c4.72,3.28,11.74,5.73,12.91,12.11c0.35,1.9,3.24,1.09,2.89-0.8
			c-1.06-5.79-6.36-9.08-11.03-11.86c-2.47-1.47-5.12-3.01-6.85-5.37c-1.5-2.04-2.55-4.89-1.48-7.35
			C92.57,96.2,89.99,94.67,89.22,96.44L89.22,96.44z"/>
	</g>
</g>
<g>
	<g>
		<path d="M89.74,95.49c-5.12,5.19-6.7,12.68-7.79,19.63c-0.3,1.9-0.23,3.63,0.96,5.22c1.16,1.56,2.8,2.79,4.25,4.07
			c3.04,2.66,6.21,5.26,9.75,7.22c3.89,2.16,8.21,3.55,12.68,3.53c1.93-0.01,1.93-3.01,0-3c-9.25,0.04-16.86-6.53-23.24-12.49
			c-0.73-0.68-1.46-1.39-1.58-2.44c-0.13-1.06,0.23-2.24,0.42-3.28c0.35-1.95,0.73-3.89,1.24-5.81c1.02-3.88,2.58-7.64,5.44-10.54
			C93.22,96.23,91.1,94.11,89.74,95.49L89.74,95.49z"/>
	</g>
</g>
<g>
	<g>
		<path d="M134.36,99.96c0-0.53,0.81-0.56,1.18-0.43c0.84,0.3,1.35,1.44,1.67,2.19c0.93,2.2,1.31,4.65,1.48,7.02
			c0.15,2.09,0.65,5.01-0.58,6.85c-1.18,1.77-3.04,3.28-4.63,4.69c-3.35,2.98-7.06,5.54-11,7.67c-4.06,2.19-8.83,4.66-13.56,4.21
			c-1.92-0.18-1.91,2.82,0,3c4.74,0.45,9.43-1.75,13.57-3.83c3.98-2,7.72-4.46,11.17-7.27c1.76-1.43,3.44-2.96,5.02-4.59
			c1.55-1.58,2.83-3.17,3.07-5.45c0.25-2.31,0.05-4.78-0.23-7.07c-0.28-2.31-0.76-4.59-1.71-6.73c-0.85-1.9-2.43-3.8-4.7-3.78
			c-1.97,0.02-3.75,1.49-3.76,3.51C131.35,101.89,134.35,101.9,134.36,99.96L134.36,99.96z"/>
	</g>
</g>
<g>
	<g>
		<path d="M82.36,114.12c-6.47,1.96-12.93,3.91-19.4,5.87c-3.27,0.99-6.51,2.05-9.66,3.36c-3.05,1.28-6.06,2.66-9.14,3.86
			c-3.06,1.19-6.17,2.26-9.32,3.21c-2.33,0.7-5.68,1.13-6.22,4.01c-0.24,1.26,0.12,2.64,0.33,3.88c0.28,1.63,0.64,3.25,1.06,4.85
			c0.79,2.99,1.82,5.91,3.02,8.77c1.34,3.19,2.89,6.26,4.57,9.29c1.73,3.11,3.47,6.21,4.46,9.66c0.53,1.85,3.42,1.07,2.89-0.8
			c-1.61-5.66-5.07-10.53-7.59-15.79c-2.56-5.32-4.51-10.95-5.52-16.77c-0.16-0.93-0.75-2.51,0.24-3.08
			c1.16-0.67,2.74-0.86,4.02-1.25c2.99-0.91,5.95-1.94,8.86-3.07c5.82-2.27,11.42-4.95,17.4-6.8c6.92-2.14,13.86-4.2,20.79-6.3
			C85.01,116.46,84.22,113.56,82.36,114.12L82.36,114.12z"/>
	</g>
</g>
<g>
	<g>
		<path d="M29.25,133.87c-4.58,0.09-7.56,4.05-8.46,8.2c-1.09,5.02-0.73,10.41-0.65,15.51c0.08,5.39,0.05,10.75-0.72,16.1
			c-0.76,5.27-1.98,10.47-3.12,15.67c-4.59,21.02-7.69,42.38-9.28,63.84c-0.89,12.09-1.29,24.2-1.21,36.32c0.01,1.93,3.01,1.93,3,0
			c-0.13-20.74,1.15-41.48,3.85-62.04c1.36-10.35,3.09-20.65,5.17-30.88c2.04-10,4.84-19.97,5.27-30.22
			c0.24-5.86-0.16-11.71,0.03-17.57c0.13-4.06,0.44-11.81,6.11-11.92C31.18,136.83,31.19,133.83,29.25,133.87L29.25,133.87z"/>
	</g>
</g>
<g>
	<g>
		<path d="M5.59,287.17c-0.24,22.31-4.9,44.35-4.46,66.68c0.06,3.01,0.14,6.06,0.5,9.04c0.37,3.03,1.83,5.17,3.82,7.4
			c1.29,1.45,3.4-0.68,2.12-2.12c-0.77-0.86-1.55-1.73-2.12-2.75c-0.67-1.2-0.84-2.51-0.95-3.85c-0.22-2.65-0.33-5.31-0.38-7.97
			c-0.1-5.39,0.1-10.79,0.47-16.17c0.72-10.65,2.07-21.25,3-31.88c0.54-6.12,0.92-12.25,0.99-18.39
			C8.61,285.24,5.61,285.23,5.59,287.17L5.59,287.17z"/>
	</g>
</g>
<g>
	<g>
		<path d="M6.63,366.66c-0.33-3.11,4.31-3.1,6.37-3.19c3.33-0.14,6.66,0.06,9.96,0.46c3.19,0.39,6.39,0.94,9.53,1.62
			c1.03,0.22,2.45,0.49,3.12,1.4c0.33,0.44,0.57,1.54-0.15,1.74c-1.86,0.5-1.07,3.4,0.8,2.89c3.4-0.92,3.25-5.41,0.86-7.31
			c-1.39-1.11-3.14-1.48-4.85-1.82c-2.32-0.46-4.64-0.88-6.98-1.22c-4.55-0.65-9.16-1.03-13.76-0.69c-1.93,0.14-3.96,0.37-5.59,1.49
			c-1.49,1.03-2.51,2.77-2.32,4.61C3.83,368.56,6.83,368.58,6.63,366.66L6.63,366.66z"/>
	</g>
</g>
<g>
	<g>
		<path d="M9.68,362.12c-2.17,4.39-4.95,8.82-5.52,13.76c-0.27,2.32-0.23,4.72-0.12,7.05c0.11,2.36,0.59,4.52,1.73,6.6
			c0.5,0.91,1.07,1.8,1.33,2.83c0.3,1.21,0.22,2.47,0.23,3.7c0.02,1.95,0.26,4.02,1.45,5.63c1.29,1.74,3.29,2.33,5.36,2.55
			c1.12,0.12,2.24,0.16,3.36,0.23c1.13,0.07,2.33,0.26,3.46,0.03c1.9-0.38,2.99-2.11,2.61-4c-0.43-2.13-2.47-3.16-3.31-5.06
			c-0.84-1.89-0.75-4.14-0.37-6.12c0.19-1,0.44-2.01,0.85-2.95c0.21-0.47,1.09-2.43,1.8-2.37c0.57,0.05,1.02,1.46,1.2,1.87
			c0.46,1.06,0.93,2.12,1.45,3.15c1.06,2.09,2.28,4.1,3.64,6.01c1.16,1.63,2.53,3.44,4.57,3.97c1.91,0.49,3.76-0.44,4.81-2.04
			c1.34-2.05,0.94-4.64,0.4-6.88c-0.64-2.67-1.67-5.23-2.4-7.87c-1.53-5.52-1.19-11.25-0.84-16.89c0.12-1.93-2.88-1.92-3,0
			c-0.28,4.53-0.53,9.07,0.1,13.59c0.62,4.44,2.57,8.49,3.45,12.87c0.25,1.27,0.55,4.47-1.57,4.35c-1.7-0.1-3.12-2.83-3.93-4.06
			c-1.17-1.78-2.22-3.63-3.13-5.55c-0.75-1.57-1.25-3.53-2.63-4.7c-3.56-3.02-6.57,2.49-7.35,5.31c-0.97,3.51-1.19,7.86,1.03,10.97
			c0.39,0.55,3.3,3.16,1.88,3.48c-0.9,0.2-2.06-0.08-2.97-0.14c-1.16-0.07-2.35-0.08-3.5-0.27c-1.98-0.32-3.03-1.4-3.33-3.38
			c-0.3-2.01,0.05-4.05-0.39-6.05c-0.51-2.29-2.19-4.08-2.7-6.37c-0.52-2.32-0.39-4.87-0.32-7.23c0.16-5.35,2.96-9.85,5.27-14.54
			C13.12,361.91,10.53,360.39,9.68,362.12L9.68,362.12z"/>
	</g>
</g>
<g>
	<g>
		<path d="M172.64,357.43c-2.46,8.35-8.36,15.2-9.54,24c-0.31,2.27-0.37,4.56-0.13,6.83c0.2,1.95,0.84,3.99,3.25,3.52
			c4.31-0.84,5.56-5.5,6.44-9.14c1.23-5.1,3.12-9.99,5.63-14.6c0.92-1.7-1.67-3.21-2.59-1.51c-1.89,3.48-3.48,7.12-4.69,10.89
			c-0.6,1.87-1.08,3.77-1.54,5.69c-0.41,1.7-0.87,3.54-2.17,4.79c-0.26,0.25-0.54,0.48-0.87,0.65c-0.09,0.05-0.42,0.14-0.48,0.21
			c-0.31,0.37,0.19-0.02,0.13,0.36c0.06-0.37-0.13-0.93-0.16-1.31c-0.05-0.54-0.08-1.07-0.09-1.61c-0.06-2.02,0.1-4.03,0.5-6.01
			c0.76-3.73,2.37-7.15,4.1-10.51c1.92-3.72,3.91-7.42,5.1-11.45C176.08,356.38,173.18,355.58,172.64,357.43L172.64,357.43z"/>
	</g>
</g>
<g>
	<g>
		<path d="M173.85,371.33c-0.11,5.04,1.23,10.3-0.35,15.23c-0.77,2.4-2.27,3.99-4.3,5.4c-1.83,1.27-3.71,2.61-4.65,4.71
			c-0.8,1.8-0.86,4.26,1.45,4.81c2.15,0.51,4.66,0.34,6.79-0.17c2.19-0.52,4.26-1.61,5.82-3.25c1.63-1.7,2.68-3.83,3.67-5.94
			c2.52-5.31,4.94-10.68,5.54-16.58c0.2-1.92-2.81-1.91-3,0c-0.47,4.57-2.25,8.88-4.17,13.01c-1.69,3.66-3.28,7.98-7.38,9.49
			c-1.82,0.67-3.8,0.81-5.72,0.64c-0.11-0.01-0.72-0.12-0.76-0.09c-0.06,0.05,0.19,0.35,0.21,0.34c0.02-0.01,0.22-0.95,0.29-1.08
			c0.42-0.9,1.19-1.64,1.95-2.25c1.67-1.34,3.56-2.33,4.93-4.02c1.21-1.5,2.02-3.29,2.48-5.15c1.24-4.97,0.08-10.06,0.19-15.09
			C176.89,369.4,173.89,369.4,173.85,371.33L173.85,371.33z"/>
	</g>
</g>
<g>
	<g>
		<path d="M177.8,395.32c-0.53,1.95-1.35,4.01-1.61,6.02c-0.22,1.7,1.07,2.54,2.63,2.39c3.39-0.33,6.13-2.8,7.9-5.55
			c2.02-3.14,3.32-6.85,4.64-10.33c1.45-3.81,2.72-7.68,3.83-11.6c0.53-1.86-2.37-2.65-2.89-0.8c-1.48,5.23-3.25,10.37-5.34,15.39
			c-0.93,2.24-1.87,4.57-3.31,6.53c-0.66,0.9-1.47,1.73-2.42,2.34c-0.48,0.31-0.98,0.58-1.52,0.76c-0.24,0.08-0.48,0.15-0.73,0.2
			c-0.45,0.1-0.57-0.09-0.25,0.24c0.15,0.35,0.29,0.71,0.44,1.06c-0.1-0.78,0.48-1.99,0.68-2.74c0.28-1.04,0.56-2.08,0.84-3.12
			C181.19,394.25,178.3,393.45,177.8,395.32L177.8,395.32z"/>
	</g>
</g>
<g>
	<g>
		<path d="M180.93,401.98c1.36,3.03,5.41,2.59,7.76,1.14c2.8-1.74,4.75-4.76,6.69-7.36c2.18-2.92,4.16-5.99,5.45-9.42
			c1.41-3.75,1.78-7.86,2.18-11.82c0.46-4.66,0.65-9.33,0.59-14.01c-0.02-1.93-3.02-1.93-3,0c0.06,4.52-0.11,9.03-0.54,13.53
			c-0.41,4.29-0.82,8.77-2.62,12.73c-1.65,3.61-4.08,6.81-6.51,9.92c-1.05,1.35-2.14,2.8-3.59,3.75c-1.01,0.66-3.13,1.55-3.81,0.04
			C182.73,398.7,180.15,400.23,180.93,401.98L180.93,401.98z"/>
	</g>
</g>
<g>
	<g>
		<path d="M171.53,358.75c8.28-0.53,16.6-0.38,24.85,0.53c1.84,0.2,3.74,0.48,5.46,1.21c1.63,0.7,3.11,1.75,4.48,2.87
			c0.71,0.58,1.43,1.18,2.1,1.8c0.21,0.19,0.77,0.56,0.76,0.86c0-0.28-0.12,0.02-0.35,0.14c-1.72,0.9-3.31,1.66-5.27,1.91
			c-1.89,0.24-1.91,3.24,0,3c2.73-0.35,10.55-2.25,8.22-6.54c-0.98-1.8-3.22-3.24-4.83-4.44c-1.7-1.27-3.55-2.32-5.59-2.93
			c-2.16-0.65-4.45-0.83-6.68-1.05c-2.62-0.25-5.24-0.44-7.87-0.55c-5.1-0.21-10.2-0.14-15.29,0.19
			C169.62,355.87,169.6,358.87,171.53,358.75L171.53,358.75z"/>
	</g>
</g>
<g>
	<g>
		<path d="M212.55,366.81c1.95-11.22,2.31-22.45,2.12-33.81c-0.19-11.46-0.39-22.91-0.58-34.37c-0.39-22.77-0.47-45.58-1.43-68.34
			c-0.54-12.75-1.47-25.47-3.18-38.12c-0.11-0.81-1.14-1.23-1.85-1.05c-0.87,0.23-1.16,1.05-1.05,1.85
			c2.99,22.23,3.46,44.69,3.84,67.09c0.39,22.65,0.77,45.31,1.15,67.96c0.22,12.75,0.26,25.38-1.93,37.99
			C209.33,367.9,212.22,368.71,212.55,366.81L212.55,366.81z"/>
	</g>
</g>
<g>
	<g>
		<path d="M209.5,192.46c0.2-9.6-0.66-19.21-2.58-28.62c-0.95-4.68-2.13-9.32-2.89-14.04c-0.69-4.35-0.3-9.09-1.78-13.28
			c-1.43-4.05-5.05-7.33-9.55-6.65c-1.9,0.29-1.09,3.18,0.8,2.89c3.79-0.57,5.89,3.83,6.45,6.84c0.36,1.93,0.39,3.91,0.55,5.87
			c0.18,2.11,0.47,4.22,0.83,6.31c0.75,4.32,1.81,8.57,2.69,12.86c0.87,4.27,1.52,8.58,1.94,12.92c0.47,4.95,0.64,9.93,0.54,14.91
			C206.46,194.39,209.46,194.39,209.5,192.46L209.5,192.46z"/>
	</g>
</g>
<g>
	<g>
		<path d="M140.16,116.7c5.76,1.1,11.58,2.05,17.3,3.37c5.67,1.31,11.12,3.49,16.59,5.44c2.74,0.98,5.49,1.96,8.23,2.94
			c1.37,0.49,2.74,0.98,4.11,1.47c1.36,0.48,2.87,0.85,4.15,1.53c2,1.06,0.95,3.8,0.21,5.38c-1.21,2.59-2.62,5.09-3.8,7.7
			c-2.58,5.71-4.45,11.71-5.54,17.88c-0.33,1.89,2.56,2.7,2.89,0.8c1.05-5.9,2.77-11.7,5.24-17.16c1.21-2.68,2.68-5.23,3.9-7.91
			c0.94-2.07,1.74-4.54,0.87-6.77c-1-2.57-3.87-3.17-6.21-4.01c-2.97-1.06-5.94-2.12-8.91-3.18c-5.79-2.06-11.55-4.35-17.44-6.08
			c-6.77-1.99-13.88-2.97-20.8-4.28C139.07,113.45,138.26,116.34,140.16,116.7L140.16,116.7z"/>
	</g>
</g>
<g>
	<g>
		<path d="M170.16,165.72c7.63,9.09,5.23,22.1,4.1,32.86c-0.68,6.54-0.59,12.99,0.21,19.51c0.76,6.15,1.79,12.29,2.9,18.39
			c1.26,6.89,2.83,13.74,5.28,20.31c0.67,1.79,3.57,1.02,2.89-0.8c-2.2-5.92-3.7-12.05-4.89-18.24c-1.22-6.35-2.31-12.76-3.12-19.18
			c-0.82-6.52-0.98-12.97-0.32-19.51c0.63-6.19,1.64-12.4,1.21-18.64c-0.43-6.1-2.15-12.08-6.14-16.83
			C171.04,162.11,168.93,164.25,170.16,165.72L170.16,165.72z"/>
	</g>
</g>
<g>
	<g>
		<path d="M176.47,228.36c-4.74,5.68-5.44,13.28-4.48,20.36c0.59,4.31,1.73,8.52,2.65,12.76c0.93,4.32,1.43,8.59,1.26,13.01
			c-0.16,4.46-0.57,8.92-0.72,13.38c-0.15,4.51-0.19,9.03-0.17,13.55c0.02,4.52,0.11,9.03,0.19,13.55
			c0.09,4.49,0.23,8.99-0.16,13.47c-0.84,9.68-4.75,18.81-5.2,28.56c-0.09,1.93,2.91,1.93,3,0c0.39-8.41,3.44-16.35,4.72-24.62
			c1.34-8.66,0.61-17.56,0.49-26.28c-0.11-8.86-0.04-17.72,0.55-26.56c0.29-4.31,0.53-8.61-0.03-12.91
			c-0.54-4.19-1.6-8.27-2.52-12.39c-1.72-7.73-2.98-17.18,2.52-23.77C179.82,229.01,177.71,226.88,176.47,228.36L176.47,228.36z"/>
	</g>
</g>
<g>
	<g>
		<path d="M43.44,177.17c0.55,5.96,3.25,11.3,4.77,17.02c1.54,5.83,2.04,11.85,2.25,17.86c0.22,6.35,0.23,12.7,0.29,19.05
			c0.06,6.16,0.16,12.33,0.05,18.48c-0.12,6.83-0.69,13.66-2.9,20.17c-0.62,1.83,2.28,2.62,2.89,0.8
			c3.94-11.62,3.08-24.38,2.98-36.46c-0.05-6.39-0.1-12.79-0.23-19.19c-0.13-6.12-0.46-12.28-1.68-18.29
			c-0.68-3.35-1.74-6.56-2.87-9.77c-1.11-3.14-2.23-6.32-2.53-9.66C46.26,175.26,43.26,175.24,43.44,177.17L43.44,177.17z"/>
	</g>
</g>
<g>
	<g>
		<path d="M53.64,264.74c-1.42,1.25-2.84,2.49-4.25,3.75c-1.19,1.07-2.22,2.22-2.51,3.85c-0.29,1.59-0.04,3.24,0.06,4.84
			c0.13,1.97,0.23,3.94,0.32,5.91c0.34,7.56,0.45,15.12,0.54,22.69c0.04,3.67,0.04,7.19-0.8,10.79c-0.33,1.4-0.66,2.79-0.91,4.21
			c-0.51,2.88-0.88,5.78-1.23,8.68c-2.11,17.36-3.39,34.85-4.49,52.3c-0.44,6.96-0.95,13.95-0.96,20.93c0,1.93,3,1.93,3,0
			c0.01-5.92,0.41-11.85,0.76-17.75c0.53-8.86,1.17-17.72,1.89-26.58c0.69-8.49,1.44-16.98,2.39-25.44
			c0.35-3.12,0.72-6.22,1.19-9.31c0.52-3.42,1.56-6.76,1.97-10.2c0.48-4.06,0.18-8.24,0.12-12.31c-0.06-4.19-0.14-8.39-0.27-12.58
			c-0.14-4.27-0.34-8.54-0.62-12.81c-0.06-0.83-0.19-1.73-0.07-2.56c0.14-1,0.73-1.61,1.45-2.27c1.49-1.36,3.03-2.67,4.54-4
			C57.22,265.58,55.09,263.47,53.64,264.74L53.64,264.74z"/>
	</g>
</g>
<g>
	<g>
		<path d="M47.95,194.22c-2.25,11.29-0.95,22.8-0.94,34.21c0.01,11.22-0.87,22.42-2.11,33.56c-2.52,22.58-6.54,45-7.74,67.72
			c-0.69,13-0.41,25.99-1.75,38.95c-0.2,1.92,2.8,1.9,3,0c1.19-11.53,1.13-23.06,1.55-34.63c0.41-11.23,1.57-22.41,2.97-33.55
			c2.8-22.36,6.56-44.67,7.03-67.24c0.26-12.68-1.62-25.69,0.88-38.22C51.22,193.13,48.33,192.33,47.95,194.22L47.95,194.22z"/>
	</g>
</g>
<g>
	<g>
		<path d="M107.87,133.66c-4.13,26.19-4.44,52.74-4.07,79.19c0.37,26.89,0.98,53.77,1.48,80.66c0.28,15.15,0.57,30.3,0.85,45.46
			c0.04,1.93,3.04,1.93,3,0c-0.5-26.81-1-53.62-1.5-80.42c-0.49-26.51-1.47-53.07-0.7-79.58c0.43-14.89,1.52-29.78,3.84-44.5
			C111.06,132.57,108.17,131.76,107.87,133.66L107.87,133.66z"/>
	</g>
</g>
<g>
	<g>
		<path d="M105.66,338.02c0.61,19.87,1.21,39.75,1.82,59.62c0.08,2.48,0.15,4.97,0.23,7.45c0.06,1.96,0.32,3.91,2.21,4.95
			c1.66,0.91,3.73,0.74,5.55,0.75c2.48,0.01,4.97,0.02,7.45,0.02c9.93,0,19.84-0.26,29.75-1.02c5.52-0.42,11.03-0.95,16.54-1.52
			c2.73-0.28,5.47-0.52,8.19-0.86c1.83-0.23,3.68-0.91,4.24-2.85c0.53-1.86-2.36-2.65-2.89-0.8c-0.14,0.49-1.02,0.59-1.44,0.66
			c-1.04,0.18-2.11,0.23-3.16,0.34c-2.3,0.24-4.6,0.48-6.9,0.72c-4.52,0.46-9.04,0.88-13.57,1.24c-9.16,0.72-18.32,1.04-27.51,1.09
			c-2.32,0.01-4.64,0.01-6.95,0c-2.15-0.01-4.38,0.15-6.52-0.06c-0.66-0.06-1.42-0.17-1.75-0.8c-0.45-0.86-0.23-2.41-0.26-3.34
			c-0.07-2.32-0.14-4.64-0.21-6.96c-0.28-9.19-0.56-18.38-0.84-27.58c-0.32-10.35-0.63-20.7-0.95-31.05
			C108.61,336.09,105.6,336.08,105.66,338.02L105.66,338.02z"/>
	</g>
</g>
<g>
	<g>
		<path d="M40.04,404.31c1.99,0.99,4.14,1.38,6.3,1.85c2.23,0.48,4.45,0.96,6.68,1.44c4.5,0.97,9,1.98,13.52,2.84
			c9.01,1.71,18.11,2.59,27.26,1.5c5.07-0.61,10.06-1.7,14.92-3.3c1.83-0.6,1.04-3.5-0.8-2.89c-8.28,2.73-16.97,4-25.69,3.66
			c-8.89-0.34-17.6-2.37-26.26-4.23c-2.38-0.51-4.77-1.03-7.15-1.54c-2.39-0.52-5.04-0.81-7.25-1.91
			C39.83,400.87,38.3,403.45,40.04,404.31L40.04,404.31z"/>
	</g>
</g>
<g>
	<g>
		<path d="M111.26,175.3c-1.9-0.12-3.23,1.63-3.73,3.26c-0.49,1.58-0.39,3.67,0.61,5.05c0.65,0.9,1.58,1.42,2.7,1.41
			c0.83-0.01,1.67-0.27,2.38-0.69c1.44-0.85,2.37-2.33,2.53-3.99c0.18-1.85-0.77-3.58-2.23-4.66c-0.63-0.47-1.7-0.13-2.05,0.54
			c-0.41,0.78-0.14,1.55,0.54,2.05c-0.34-0.25-0.01,0,0.07,0.07c0.08,0.08,0.15,0.17,0.23,0.24c0.11,0.11-0.08-0.11-0.08-0.12
			c0.03,0.05,0.08,0.11,0.11,0.16c0.08,0.12,0.15,0.24,0.22,0.37c0.02,0.04,0.04,0.09,0.06,0.13c0.13,0.25-0.05-0.09-0.04-0.09
			c0,0,0.11,0.33,0.12,0.37c0.03,0.11,0.05,0.22,0.07,0.33c0.04,0.16-0.02-0.16-0.02-0.16c-0.01,0.07,0.01,0.17,0.02,0.24
			c0.01,0.13,0,0.26-0.01,0.38c-0.02,0.35,0.07-0.23,0,0.03c-0.03,0.11-0.05,0.22-0.08,0.32c-0.02,0.06-0.04,0.12-0.06,0.18
			c-0.05,0.17,0.15-0.29,0.02-0.06c-0.1,0.19-0.26,0.37-0.34,0.56c0.1-0.23,0.15-0.18,0.06-0.08c-0.04,0.05-0.08,0.09-0.13,0.14
			c-0.09,0.09-0.18,0.18-0.27,0.26c0,0-0.14,0.11-0.14,0.12c0-0.03,0.3-0.2,0.08-0.07c-0.09,0.06-0.18,0.12-0.28,0.17
			c-0.09,0.05-0.2,0.09-0.29,0.15c0.28-0.17,0.2-0.08,0.1-0.05c-0.08,0.02-0.15,0.05-0.22,0.07c-0.09,0.02-0.24,0.03-0.32,0.07
			c0.19-0.1,0.22-0.01,0.07-0.02c-0.07,0-0.15,0-0.22,0c-0.04,0-0.23-0.01-0.02,0c0.22,0.01-0.01-0.02-0.07-0.03
			c-0.17-0.03,0.1,0.02,0.1,0.05c-0.04-0.02-0.09-0.05-0.13-0.08c-0.09-0.06-0.06-0.03,0.11,0.08c0-0.02-0.09-0.09-0.1-0.1
			c-0.15-0.12,0.15,0.24,0.05,0.07c-0.06-0.1-0.12-0.2-0.18-0.3c-0.12-0.2,0.01,0.07,0.03,0.08c-0.02-0.01-0.07-0.19-0.07-0.19
			c-0.05-0.14-0.09-0.29-0.12-0.44c-0.02-0.07-0.08-0.45-0.05-0.25c0.03,0.22,0-0.03,0-0.08c-0.01-0.08-0.01-0.15-0.01-0.23
			c0-0.13,0-0.27,0-0.4c0-0.08,0.01-0.15,0.02-0.23c0.02-0.26,0,0.06-0.01,0.06c0.06,0,0.13-0.95,0.27-0.99c0,0-0.12,0.26-0.04,0.1
			c0.04-0.08,0.08-0.16,0.12-0.24c0.07-0.13,0.15-0.25,0.23-0.37c0.09-0.13-0.08,0.11-0.08,0.11c0.04-0.01,0.13-0.14,0.17-0.18
			c0.05-0.05,0.1-0.09,0.14-0.13c0.12-0.12-0.27,0.15-0.03,0.04c0.03-0.02,0.15-0.07,0.16-0.09c-0.04,0.05-0.3,0.1-0.1,0.05
			c0,0,0.17-0.03,0.18-0.04c-0.07,0.01-0.14,0.02-0.21,0.03c0.06,0,0.13,0,0.19,0.01c0.78,0.05,1.53-0.73,1.5-1.5
			C112.73,175.94,112.1,175.35,111.26,175.3L111.26,175.3z"/>
	</g>
</g>
<g>
	<g>
		<path d="M110.52,202.23c-0.48,0.2-0.87,0.4-1.26,0.76c-0.28,0.26-0.52,0.59-0.7,0.93c-0.39,0.74-0.56,1.51-0.65,2.34
			c-0.1,0.88-0.02,1.83,0.47,2.6c0.51,0.81,1.39,1.35,2.31,1.6c1.66,0.44,3.58-0.08,4.67-1.43c1.16-1.44,1.42-3.32,0.63-4.99
			c-0.44-0.93-1.3-1.66-2.28-1.96c-0.55-0.17-1.12-0.17-1.68-0.07c-0.59,0.1-1.07,0.4-1.53,0.76c-0.28,0.22-0.44,0.72-0.44,1.06
			c0,0.37,0.16,0.81,0.44,1.06c0.29,0.26,0.66,0.46,1.06,0.44c0.42-0.02,0.73-0.18,1.06-0.44c-0.33,0.26-0.17,0.13-0.07,0.07
			c0.17-0.1,0.14,0.02-0.11,0.03c0.08-0.01,0.24-0.05,0.31-0.09c-0.22,0.12-0.33,0.03-0.12,0.02c0.07,0,0.13,0,0.2,0
			c0.13,0,0.18,0.08-0.16-0.02c0.07,0.02,0.16,0.04,0.24,0.06c0.23,0.06-0.12-0.06-0.13-0.07c0.06,0.01,0.13,0.06,0.18,0.09
			c0.05,0.03,0.14,0.06,0.17,0.11c0,0-0.29-0.25-0.12-0.09c0.08,0.07,0.15,0.15,0.23,0.23c0.2,0.2-0.16-0.25-0.06-0.08
			c0.04,0.07,0.09,0.13,0.13,0.21c0.03,0.06,0.06,0.12,0.09,0.18c0.06,0.11,0.02,0.19-0.06-0.13c0.03,0.12,0.08,0.23,0.1,0.35
			c0.01,0.06,0.04,0.14,0.04,0.2c0,0-0.04-0.41-0.03-0.16c0.01,0.13,0.01,0.27,0,0.4c0,0.05-0.04,0.32,0,0.04
			c0.04-0.28,0-0.01-0.01,0.04c-0.02,0.1-0.05,0.21-0.08,0.31c-0.02,0.06-0.04,0.13-0.07,0.19c-0.06,0.19,0.18-0.35,0.04-0.1
			c-0.07,0.12-0.12,0.24-0.2,0.35c-0.03,0.04-0.07,0.09-0.09,0.13c0.13-0.29,0.16-0.2,0.06-0.09c-0.08,0.09-0.17,0.17-0.25,0.25
			c-0.17,0.16,0.11-0.07,0.12-0.08c-0.05,0.05-0.11,0.08-0.17,0.12c-0.12,0.08-0.26,0.17-0.4,0.21c0.02-0.01,0.36-0.13,0.13-0.06
			c-0.05,0.01-0.1,0.03-0.16,0.05c-0.12,0.03-0.24,0.06-0.36,0.08c-0.2,0.04,0.41-0.03,0.11-0.02c-0.05,0-0.11,0.01-0.16,0.01
			c-0.13,0-0.28-0.03-0.41-0.02c0.32-0.03,0.29,0.04,0.12,0.01c-0.07-0.01-0.13-0.03-0.2-0.05c-0.1-0.03-0.21-0.09-0.31-0.1
			c0.27,0.03,0.26,0.12,0.1,0.04c-0.06-0.03-0.12-0.06-0.18-0.1c-0.05-0.03-0.1-0.08-0.15-0.1c0.17,0.14,0.21,0.17,0.13,0.1
			c-0.03-0.03-0.07-0.06-0.1-0.09c0,0-0.11-0.13-0.12-0.13c0.04,0.05,0.08,0.11,0.13,0.16c-0.02-0.04-0.05-0.07-0.07-0.11
			c-0.11-0.15,0.1,0.37,0.03,0.09c-0.01-0.06-0.03-0.11-0.05-0.16c-0.01-0.04-0.01-0.13-0.03-0.17c0.12,0.25,0.03,0.29,0.02,0.1
			c-0.01-0.16,0-0.32,0.01-0.48c0.01-0.14,0.09-0.62,0-0.08c0.02-0.12,0.04-0.25,0.06-0.37c0.03-0.12,0.06-0.25,0.09-0.37
			c0.02-0.06,0.04-0.12,0.06-0.18c0.02-0.06,0.13-0.33,0.02-0.07c-0.11,0.26-0.01,0.02,0.02-0.02c0.03-0.07,0.07-0.13,0.1-0.19
			c0.02-0.04,0.05-0.08,0.08-0.12c0.13-0.23-0.24,0.27-0.06,0.08c0.08-0.08,0.17-0.16,0.25-0.25c-0.25,0.28-0.23,0.16-0.1,0.09
			c0.11-0.05,0.38-0.17-0.07,0.01c0.38-0.15,0.68-0.32,0.9-0.69c0.19-0.32,0.27-0.8,0.15-1.16c-0.12-0.36-0.34-0.71-0.69-0.9
			C111.34,202.2,110.88,202.08,110.52,202.23L110.52,202.23z"/>
	</g>
</g>
<g>
	<g>
		<path d="M113.37,235.09c-0.93-0.8-2.14-0.92-3.23-0.37c-0.89,0.45-1.45,1.38-1.75,2.29c-0.27,0.82-0.28,1.68-0.15,2.53
			c0.13,0.82,0.51,1.56,1.02,2.2c0.98,1.22,2.77,1.7,4.25,1.24c0.84-0.26,1.54-0.77,2.02-1.51c0.57-0.87,0.63-1.93,0.45-2.93
			c-0.16-0.92-0.61-1.8-1.07-2.6c-0.28-0.48-0.65-0.94-1.14-1.22c-0.31-0.18-0.69-0.3-1.05-0.3c-0.53,0-0.93,0.23-1.33,0.55
			c-0.28,0.22-0.44,0.72-0.44,1.06c0,0.37,0.16,0.81,0.44,1.06c0.29,0.26,0.66,0.46,1.06,0.44c0.42-0.02,0.73-0.18,1.06-0.44
			c-0.54,0.25-0.69,0.34-0.45,0.28c-0.13,0.02-0.27,0.04-0.4,0.05c0.04,0,0.08,0,0.11,0c-0.13-0.02-0.27-0.04-0.4-0.05
			c0.22,0.05-0.33-0.19-0.12-0.06c0.17,0.11-0.13-0.09-0.13-0.11c0,0.01,0.15,0.14,0.16,0.16c0.17,0.18-0.16-0.25-0.08-0.1
			c0.15,0.26,0.3,0.51,0.43,0.77c0.07,0.13,0.13,0.27,0.19,0.4c0.11,0.24-0.1-0.25-0.03-0.07c0.03,0.07,0.05,0.14,0.08,0.2
			c0.11,0.29,0.19,0.6,0.23,0.91c-0.02-0.13-0.04-0.27-0.05-0.4c0.03,0.24,0.04,0.48,0.01,0.73c0.02-0.13,0.04-0.27,0.05-0.4
			c-0.02,0.13-0.04,0.26-0.08,0.39c-0.01,0.03-0.03,0.14-0.05,0.15c0.04-0.02,0.17-0.35,0.03-0.1c-0.03,0.05-0.06,0.09-0.09,0.14
			c-0.1,0.17,0.1-0.16,0.12-0.15c-0.01,0-0.19,0.2-0.22,0.22c-0.14,0.13,0.14-0.13,0.16-0.12c-0.01,0-0.11,0.07-0.13,0.08
			c-0.08,0.05-0.16,0.08-0.24,0.13c0.43-0.24,0.17-0.07,0.01-0.03c-0.1,0.03-0.2,0.05-0.31,0.06c0.13-0.02,0.27-0.04,0.4-0.05
			c-0.25,0.03-0.5,0.03-0.76,0c0.13,0.02,0.27,0.04,0.4,0.05c-0.13-0.02-0.25-0.04-0.37-0.08c-0.06-0.02-0.12-0.04-0.18-0.06
			c-0.24-0.08,0.34,0.17,0.13,0.05c-0.11-0.06-0.22-0.13-0.32-0.19c0.38,0.21,0.2,0.16,0.09,0.06c-0.06-0.06-0.12-0.12-0.18-0.18
			c-0.04-0.04-0.21-0.26-0.04-0.04c0.17,0.22,0.01,0-0.03-0.05c-0.08-0.12-0.14-0.25-0.2-0.38c-0.07-0.14,0.15,0.39,0.04,0.09
			c-0.02-0.07-0.05-0.14-0.06-0.21c-0.04-0.15-0.07-0.3-0.1-0.46c0.02,0.13,0.04,0.27,0.05,0.4c-0.05-0.34-0.05-0.68-0.01-1.02
			c-0.02,0.13-0.04,0.27-0.05,0.4c0.03-0.2,0.07-0.41,0.13-0.61c0.01-0.04,0.07-0.31,0.11-0.33c0,0-0.16,0.33-0.05,0.14
			c0.03-0.06,0.06-0.12,0.09-0.17c0.03-0.05,0.06-0.09,0.08-0.13c0.08-0.15-0.21,0.24-0.09,0.11c0.02-0.03,0.22-0.27,0.25-0.25
			c0.01,0.01-0.31,0.2-0.11,0.1c0.04-0.02,0.09-0.04,0.13-0.07c-0.27,0.19-0.27,0.1-0.12,0.06c0.06-0.02,0.12-0.03,0.18-0.04
			c-0.13,0.02-0.27,0.04-0.4,0.05c0.15-0.02,0.28-0.02,0.43,0c-0.13-0.02-0.27-0.04-0.4-0.05c0.07,0.01,0.36,0.12,0.09,0
			c-0.13-0.06-0.15-0.07-0.05-0.01c0.13,0.08,0.08,0.05-0.13-0.11c0.31,0.26,0.65,0.44,1.06,0.44c0.37,0,0.81-0.16,1.06-0.44
			C113.88,236.65,114,235.63,113.37,235.09L113.37,235.09z"/>
	</g>
</g>
<g>
	<g>
		<path d="M112.97,264.57c0.07-0.02,0.14-0.03,0.22-0.04c-0.13,0.02-0.27,0.04-0.4,0.05c0.18-0.02,0.36-0.02,0.55,0
			c-0.13-0.02-0.27-0.04-0.4-0.05c0.2,0.03,0.39,0.08,0.58,0.16c-0.12-0.05-0.24-0.1-0.36-0.15c0.19,0.08,0.36,0.18,0.52,0.31
			c-0.1-0.08-0.2-0.16-0.3-0.23c0.14,0.12,0.27,0.24,0.39,0.39c-0.08-0.1-0.16-0.2-0.23-0.3c0.11,0.15,0.2,0.3,0.27,0.47
			c-0.05-0.12-0.1-0.24-0.15-0.36c0.06,0.16,0.1,0.31,0.13,0.48c-0.02-0.13-0.04-0.27-0.05-0.4c0.02,0.18,0.02,0.36-0.01,0.55
			c0.02-0.13,0.04-0.27,0.05-0.4c-0.03,0.2-0.09,0.39-0.17,0.58c0.05-0.12,0.1-0.24,0.15-0.36c-0.08,0.19-0.19,0.36-0.31,0.52
			c0.08-0.1,0.16-0.2,0.23-0.3c-0.12,0.14-0.24,0.27-0.39,0.39c0.1-0.08,0.2-0.16,0.3-0.23c-0.13,0.1-0.27,0.18-0.42,0.25
			c0.12-0.05,0.24-0.1,0.36-0.15c-0.15,0.06-0.31,0.11-0.48,0.13c0.13-0.02,0.27-0.04,0.4-0.05c-0.18,0.02-0.36,0.02-0.55,0
			c0.13,0.02,0.27,0.04,0.4,0.05c-0.2-0.03-0.39-0.08-0.58-0.15c0.12,0.05,0.24,0.1,0.36,0.15c-0.19-0.08-0.36-0.18-0.52-0.3
			c0.1,0.08,0.2,0.16,0.3,0.23c-0.16-0.12-0.3-0.26-0.43-0.43c0.08,0.1,0.16,0.2,0.23,0.3c-0.1-0.13-0.18-0.27-0.25-0.43
			c0.05,0.12,0.1,0.24,0.15,0.36c-0.06-0.15-0.11-0.31-0.13-0.48c0.02,0.13,0.04,0.27,0.05,0.4c-0.02-0.18-0.02-0.36,0-0.55
			c-0.02,0.13-0.04,0.27-0.05,0.4c0.03-0.2,0.08-0.39,0.16-0.58c-0.05,0.12-0.1,0.24-0.15,0.36c0.08-0.19,0.18-0.36,0.3-0.52
			c-0.08,0.1-0.16,0.2-0.23,0.3c0.11-0.14,0.24-0.27,0.38-0.39c-0.1,0.08-0.2,0.16-0.3,0.23c0.15-0.11,0.3-0.2,0.47-0.28
			c-0.12,0.05-0.24,0.1-0.36,0.15c0.03-0.01,0.07-0.03,0.1-0.04c0.37-0.13,0.69-0.34,0.9-0.69c0.19-0.32,0.27-0.8,0.15-1.16
			c-0.23-0.73-1.05-1.33-1.85-1.05c-0.79,0.28-1.4,0.76-1.89,1.44c-0.41,0.57-0.6,1.27-0.65,1.96c-0.09,1.39,0.82,2.79,2.08,3.33
			c0.46,0.2,0.84,0.3,1.34,0.36c0.34,0.04,0.69-0.01,1.03-0.07c0.66-0.13,1.33-0.54,1.78-1.04c1.04-1.16,1.33-2.79,0.61-4.19
			c-0.33-0.64-0.93-1.22-1.58-1.52c-0.82-0.39-1.68-0.52-2.57-0.31c-0.76,0.19-1.29,1.09-1.05,1.85
			C111.39,264.32,112.16,264.77,112.97,264.57L112.97,264.57z"/>
	</g>
</g>
<g>
	<g>
		<path d="M46.77,405.98c-0.79,14.93,1.14,29.8,3.32,44.55c1.09,7.37,2.25,14.73,3.16,22.13c0.86,6.98,1.21,14,1.97,20.99
			c0.78,7.12,2.24,14.27,6.12,20.41c1.03,1.63,3.63,0.12,2.59-1.51c-3.43-5.43-4.87-11.74-5.61-18.06
			c-0.79-6.7-1.08-13.45-1.87-20.15c-1.71-14.57-4.46-29-5.92-43.61c-0.82-8.22-1.2-16.49-0.76-24.75
			C49.87,404.05,46.87,404.05,46.77,405.98L46.77,405.98z"/>
	</g>
</g>
<g>
	<g>
		<path d="M107.49,408.5c1.77,6.57,1.05,13.38-0.27,19.96c-1.35,6.73-3.09,13.37-4.35,20.12c-1.27,6.8-2.26,13.65-2.99,20.52
			c-0.68,6.39-0.91,12.8-1.5,19.2c-0.63,6.89-2.05,13.69-5.76,19.62c-1.03,1.64,1.57,3.15,2.59,1.51
			c6.92-11.04,6.17-24.47,7.33-36.96c0.66-7.1,1.62-14.17,2.88-21.19c1.24-6.93,2.95-13.75,4.41-20.63
			c1.6-7.55,2.6-15.38,0.55-22.95C109.89,405.84,106.99,406.63,107.49,408.5L107.49,408.5z"/>
	</g>
</g>
<g>
	<g>
		<path d="M89.53,496.92c5.69,19.55,4.89,40.43,4.42,60.57c-0.49,21.01-1.7,42.01-3.4,62.95c-0.34,4.2-0.22,9.08-2.15,12.95
			c-2.07,4.16-6.54,5.29-10.88,5.04c-5.05-0.3-10.15-1.73-15.08-2.81c-2.52-0.55-5.04-1.13-7.56-1.72
			c-1.12-0.26-2.25-0.51-3.36-0.81c-0.95-0.25-1.87-0.56-2.23-1.56c-0.66-1.87,0.26-4.45,0.6-6.3c0.46-2.49,0.91-4.99,1.35-7.49
			c0.91-5.16,1.79-10.33,2.59-15.5c1.58-10.23,2.9-20.51,3.7-30.83c0.8-10.33,1.09-20.7,0.63-31.06
			c-0.44-9.85-1.67-19.86-0.23-29.69c0.36-2.45,0.89-4.86,1.6-7.23c0.56-1.85-2.34-2.65-2.89-0.8c-2.99,9.97-2.48,20.44-1.87,30.69
			c0.64,10.75,0.79,21.46,0.16,32.22c-0.63,10.8-1.86,21.55-3.44,32.25c-0.8,5.43-1.69,10.84-2.63,16.24
			c-0.46,2.66-0.94,5.32-1.42,7.98c-0.44,2.42-1.03,4.85-1.27,7.3c-0.18,1.93,0.18,4.02,1.73,5.34c1.76,1.49,4.49,1.74,6.65,2.25
			c5.19,1.22,10.39,2.35,15.61,3.41c4.73,0.95,9.88,1.97,14.54,0.18c4.14-1.59,6.59-5.03,7.6-9.27c1.13-4.76,1.17-9.86,1.55-14.72
			c0.43-5.45,0.82-10.89,1.17-16.34c0.71-10.98,1.27-21.97,1.64-32.97c0.36-10.77,0.6-21.56,0.48-32.34
			c-0.12-10.43-0.73-20.92-2.86-31.16c-0.53-2.54-1.16-5.05-1.88-7.54C91.89,494.27,88.99,495.06,89.53,496.92L89.53,496.92z"/>
	</g>
</g>
<g>
	<g>
		<path d="M112.65,410.11c1.62,14.79,3.24,29.58,4.86,44.37c0.81,7.35,1.61,14.71,2.42,22.06c0.69,6.28,1.35,12.58,2.73,18.75
			c1.49,6.64,3.89,13.15,7.92,18.68c1.13,1.54,3.73,0.05,2.59-1.51c-7.26-9.95-8.77-22.52-10.08-34.43
			c-1.59-14.46-3.17-28.92-4.76-43.38c-0.9-8.18-1.79-16.36-2.69-24.54C115.44,408.21,112.44,408.19,112.65,410.11L112.65,410.11z"
			/>
	</g>
</g>
<g>
	<g>
		<path d="M127.54,511.67c1.57,30.46,3.14,60.95,2.56,91.46c-0.14,7.11-0.63,14.26-0.04,21.36c0.29,3.39,0.82,6.78,1.8,10.04
			c0.88,2.92,2.09,5.64,5.38,6.29c3.36,0.67,7,0.28,10.39,0.12c3.8-0.18,7.61-0.36,11.41-0.54c3.77-0.18,7.55-0.33,11.3-0.79
			c2.85-0.35,5.92-1.08,7.34-3.87c1.53-3,0.93-7.09,0.66-10.31c-0.31-3.75-0.89-7.48-1.75-11.14c-1.76-7.48-4.69-14.68-8.62-21.29
			c-0.99-1.66-3.58-0.15-2.59,1.51c6.51,10.95,10.32,23.81,10.21,36.59c-0.01,1.25-0.07,2.72-0.87,3.76
			c-0.85,1.09-2.35,1.42-3.64,1.64c-3.46,0.58-7.05,0.66-10.55,0.83c-3.47,0.17-6.94,0.33-10.41,0.49c-3.49,0.16-7,0.43-10.49,0.25
			c-1.22-0.06-2.66-0.11-3.51-1.11c-0.92-1.09-1.24-2.78-1.61-4.11c-0.9-3.25-1.35-6.6-1.56-9.96c-0.41-6.74,0.04-13.51,0.16-20.26
			c0.26-14.25,0.06-28.51-0.4-42.76c-0.51-16.08-1.34-32.14-2.17-48.2C130.44,509.75,127.44,509.74,127.54,511.67L127.54,511.67z"/>
	</g>
</g>
<g>
	<g>
		<path d="M176.37,613.27c-1.61-9.26-2.39-18.62-2.93-27.99c-0.56-9.63-0.23-19.23,0.31-28.86c0.54-9.63,1.02-19.24,0.92-28.89
			c-0.1-8.73-0.56-17.44-0.75-26.17c-0.18-8.23-0.19-16.47-0.49-24.7c-0.07-1.92-3.07-1.93-3,0c0.27,7.36,0.3,14.72,0.44,22.08
			c0.16,8.53,0.59,17.05,0.75,25.57c0.18,9.65-0.14,19.26-0.69,28.89c-0.55,9.7-1.13,19.43-0.65,29.15
			c0.52,10.61,1.38,21.23,3.2,31.71C173.8,615.97,176.69,615.16,176.37,613.27L176.37,613.27z"/>
	</g>
</g>
<g>
	<g>
		<path d="M175.39,405.84c0.69,11.34,0.34,22.72-0.48,34.04c-0.41,5.67-0.92,11.34-1.47,17c-0.46,4.77-0.93,9.42-2.08,14.08
			c-1.18,4.8-2.66,9.52-3.89,14.31c-0.48,1.87,2.41,2.67,2.89,0.8c1.1-4.27,2.4-8.49,3.5-12.76c1.17-4.55,1.85-9.05,2.31-13.72
			c1.12-11.4,2.17-22.81,2.49-34.26c0.18-6.5,0.12-13-0.28-19.49C178.27,403.92,175.27,403.91,175.39,405.84L175.39,405.84z"/>
	</g>
</g>
<g>
	<g>
		<path d="M136.88,640.12c-0.85,4.13-1.5,8.67-1.01,12.89c0.21,1.83,0.98,3.42,2.7,4.24c1.79,0.85,3.85,1.3,5.8,1.58
			c0.52,0.08,1.04,0.14,1.55,0.19c0.17,0.02,0.47-0.02,0.63,0.07c0.31,0.16-0.03-0.22,0.04,0.19c0.15,0.86,0.29,1.7,0.55,2.54
			c0.52,1.65,1.29,3.23,2.27,4.66c1.96,2.85,4.61,5.19,7.61,6.9c3.58,2.03,7.58,3.23,11.6,4.05c3.72,0.76,7.77,1.66,11.58,1.26
			c3.56-0.37,6.69-2.16,8.33-5.43c1.79-3.57,1.59-7.61,0.52-11.36c-2.59-9.16-8.14-17.36-13.28-25.25
			c-1.05-1.61-3.65-0.11-2.59,1.51c4.17,6.4,8.42,12.86,11.35,19.94c1.4,3.4,2.86,7.26,2.24,11.01c-0.5,3.05-2.35,5.59-5.43,6.36
			c-3.27,0.81-6.92-0.02-10.17-0.61c-3.63-0.66-7.3-1.51-10.66-3.07c-2.85-1.32-5.42-3.12-7.48-5.51c-0.97-1.12-1.79-2.39-2.4-3.73
			c-0.31-0.67-0.55-1.36-0.74-2.06c-0.23-0.83-0.24-1.75-0.52-2.56c-0.73-2.1-3.11-1.8-4.89-2.1c-1.07-0.18-2.13-0.44-3.17-0.76
			c-0.85-0.26-1.85-0.47-2.25-1.35c-0.37-0.83-0.28-1.93-0.28-2.81c-0.01-1.11,0.02-2.22,0.09-3.33c0.14-2.25,0.45-4.47,0.91-6.67
			C140.16,639.03,137.27,638.23,136.88,640.12L136.88,640.12z"/>
	</g>
</g>
<g>
	<g>
		<path d="M50.46,634.36c-6.29,7.21-12.57,14.42-18.86,21.63c-1.26,1.45-2.72,2.87-3.43,4.69c-0.72,1.84-0.67,4.12-0.38,6.06
			c0.67,4.39,5.22,4.36,8.72,4.62c4.8,0.35,9.61,0.57,14.42,0.66c2.3,0.04,4.6,0.06,6.91,0.03c2.12-0.03,4.3-0.17,6.3-0.94
			c3.54-1.35,6.16-4.15,8.32-7.17c1.08-1.52,1.85-3.57,3.95-3.68c2.18-0.11,4.27-0.19,6.4-0.73c2.1-0.53,4.3-1.3,6.05-2.61
			c1.74-1.31,2.61-3.05,2.89-5.18c0.68-5.14,0.59-10.43,0.11-15.58c-0.18-1.91-3.18-1.92-3,0c0.4,4.21,0.47,8.43,0.17,12.65
			c-0.12,1.63-0.05,3.69-1.17,5.01c-1.11,1.3-2.95,1.95-4.53,2.45c-1.9,0.6-3.86,0.94-5.85,0.98c-1.75,0.04-3.33,0.11-4.71,1.31
			c-1.26,1.09-2.04,2.7-3.01,4.03c-1,1.39-2.14,2.71-3.45,3.81c-3.03,2.55-6.6,2.65-10.39,2.66c-4.32,0.01-8.63-0.1-12.94-0.31
			c-2.16-0.11-4.31-0.24-6.46-0.4c-1.49-0.11-3.56,0.06-4.92-0.7c-1.32-0.73-1.07-3.4-0.92-4.69c0.22-1.93,1.67-3.27,2.88-4.66
			c6.34-7.27,12.68-14.55,19.02-21.82C53.84,635.03,51.73,632.9,50.46,634.36L50.46,634.36z"/>
	</g>
</g>
</svg>
